SplineFontDB: 3.2
FontName: Pretension-BlackItalic
FullName: Pretension Black Italic
FamilyName: Pretension Black
Weight: Black
Copyright: Copyright 2016 The Inter Project Authors
Version: 4.000;git-a52131595
ItalicAngle: -9.39999
UnderlinePosition: -318
UnderlineWidth: 246
Ascent: 1638
Descent: 410
InvalidEm: 0
sfntRevision: 0x00040000
LayerCount: 2
Layer: 0 1 "Back" 1
Layer: 1 1 "Fore" 0
XUID: [1021 89 -1234937351 2336518]
StyleMap: 0x0001
FSType: 0
OS2Version: 4
OS2_WeightWidthSlopeOnly: 0
OS2_UseTypoMetrics: 1
CreationTime: 1700438797
ModificationTime: 1707692241
PfmFamily: 17
TTFWeight: 900
TTFWidth: 5
LineGap: 0
VLineGap: 0
Panose: 2 0 5 3 0 0 0 2 0 4
OS2TypoAscent: 1984
OS2TypoAOffset: 0
OS2TypoDescent: -494
OS2TypoDOffset: 0
OS2TypoLinegap: 0
OS2WinAscent: 1984
OS2WinAOffset: 0
OS2WinDescent: 494
OS2WinDOffset: 0
HheadAscent: 1984
HheadAOffset: 0
HheadDescent: -494
HheadDOffset: 0
OS2SubXSize: 1331
OS2SubYSize: 1229
OS2SubXOff: -25
OS2SubYOff: 154
OS2SupXSize: 1331
OS2SupYSize: 1229
OS2SupXOff: 119
OS2SupYOff: 717
OS2StrikeYSize: 246
OS2StrikeYPos: 653
OS2CapHeight: 1490
OS2XHeight: 1087
OS2Vendor: 'RSMS'
OS2CodePages: 0000019f.00000000
OS2UnicodeRanges: e0000aff.5200a1ff.00000021.00000000
Lookup: 1 0 0 "'aalt' Access All Alternates in Latin lookup 0" { "'aalt' Access All Alternates in Latin lookup 0 subtable"  } ['aalt' ('DFLT' <'dflt' > 'latn' <'CAT ' 'MOL ' 'ROM ' 'dflt' > ) ]
Lookup: 3 0 0 "'aalt' Access All Alternates in Latin lookup 1" { "'aalt' Access All Alternates in Latin lookup 1 subtable"  } ['aalt' ('DFLT' <'dflt' > 'latn' <'CAT ' 'MOL ' 'ROM ' 'dflt' > ) ]
Lookup: 1 0 0 "Single Substitution lookup 2" { "Single Substitution lookup 2 subtable"  } []
Lookup: 4 0 0 "'ccmp' Glyph Composition/Decomposition in Latin lookup 3" { "'ccmp' Glyph Composition/Decomposition in Latin lookup 3 subtable"  } ['ccmp' ('DFLT' <'dflt' > 'latn' <'CAT ' 'MOL ' 'ROM ' 'dflt' > ) ]

StartChar: .notdef
Encoding: 1114112 -1 0
Width: 1344
Flags: W
LayerCount: 2
Fore
SplineSet
858 -416 m 1,0,-1
 170 -416 l 1,1,-1
 546 1856 l 1,2,-1
 1234 1856 l 1,3,-1
 858 -416 l 1,0,-1
391 -192 m 1,4,-1
 381 -256 l 1,5,-1
 701 -256 l 1,6,-1
 711 -192 l 1,7,-1
 496 -192 l 1,8,-1
 732 -65 l 1,9,-1
 743 0 l 1,10,-1
 423 0 l 1,11,-1
 412 -64 l 1,12,-1
 628 -64 l 1,13,-1
 391 -192 l 1,4,-1
476 320 m 1,14,-1
 434 64 l 1,15,-1
 754 64 l 1,16,-1
 796 320 l 1,17,-1
 476 320 l 1,14,-1
700 128 m 1,18,-1
 508 128 l 1,19,-1
 529 256 l 1,20,-1
 721 256 l 1,21,-1
 700 128 l 1,18,-1
540 704 m 1,22,-1
 497 448 l 1,23,-1
 817 448 l 1,24,-1
 860 704 l 1,25,-1
 668 704 l 1,26,-1
 646 576 l 1,27,-1
 710 576 l 1,28,-1
 721 640 l 1,29,-1
 785 640 l 1,30,-1
 764 512 l 1,31,-1
 572 512 l 1,32,-1
 604 704 l 1,33,-1
 540 704 l 1,22,-1
561 832 m 1,34,-1
 550 768 l 1,35,-1
 870 768 l 1,36,-1
 907 992 l 1,37,-1
 843 992 l 1,38,-1
 817 832 l 1,39,-1
 561 832 l 1,34,-1
582 960 m 1,40,-1
 571 896 l 1,41,-1
 763 896 l 1,42,-1
 790 1056 l 1,43,-1
 918 1056 l 1,44,-1
 928 1120 l 1,45,-1
 608 1120 l 1,46,-1
 598 1056 l 1,47,-1
 726 1056 l 1,48,-1
 710 960 l 1,49,-1
 582 960 l 1,40,-1
758 1248 m 1,50,-1
 694 1248 l 1,51,-1
 709 1344 l 1,52,-1
 773 1344 l 1,53,-1
 758 1248 l 1,50,-1
656 1408 m 1,54,-1
 619 1184 l 1,55,-1
 939 1184 l 1,56,-1
 950 1248 l 1,57,-1
 822 1248 l 1,58,-1
 848 1408 l 1,59,-1
 656 1408 l 1,54,-1
677 1536 m 1,60,-1
 667 1472 l 1,61,-1
 987 1472 l 1,62,-1
 997 1536 l 1,63,-1
 853 1536 l 1,64,-1
 869 1632 l 1,65,-1
 1013 1632 l 1,66,-1
 1024 1696 l 1,67,-1
 704 1696 l 1,68,-1
 693 1632 l 1,69,-1
 805 1632 l 1,70,-1
 789 1536 l 1,71,-1
 677 1536 l 1,60,-1
EndSplineSet
EndChar

StartChar: A
Encoding: 65 65 2
Width: 1597
GlyphClass: 2
Flags: W
AnchorPoint: "Anchor-4" 1484 0 basechar 0
AnchorPoint: "Anchor-1" 954 1490 basechar 0
AnchorPoint: "Anchor-0" 707 0 basechar 0
LayerCount: 2
Fore
SplineSet
-67 0 m 1,0,-1
 672 1490 l 1,1,-1
 1228 1490 l 1,2,-1
 1484 0 l 1,3,-1
 1036 0 l 1,4,-1
 961 578 l 2,5,6
 938 766 938 766 919.5 959.5 c 128,-1,7
 901 1153 901 1153 888 1352 c 1,8,-1
 990 1352 l 1,9,10
 912 1152 912 1152 832.5 959.5 c 128,-1,11
 753 767 753 767 667 578 c 2,12,-1
 401 0 l 1,13,-1
 -67 0 l 1,0,-1
343 266 m 1,14,-1
 394 577 l 1,15,-1
 1215 577 l 1,16,-1
 1163 266 l 1,17,-1
 343 266 l 1,14,-1
EndSplineSet
Substitution2: "'c2sc' Capitals to Small Capitals in Latin lookup 67 subtable" a.sc
Substitution2: "'ss06' Style Set 6 in Latin lookup 52 subtable" A.squared
Substitution2: "'ss05' Style Set 5 in Latin lookup 51 subtable" uni24B6
Substitution2: "Single Substitution lookup 44 subtable" ordfeminine
AlternateSubs2: "'aalt' Access All Alternates in Latin lookup 1 subtable" ordfeminine a.sc
Position2: "'cpsp' Capital Spacing in Latin lookup 0 subtable" dx=0 dy=0 dh=0 dv=0
EndChar

StartChar: uni023A
Encoding: 570 570 46
Width: 1597
GlyphClass: 2
Flags: W
AnchorPoint: "Anchor-4" 1484 0 basechar 0
AnchorPoint: "Anchor-1" 954 1490 basechar 0
AnchorPoint: "Anchor-0" 707 0 basechar 0
LayerCount: 2
Fore
SplineSet
1327 1678 m 1,0,-1
 454 -190 l 1,1,-1
 376 -190 l 1,2,-1
 1249 1678 l 1,3,-1
 1327 1678 l 1,0,-1
-67 0 m 1,4,-1
 672 1490 l 1,5,-1
 1228 1490 l 1,6,-1
 1484 0 l 1,7,-1
 1036 0 l 1,8,-1
 961 578 l 2,9,10
 938 766 938 766 919.5 959.5 c 128,-1,11
 901 1153 901 1153 888 1352 c 1,12,-1
 990 1352 l 1,13,14
 912 1152 912 1152 832.5 959.5 c 128,-1,15
 753 767 753 767 667 578 c 2,16,-1
 401 0 l 1,17,-1
 -67 0 l 1,4,-1
343 266 m 1,18,-1
 394 577 l 1,19,-1
 1215 577 l 1,20,-1
 1163 266 l 1,21,-1
 343 266 l 1,18,-1
EndSplineSet
Position2: "'cpsp' Capital Spacing in Latin lookup 0 subtable" dx=0 dy=0 dh=0 dv=0
EndChar

StartChar: Lambda
Encoding: 923 923 60
Width: 1597
GlyphClass: 2
Flags: W
AnchorPoint: "Anchor-1" 954 1490 basechar 0
AnchorPoint: "Anchor-0" 707 0 basechar 0
LayerCount: 2
Fore
SplineSet
-67 0 m 1,0,-1
 672 1490 l 1,1,-1
 1228 1490 l 1,2,-1
 1484 0 l 1,3,-1
 1036 0 l 1,4,-1
 961 578 l 2,5,6
 937 766 937 766 919 959.5 c 128,-1,7
 901 1153 901 1153 888 1352 c 1,8,-1
 990 1352 l 1,9,10
 912 1152 912 1152 832 959.5 c 128,-1,11
 752 767 752 767 667 578 c 2,12,-1
 401 0 l 1,13,-1
 -67 0 l 1,0,-1
EndSplineSet
Position2: "'cpsp' Capital Spacing in Latin lookup 0 subtable" dx=0 dy=0 dh=0 dv=0
EndChar

StartChar: AE
Encoding: 198 198 61
Width: 2133
GlyphClass: 2
Flags: W
AnchorPoint: "Anchor-1" 1490 1490 basechar 0
LayerCount: 2
Fore
SplineSet
-67 0 m 1,0,-1
 762 1490 l 1,1,-1
 2210 1490 l 1,2,-1
 2155 1156 l 1,3,-1
 1482 1156 l 1,4,-1
 1440 906 l 1,5,-1
 2035 906 l 1,6,-1
 1982 586 l 1,7,-1
 1387 586 l 1,8,-1
 1345 336 l 1,9,-1
 2015 336 l 1,10,-1
 1959 0 l 1,11,-1
 889 0 l 1,12,-1
 1074 1114 l 1,13,-1
 963 1114 l 1,14,-1
 370 0 l 1,15,-1
 -67 0 l 1,0,-1
339 294 m 1,16,-1
 389 596 l 1,17,-1
 1163 596 l 1,18,-1
 1113 294 l 1,19,-1
 339 294 l 1,16,-1
EndSplineSet
Position2: "'cpsp' Capital Spacing in Latin lookup 0 subtable" dx=0 dy=0 dh=0 dv=0
EndChar

StartChar: B
Encoding: 66 66 65
Width: 1350
GlyphClass: 2
Flags: W
AnchorPoint: "Anchor-1" 815 1490 basechar 0
AnchorPoint: "Anchor-0" 567 0 basechar 0
LayerCount: 2
Fore
SplineSet
-2 0 m 1,0,-1
 245 1490 l 1,1,-1
 881 1490 l 2,2,3
 1051 1490 1051 1490 1161 1440 c 128,-1,4
 1271 1390 1271 1390 1318 1300 c 128,-1,5
 1365 1210 1365 1210 1345 1092 c 0,6,7
 1332 1014 1332 1014 1283 951.5 c 128,-1,8
 1234 889 1234 889 1160 846.5 c 128,-1,9
 1086 804 1086 804 998 787 c 1,10,-1
 998 780 l 1,11,12
 1094 775 1094 775 1165 725.5 c 128,-1,13
 1236 676 1236 676 1269.5 592 c 128,-1,14
 1303 508 1303 508 1284 397 c 0,15,16
 1265 281 1265 281 1190.5 191.5 c 128,-1,17
 1116 102 1116 102 994.5 51 c 128,-1,18
 873 0 873 0 711 0 c 2,19,-1
 -2 0 l 1,0,-1
455 318 m 1,20,-1
 654 318 l 2,21,22
 743 318 743 318 801.5 361.5 c 128,-1,23
 860 405 860 405 872 480 c 0,24,25
 880 525 880 525 864 557 c 128,-1,26
 848 589 848 589 811 605.5 c 128,-1,27
 774 622 774 622 719 622 c 2,28,-1
 506 622 l 1,29,-1
 455 318 l 1,20,-1
551 894 m 1,30,-1
 726 894 l 2,31,32
 775 894 775 894 817 912.5 c 128,-1,33
 859 931 859 931 887 966 c 128,-1,34
 915 1001 915 1001 922 1048 c 0,35,36
 933 1109 933 1109 895.5 1142.5 c 128,-1,37
 858 1176 858 1176 786 1176 c 2,38,-1
 597 1176 l 1,39,-1
 551 894 l 1,30,-1
EndSplineSet
Substitution2: "'ss06' Style Set 6 in Latin lookup 52 subtable" B.squared
Substitution2: "'ss05' Style Set 5 in Latin lookup 51 subtable" uni24B7
Position2: "'cpsp' Capital Spacing in Latin lookup 0 subtable" dx=0 dy=0 dh=0 dv=0
EndChar

StartChar: uni0181
Encoding: 385 385 70
Width: 1830
GlyphClass: 2
Flags: W
AnchorPoint: "Anchor-1" 1295 1490 basechar 0
AnchorPoint: "Anchor-0" 1047 0 basechar 0
LayerCount: 2
Fore
SplineSet
111 1021 m 1,0,-1
 126 1117 l 2,1,2
 156 1297 156 1297 274 1393.5 c 128,-1,3
 392 1490 392 1490 601 1490 c 2,4,-1
 725 1490 l 1,5,-1
 669 1158 l 1,6,-1
 612 1158 l 2,7,8
 562 1158 562 1158 531.5 1135.5 c 128,-1,9
 501 1113 501 1113 494 1068 c 2,10,-1
 487 1021 l 1,11,-1
 111 1021 l 1,0,-1
478 0 m 1,12,-1
 725 1490 l 1,13,-1
 1361 1490 l 2,14,15
 1531 1490 1531 1490 1641 1440 c 128,-1,16
 1751 1390 1751 1390 1798 1300 c 128,-1,17
 1845 1210 1845 1210 1825 1092 c 0,18,19
 1812 1014 1812 1014 1763 951.5 c 128,-1,20
 1714 889 1714 889 1640 846.5 c 128,-1,21
 1566 804 1566 804 1478 787 c 1,22,-1
 1478 780 l 1,23,24
 1574 775 1574 775 1645 725.5 c 128,-1,25
 1716 676 1716 676 1749.5 592 c 128,-1,26
 1783 508 1783 508 1764 397 c 0,27,28
 1745 281 1745 281 1670.5 191.5 c 128,-1,29
 1596 102 1596 102 1474.5 51 c 128,-1,30
 1353 0 1353 0 1191 0 c 2,31,-1
 478 0 l 1,12,-1
935 318 m 1,32,-1
 1134 318 l 2,33,34
 1223 318 1223 318 1281.5 361.5 c 128,-1,35
 1340 405 1340 405 1352 480 c 0,36,37
 1360 525 1360 525 1344 557 c 128,-1,38
 1328 589 1328 589 1291 605.5 c 128,-1,39
 1254 622 1254 622 1199 622 c 2,40,-1
 986 622 l 1,41,-1
 935 318 l 1,32,-1
1031 894 m 1,42,-1
 1206 894 l 2,43,44
 1255 894 1255 894 1297 912.5 c 128,-1,45
 1339 931 1339 931 1367 966 c 128,-1,46
 1395 1001 1395 1001 1402 1048 c 0,47,48
 1413 1109 1413 1109 1375.5 1142.5 c 128,-1,49
 1338 1176 1338 1176 1266 1176 c 2,50,-1
 1077 1176 l 1,51,-1
 1031 894 l 1,42,-1
EndSplineSet
Position2: "'cpsp' Capital Spacing in Latin lookup 0 subtable" dx=0 dy=0 dh=0 dv=0
EndChar

StartChar: C
Encoding: 67 67 73
Width: 1521
GlyphClass: 2
Flags: W
AnchorPoint: "Anchor-3" 677 7 basechar 0
AnchorPoint: "Anchor-1" 931 1490 basechar 0
LayerCount: 2
Fore
SplineSet
704 -22 m 0,0,1
 521 -22 521 -22 380 50 c 128,-1,2
 239 122 239 122 159 259.5 c 128,-1,3
 79 397 79 397 79 596 c 0,4,5
 79 782 79 782 137.5 947.5 c 128,-1,6
 196 1113 196 1113 306.5 1240 c 128,-1,7
 417 1367 417 1367 571.5 1439.5 c 128,-1,8
 726 1512 726 1512 918 1512 c 0,9,10
 1059 1512 1059 1512 1174.5 1473.5 c 128,-1,11
 1290 1435 1290 1435 1371.5 1361 c 128,-1,12
 1453 1287 1453 1287 1493 1180.5 c 128,-1,13
 1533 1074 1533 1074 1526 938 c 1,14,-1
 1112 938 l 1,15,16
 1113 988 1113 988 1100.5 1028.5 c 128,-1,17
 1088 1069 1088 1069 1062.5 1097.5 c 128,-1,18
 1037 1126 1037 1126 999 1141 c 128,-1,19
 961 1156 961 1156 910 1156 c 0,20,21
 802 1156 802 1156 723.5 1105.5 c 128,-1,22
 645 1055 645 1055 594 972.5 c 128,-1,23
 543 890 543 890 518 791.5 c 128,-1,24
 493 693 493 693 493 598 c 0,25,26
 493 511 493 511 520 452 c 128,-1,27
 547 393 547 393 600 363.5 c 128,-1,28
 653 334 653 334 731 334 c 0,29,30
 790 334 790 334 840.5 349.5 c 128,-1,31
 891 365 891 365 932 393.5 c 128,-1,32
 973 422 973 422 1002.5 462 c 128,-1,33
 1032 502 1032 502 1050 553 c 1,34,-1
 1464 553 l 1,35,36
 1434 439 1434 439 1367.5 336 c 128,-1,37
 1301 233 1301 233 1203 152.5 c 128,-1,38
 1105 72 1105 72 979.5 25 c 128,-1,39
 854 -22 854 -22 704 -22 c 0,0,1
EndSplineSet
Substitution2: "'ss06' Style Set 6 in Latin lookup 52 subtable" C.squared
Substitution2: "'ss05' Style Set 5 in Latin lookup 51 subtable" uni24B8
Position2: "'cpsp' Capital Spacing in Latin lookup 0 subtable" dx=0 dy=0 dh=0 dv=0
EndChar

StartChar: uni0187
Encoding: 391 391 74
Width: 1521
GlyphClass: 2
Flags: W
AnchorPoint: "Anchor-3" 677 7 basechar 0
AnchorPoint: "Anchor-1" 931 1490 basechar 0
LayerCount: 2
Fore
SplineSet
1129 938 m 1,0,-1
 1192 1314 l 2,1,2
 1223 1502 1223 1502 1339 1595.5 c 128,-1,3
 1455 1689 1455 1689 1666 1689 c 0,4,5
 1727 1689 1727 1689 1780 1685.5 c 128,-1,6
 1833 1682 1833 1682 1871 1676 c 1,7,-1
 1823 1383 l 1,8,9
 1798 1385 1798 1385 1766.5 1386.5 c 128,-1,10
 1735 1388 1735 1388 1698 1388 c 0,11,12
 1647 1388 1647 1388 1621 1368 c 128,-1,13
 1595 1348 1595 1348 1588 1303 c 2,14,-1
 1527 938 l 1,15,-1
 1129 938 l 1,0,-1
704 -22 m 0,16,17
 521 -22 521 -22 380 50 c 128,-1,18
 239 122 239 122 159 259.5 c 128,-1,19
 79 397 79 397 79 596 c 0,20,21
 79 782 79 782 137.5 947.5 c 128,-1,22
 196 1113 196 1113 306.5 1240 c 128,-1,23
 417 1367 417 1367 571.5 1439.5 c 128,-1,24
 726 1512 726 1512 918 1512 c 0,25,26
 1059 1512 1059 1512 1174.5 1473.5 c 128,-1,27
 1290 1435 1290 1435 1371.5 1361 c 128,-1,28
 1453 1287 1453 1287 1493 1180.5 c 128,-1,29
 1533 1074 1533 1074 1526 938 c 1,30,-1
 1112 938 l 1,31,32
 1113 988 1113 988 1100.5 1028.5 c 128,-1,33
 1088 1069 1088 1069 1062.5 1097.5 c 128,-1,34
 1037 1126 1037 1126 999 1141 c 128,-1,35
 961 1156 961 1156 910 1156 c 0,36,37
 802 1156 802 1156 723.5 1105.5 c 128,-1,38
 645 1055 645 1055 594 972.5 c 128,-1,39
 543 890 543 890 518 791.5 c 128,-1,40
 493 693 493 693 493 598 c 0,41,42
 493 511 493 511 520 452 c 128,-1,43
 547 393 547 393 600 363.5 c 128,-1,44
 653 334 653 334 731 334 c 0,45,46
 790 334 790 334 840.5 349.5 c 128,-1,47
 891 365 891 365 932 393.5 c 128,-1,48
 973 422 973 422 1002.5 462 c 128,-1,49
 1032 502 1032 502 1050 553 c 1,50,-1
 1464 553 l 1,51,52
 1434 439 1434 439 1367.5 336 c 128,-1,53
 1301 233 1301 233 1203 152.5 c 128,-1,54
 1105 72 1105 72 979.5 25 c 128,-1,55
 854 -22 854 -22 704 -22 c 0,16,17
EndSplineSet
Position2: "'cpsp' Capital Spacing in Latin lookup 0 subtable" dx=0 dy=0 dh=0 dv=0
EndChar

StartChar: uni023B
Encoding: 571 571 81
Width: 1521
GlyphClass: 2
Flags: W
AnchorPoint: "Anchor-3" 677 7 basechar 0
AnchorPoint: "Anchor-1" 931 1490 basechar 0
LayerCount: 2
Fore
SplineSet
275 -190 m 1,0,-1
 1148 1678 l 1,1,-1
 1356 1678 l 1,2,-1
 481 -190 l 1,3,-1
 275 -190 l 1,0,-1
704 -22 m 0,4,5
 521 -22 521 -22 380 50 c 128,-1,6
 239 122 239 122 159 259.5 c 128,-1,7
 79 397 79 397 79 596 c 0,8,9
 79 782 79 782 137.5 947.5 c 128,-1,10
 196 1113 196 1113 306.5 1240 c 128,-1,11
 417 1367 417 1367 571.5 1439.5 c 128,-1,12
 726 1512 726 1512 918 1512 c 0,13,14
 1059 1512 1059 1512 1174.5 1473.5 c 128,-1,15
 1290 1435 1290 1435 1371.5 1361 c 128,-1,16
 1453 1287 1453 1287 1493 1180.5 c 128,-1,17
 1533 1074 1533 1074 1526 938 c 1,18,-1
 1112 938 l 1,19,20
 1113 988 1113 988 1100.5 1028.5 c 128,-1,21
 1088 1069 1088 1069 1062.5 1097.5 c 128,-1,22
 1037 1126 1037 1126 999 1141 c 128,-1,23
 961 1156 961 1156 910 1156 c 0,24,25
 802 1156 802 1156 723.5 1105.5 c 128,-1,26
 645 1055 645 1055 594 972.5 c 128,-1,27
 543 890 543 890 518 791.5 c 128,-1,28
 493 693 493 693 493 598 c 0,29,30
 493 511 493 511 520 452 c 128,-1,31
 547 393 547 393 600 363.5 c 128,-1,32
 653 334 653 334 731 334 c 0,33,34
 790 334 790 334 840.5 349.5 c 128,-1,35
 891 365 891 365 932 393.5 c 128,-1,36
 973 422 973 422 1002.5 462 c 128,-1,37
 1032 502 1032 502 1050 553 c 1,38,-1
 1464 553 l 1,39,40
 1434 439 1434 439 1367.5 336 c 128,-1,41
 1301 233 1301 233 1203 152.5 c 128,-1,42
 1105 72 1105 72 979.5 25 c 128,-1,43
 854 -22 854 -22 704 -22 c 0,4,5
EndSplineSet
Ligature2: "'ccmp' Glyph Composition/Decomposition in Latin lookup 6 subtable" C uni0338
Position2: "'cpsp' Capital Spacing in Latin lookup 0 subtable" dx=0 dy=0 dh=0 dv=0
EndChar

StartChar: uni0186
Encoding: 390 390 82
Width: 1521
GlyphClass: 2
Flags: W
AnchorPoint: "Anchor-3" 911 1485 basechar 0
AnchorPoint: "Anchor-1" 657 0 basechar 0
LayerCount: 2
Fore
SplineSet
884 1512 m 0,0,1
 1068 1512 1068 1512 1209 1441 c 128,-1,2
 1350 1370 1350 1370 1430 1232 c 128,-1,3
 1510 1094 1510 1094 1510 895 c 0,4,5
 1510 709 1510 709 1451 543.5 c 128,-1,6
 1392 378 1392 378 1282 250.5 c 128,-1,7
 1172 123 1172 123 1017.5 50.5 c 128,-1,8
 863 -22 863 -22 671 -22 c 0,9,10
 530 -22 530 -22 414.5 17 c 128,-1,11
 299 56 299 56 217.5 130 c 128,-1,12
 136 204 136 204 95.5 311 c 128,-1,13
 55 418 55 418 62 554 c 1,14,-1
 477 554 l 1,15,16
 476 503 476 503 488 462.5 c 128,-1,17
 500 422 500 422 526 393.5 c 128,-1,18
 552 365 552 365 590 349.5 c 128,-1,19
 628 334 628 334 679 334 c 0,20,21
 787 334 787 334 865.5 385 c 128,-1,22
 944 436 944 436 995 519 c 128,-1,23
 1046 602 1046 602 1071 700 c 128,-1,24
 1096 798 1096 798 1096 893 c 0,25,26
 1096 980 1096 980 1069 1038.5 c 128,-1,27
 1042 1097 1042 1097 989 1126.5 c 128,-1,28
 936 1156 936 1156 857 1156 c 0,29,30
 799 1156 799 1156 748.5 1141.5 c 128,-1,31
 698 1127 698 1127 657 1098 c 128,-1,32
 616 1069 616 1069 586 1029 c 128,-1,33
 556 989 556 989 539 939 c 1,34,-1
 125 939 l 1,35,36
 155 1052 155 1052 221.5 1155.5 c 128,-1,37
 288 1259 288 1259 385.5 1339.5 c 128,-1,38
 483 1420 483 1420 609 1466 c 128,-1,39
 735 1512 735 1512 884 1512 c 0,0,1
EndSplineSet
Position2: "'cpsp' Capital Spacing in Latin lookup 0 subtable" dx=0 dy=0 dh=0 dv=0
EndChar

StartChar: D
Encoding: 68 68 84
Width: 1468
GlyphClass: 2
Flags: W
AnchorPoint: "Anchor-1" 748 1490 basechar 0
AnchorPoint: "Anchor-0" 580 0 basechar 0
LayerCount: 2
Fore
SplineSet
640 0 m 2,0,-1
 169 0 l 1,1,-1
 225 344 l 1,2,-1
 615 344 l 2,3,4
 732 344 732 344 817 383.5 c 128,-1,5
 902 423 902 423 956 511.5 c 128,-1,6
 1010 600 1010 600 1033 744 c 0,7,8
 1058 891 1058 891 1033 979 c 128,-1,9
 1008 1067 1008 1067 935 1106.5 c 128,-1,10
 862 1146 862 1146 740 1146 c 2,11,-1
 352 1146 l 1,12,-1
 410 1490 l 1,13,-1
 797 1490 l 2,14,15
 1028 1490 1028 1490 1186.5 1399.5 c 128,-1,16
 1345 1309 1345 1309 1415 1142 c 128,-1,17
 1485 975 1485 975 1446 744 c 0,18,19
 1409 515 1409 515 1305 348 c 128,-1,20
 1201 181 1201 181 1035 90.5 c 128,-1,21
 869 0 869 0 640 0 c 2,0,-1
655 1490 m 1,22,-1
 408 0 l 1,23,-1
 -2 0 l 1,24,-1
 245 1490 l 1,25,-1
 655 1490 l 1,22,-1
EndSplineSet
Substitution2: "'ss06' Style Set 6 in Latin lookup 52 subtable" D.squared
Substitution2: "'ss05' Style Set 5 in Latin lookup 51 subtable" uni24B9
Position2: "'cpsp' Capital Spacing in Latin lookup 0 subtable" dx=0 dy=0 dh=0 dv=0
EndChar

StartChar: uni018A
Encoding: 394 394 85
Width: 1948
GlyphClass: 2
Flags: W
AnchorPoint: "Anchor-1" 1228 1490 basechar 0
AnchorPoint: "Anchor-0" 1060 0 basechar 0
LayerCount: 2
Fore
SplineSet
111 1021 m 1,0,-1
 126 1117 l 2,1,2
 156 1297 156 1297 274 1393.5 c 128,-1,3
 392 1490 392 1490 602 1490 c 2,4,-1
 725 1490 l 1,5,-1
 670 1158 l 1,6,-1
 613 1158 l 2,7,8
 562 1158 562 1158 531.5 1135.5 c 128,-1,9
 501 1113 501 1113 494 1068 c 2,10,-1
 487 1021 l 1,11,-1
 111 1021 l 1,0,-1
1120 0 m 2,12,-1
 649 0 l 1,13,-1
 705 344 l 1,14,-1
 1095 344 l 2,15,16
 1212 344 1212 344 1297 383.5 c 128,-1,17
 1382 423 1382 423 1436 511.5 c 128,-1,18
 1490 600 1490 600 1513 744 c 0,19,20
 1538 891 1538 891 1513 979 c 128,-1,21
 1488 1067 1488 1067 1415 1106.5 c 128,-1,22
 1342 1146 1342 1146 1220 1146 c 2,23,-1
 832 1146 l 1,24,-1
 890 1490 l 1,25,-1
 1277 1490 l 2,26,27
 1508 1490 1508 1490 1666.5 1399.5 c 128,-1,28
 1825 1309 1825 1309 1895 1142 c 128,-1,29
 1965 975 1965 975 1926 744 c 0,30,31
 1889 515 1889 515 1785 348 c 128,-1,32
 1681 181 1681 181 1515 90.5 c 128,-1,33
 1349 0 1349 0 1120 0 c 2,12,-1
1135 1490 m 1,34,-1
 888 0 l 1,35,-1
 478 0 l 1,36,-1
 725 1490 l 1,37,-1
 1135 1490 l 1,34,-1
EndSplineSet
Position2: "'cpsp' Capital Spacing in Latin lookup 0 subtable" dx=0 dy=0 dh=0 dv=0
EndChar

StartChar: E
Encoding: 69 69 95
Width: 1282
GlyphClass: 2
Flags: W
AnchorPoint: "Anchor-4" 1110 0 basechar 0
AnchorPoint: "Anchor-3" 555 0 basechar 0
AnchorPoint: "Anchor-1" 803 1490 basechar 0
AnchorPoint: "Anchor-0" 556 0 basechar 0
LayerCount: 2
Fore
SplineSet
-2 0 m 1,0,-1
 245 1490 l 1,1,-1
 1359 1490 l 1,2,-1
 1303 1152 l 1,3,-1
 599 1152 l 1,4,-1
 560 914 l 1,5,-1
 1207 914 l 1,6,-1
 1152 584 l 1,7,-1
 505 584 l 1,8,-1
 465 340 l 1,9,-1
 1167 340 l 1,10,-1
 1110 0 l 1,11,-1
 -2 0 l 1,0,-1
EndSplineSet
Substitution2: "'ss06' Style Set 6 in Latin lookup 52 subtable" E.squared
Substitution2: "'ss05' Style Set 5 in Latin lookup 51 subtable" uni24BA
Position2: "'cpsp' Capital Spacing in Latin lookup 0 subtable" dx=0 dy=0 dh=0 dv=0
EndChar

StartChar: uni0246
Encoding: 582 582 121
Width: 1282
GlyphClass: 2
Flags: W
AnchorPoint: "Anchor-4" 1110 0 basechar 0
AnchorPoint: "Anchor-3" 555 0 basechar 0
AnchorPoint: "Anchor-1" 803 1490 basechar 0
AnchorPoint: "Anchor-0" 556 0 basechar 0
LayerCount: 2
Fore
SplineSet
193 -190 m 1,0,-1
 1042 1678 l 1,1,-1
 1207 1678 l 1,2,-1
 359 -190 l 1,3,-1
 193 -190 l 1,0,-1
-2 0 m 1,4,-1
 245 1490 l 1,5,-1
 1359 1490 l 1,6,-1
 1303 1152 l 1,7,-1
 599 1152 l 1,8,-1
 560 914 l 1,9,-1
 1207 914 l 1,10,-1
 1152 584 l 1,11,-1
 505 584 l 1,12,-1
 465 340 l 1,13,-1
 1167 340 l 1,14,-1
 1110 0 l 1,15,-1
 -2 0 l 1,4,-1
EndSplineSet
Position2: "'cpsp' Capital Spacing in Latin lookup 0 subtable" dx=0 dy=0 dh=0 dv=0
EndChar

StartChar: Eturn
Encoding: 398 398 122
Width: 1282
GlyphClass: 2
Flags: W
AnchorPoint: "Anchor-4" 239 1490 basechar 0
AnchorPoint: "Anchor-3" 550 0 basechar 0
AnchorPoint: "Anchor-1" 795 1490 basechar 0
AnchorPoint: "Anchor-0" 548 0 basechar 0
LayerCount: 2
Fore
SplineSet
1351 1490 m 1,0,-1
 1104 0 l 1,1,-1
 -10 0 l 1,2,-1
 47 340 l 1,3,-1
 750 340 l 1,4,-1
 790 578 l 1,5,-1
 142 578 l 1,6,-1
 197 906 l 1,7,-1
 844 906 l 1,8,-1
 885 1152 l 1,9,-1
 183 1152 l 1,10,-1
 239 1490 l 1,11,-1
 1351 1490 l 1,0,-1
EndSplineSet
Position2: "'cpsp' Capital Spacing in Latin lookup 0 subtable" dx=0 dy=0 dh=0 dv=0
EndChar

StartChar: F
Encoding: 70 70 137
Width: 1219
GlyphClass: 2
Flags: W
AnchorPoint: "Anchor-1" 787 1490 basechar 0
AnchorPoint: "Anchor-0" 204 0 basechar 0
LayerCount: 2
Fore
SplineSet
-2 0 m 1,0,-1
 245 1490 l 1,1,-1
 1329 1490 l 1,2,-1
 1273 1152 l 1,3,-1
 599 1152 l 1,4,-1
 549 851 l 1,5,-1
 1171 851 l 1,6,-1
 1116 524 l 1,7,-1
 495 524 l 1,8,-1
 408 0 l 1,9,-1
 -2 0 l 1,0,-1
EndSplineSet
Substitution2: "'ss06' Style Set 6 in Latin lookup 52 subtable" F.squared
Substitution2: "'ss05' Style Set 5 in Latin lookup 51 subtable" uni24BB
Position2: "'cpsp' Capital Spacing in Latin lookup 0 subtable" dx=0 dy=0 dh=0 dv=0
EndChar

StartChar: uni0191
Encoding: 401 401 138
Width: 1219
GlyphClass: 2
Flags: W
AnchorPoint: "Anchor-1" 787 1490 basechar 0
AnchorPoint: "Anchor-0" 204 0 basechar 0
LayerCount: 2
Fore
SplineSet
-289 -417 m 1,0,-1
 -238 -108 l 1,1,2
 -215 -111 -215 -111 -183 -112 c 128,-1,3
 -151 -113 -151 -113 -113 -113 c 0,4,5
 -63 -113 -63 -113 -38.5 -94 c 128,-1,6
 -14 -75 -14 -75 -7 -32 c 2,7,-1
 18 120 l 1,8,-1
 428 120 l 1,9,-1
 400 -55 l 2,10,11
 368 -242 368 -242 247.5 -335.5 c 128,-1,12
 127 -429 127 -429 -84 -429 c 0,13,14
 -146 -429 -146 -429 -199 -426 c 128,-1,15
 -252 -423 -252 -423 -289 -417 c 1,0,-1
-2 0 m 1,16,-1
 245 1490 l 1,17,-1
 1329 1490 l 1,18,-1
 1273 1152 l 1,19,-1
 599 1152 l 1,20,-1
 549 851 l 1,21,-1
 1171 851 l 1,22,-1
 1116 524 l 1,23,-1
 495 524 l 1,24,-1
 408 0 l 1,25,-1
 -2 0 l 1,16,-1
EndSplineSet
Position2: "'cpsp' Capital Spacing in Latin lookup 0 subtable" dx=0 dy=0 dh=0 dv=0
EndChar

StartChar: Fturn
Encoding: 8498 8498 140
Width: 1219
GlyphClass: 2
Flags: W
AnchorPoint: "Anchor-1" 1085 1490 basechar 0
AnchorPoint: "Anchor-0" 490 0 basechar 0
LayerCount: 2
Fore
SplineSet
1288 1490 m 1,0,-1
 1041 0 l 1,1,-1
 -43 0 l 1,2,-1
 13 340 l 1,3,-1
 687 340 l 1,4,-1
 737 639 l 1,5,-1
 115 639 l 1,6,-1
 170 968 l 1,7,-1
 791 968 l 1,8,-1
 878 1490 l 1,9,-1
 1288 1490 l 1,0,-1
EndSplineSet
Position2: "'cpsp' Capital Spacing in Latin lookup 0 subtable" dx=0 dy=0 dh=0 dv=0
EndChar

StartChar: G
Encoding: 1114113 -1 141
Width: 1532
GlyphClass: 2
Flags: W
AnchorPoint: "Anchor-1" 933 1490 basechar 0
AnchorPoint: "Anchor-0" 683 0 basechar 0
LayerCount: 2
Fore
SplineSet
714 -22 m 0,0,1
 517 -22 517 -22 375 53 c 128,-1,2
 233 128 233 128 156 266.5 c 128,-1,3
 79 405 79 405 79 597 c 0,4,5
 79 786 79 786 139.5 951.5 c 128,-1,6
 200 1117 200 1117 312 1243.5 c 128,-1,7
 424 1370 424 1370 579 1441 c 128,-1,8
 734 1512 734 1512 922 1512 c 0,9,10
 1052 1512 1052 1512 1165.5 1476.5 c 128,-1,11
 1279 1441 1279 1441 1363 1372.5 c 128,-1,12
 1447 1304 1447 1304 1491 1207 c 128,-1,13
 1535 1110 1535 1110 1525 988 c 1,14,-1
 1109 988 l 1,15,16
 1108 1027 1108 1027 1095 1058.5 c 128,-1,17
 1082 1090 1082 1090 1058 1112 c 128,-1,18
 1034 1134 1034 1134 999 1145 c 128,-1,19
 964 1156 964 1156 917 1156 c 0,20,21
 808 1156 808 1156 728 1106.5 c 128,-1,22
 648 1057 648 1057 596 975.5 c 128,-1,23
 544 894 544 894 518.5 796 c 128,-1,24
 493 698 493 698 493 601 c 0,25,26
 493 471 493 471 554.5 402.5 c 128,-1,27
 616 334 616 334 742 334 c 0,28,29
 836 334 836 334 906 364 c 128,-1,30
 976 394 976 394 1018.5 445 c 128,-1,31
 1061 496 1061 496 1071 561 c 1,32,-1
 1146 540 l 1,33,-1
 798 540 l 1,34,-1
 846 832 l 1,35,-1
 1514 832 l 1,36,-1
 1478 609 l 2,37,38
 1453 460 1453 460 1386 343 c 128,-1,39
 1319 226 1319 226 1218.5 145 c 128,-1,40
 1118 64 1118 64 989.5 21 c 128,-1,41
 861 -22 861 -22 714 -22 c 0,0,1
EndSplineSet
Substitution2: "'c2sc' Capitals to Small Capitals in Latin lookup 67 subtable" g.sc
Substitution2: "'cv10' Character Variants 10 in Latin lookup 64 subtable" G.1
Substitution2: "'ss06' Style Set 6 in Latin lookup 52 subtable" G.squared
Substitution2: "'ss05' Style Set 5 in Latin lookup 51 subtable" uni24BC
Substitution2: "'salt' Stylistic Alternatives in Latin lookup 46 subtable" G.1
Substitution2: "'aalt' Access All Alternates in Latin lookup 0 subtable" g.sc
Position2: "'cpsp' Capital Spacing in Latin lookup 0 subtable" dx=0 dy=0 dh=0 dv=0
EndChar

StartChar: uni0193
Encoding: 1114115 -1 143
Width: 1532
GlyphClass: 2
Flags: W
AnchorPoint: "Anchor-1" 933 1490 basechar 0
AnchorPoint: "Anchor-0" 683 0 basechar 0
LayerCount: 2
Fore
SplineSet
1261 1027 m 1,0,-1
 1248 1327 l 2,1,2
 1243 1453 1243 1453 1286.5 1530.5 c 128,-1,3
 1330 1608 1330 1608 1422.5 1644 c 128,-1,4
 1515 1680 1515 1680 1655 1680 c 0,5,6
 1717 1680 1717 1680 1769.5 1677.5 c 128,-1,7
 1822 1675 1822 1675 1860 1669 c 1,8,-1
 1811 1375 l 1,9,10
 1788 1377 1788 1377 1756 1378 c 128,-1,11
 1724 1379 1724 1379 1686 1379 c 0,12,13
 1636 1379 1636 1379 1610.5 1359.5 c 128,-1,14
 1585 1340 1585 1340 1576 1296 c 2,15,-1
 1526 988 l 1,16,-1
 1261 1027 l 1,0,-1
714 -22 m 0,17,18
 517 -22 517 -22 375 53 c 128,-1,19
 233 128 233 128 156 266.5 c 128,-1,20
 79 405 79 405 79 597 c 0,21,22
 79 786 79 786 139.5 951.5 c 128,-1,23
 200 1117 200 1117 312 1243.5 c 128,-1,24
 424 1370 424 1370 579 1441 c 128,-1,25
 734 1512 734 1512 922 1512 c 0,26,27
 1052 1512 1052 1512 1165.5 1476.5 c 128,-1,28
 1279 1441 1279 1441 1363 1372.5 c 128,-1,29
 1447 1304 1447 1304 1491 1207 c 128,-1,30
 1535 1110 1535 1110 1525 988 c 1,31,-1
 1109 988 l 1,32,33
 1108 1027 1108 1027 1095 1058.5 c 128,-1,34
 1082 1090 1082 1090 1058 1112 c 128,-1,35
 1034 1134 1034 1134 999 1145 c 128,-1,36
 964 1156 964 1156 917 1156 c 0,37,38
 808 1156 808 1156 728 1106.5 c 128,-1,39
 648 1057 648 1057 596 975.5 c 128,-1,40
 544 894 544 894 518.5 796 c 128,-1,41
 493 698 493 698 493 601 c 0,42,43
 493 471 493 471 554.5 402.5 c 128,-1,44
 616 334 616 334 742 334 c 0,45,46
 836 334 836 334 906 364 c 128,-1,47
 976 394 976 394 1018.5 445 c 128,-1,48
 1061 496 1061 496 1071 561 c 1,49,-1
 1146 540 l 1,50,-1
 798 540 l 1,51,-1
 846 832 l 1,52,-1
 1514 832 l 1,53,-1
 1478 609 l 2,54,55
 1453 460 1453 460 1386 343 c 128,-1,56
 1319 226 1319 226 1218.5 145 c 128,-1,57
 1118 64 1118 64 989.5 21 c 128,-1,58
 861 -22 861 -22 714 -22 c 0,17,18
EndSplineSet
Substitution2: "'c2sc' Capitals to Small Capitals in Latin lookup 67 subtable" uni0260.sc
Substitution2: "'cv10' Character Variants 10 in Latin lookup 64 subtable" uni0193.1
Substitution2: "'salt' Stylistic Alternatives in Latin lookup 46 subtable" uni0193.1
Substitution2: "'aalt' Access All Alternates in Latin lookup 0 subtable" uni0260.sc
Position2: "'cpsp' Capital Spacing in Latin lookup 0 subtable" dx=0 dy=0 dh=0 dv=0
EndChar

StartChar: G.1
Encoding: 57346 57346 151
AltUni2: 000047.ffffffff.0
Width: 1531
GlyphClass: 2
Flags: W
AnchorPoint: "Anchor-1" 938 1490 basechar 0
AnchorPoint: "Anchor-0" 678 3 basechar 0
LayerCount: 2
Fore
SplineSet
641 -22 m 0,0,1
 454 -22 454 -22 315 71.5 c 128,-1,2
 176 165 176 165 112.5 337 c 128,-1,3
 49 509 49 509 88 743 c 0,4,5
 119 929 119 929 199 1072.5 c 128,-1,6
 279 1216 279 1216 394.5 1314 c 128,-1,7
 510 1412 510 1412 650 1462 c 128,-1,8
 790 1512 790 1512 942 1512 c 0,9,10
 1076 1512 1076 1512 1186.5 1474.5 c 128,-1,11
 1297 1437 1297 1437 1376 1366.5 c 128,-1,12
 1455 1296 1455 1296 1494 1200 c 128,-1,13
 1533 1104 1533 1104 1525 988 c 1,14,-1
 1109 988 l 1,15,16
 1107 1027 1107 1027 1092.5 1058.5 c 128,-1,17
 1078 1090 1078 1090 1051 1112 c 128,-1,18
 1024 1134 1024 1134 985 1145 c 128,-1,19
 946 1156 946 1156 895 1156 c 0,20,21
 793 1156 793 1156 713 1108.5 c 128,-1,22
 633 1061 633 1061 581 969 c 128,-1,23
 529 877 529 877 507 746 c 256,24,25
 485 615 485 615 506.5 523 c 128,-1,26
 528 431 528 431 593 382.5 c 128,-1,27
 658 334 658 334 766 334 c 0,28,29
 851 334 851 334 915 361 c 128,-1,30
 979 388 979 388 1018 436 c 128,-1,31
 1057 484 1057 484 1068 548 c 1,32,-1
 1238 548 l 1,33,-1
 1222 449 l 2,34,35
 1204 338 1204 338 1153.5 250.5 c 128,-1,36
 1103 163 1103 163 1025.5 102.5 c 128,-1,37
 948 42 948 42 851 10 c 128,-1,38
 754 -22 754 -22 641 -22 c 0,0,1
1126 0 m 1,39,-1
 1128 337 l 1,40,-1
 1161 540 l 1,41,-1
 797 540 l 1,42,-1
 846 832 l 1,43,-1
 1514 832 l 1,44,-1
 1376 0 l 1,45,-1
 1126 0 l 1,39,-1
EndSplineSet
Substitution2: "'ss06' Style Set 6 in Latin lookup 52 subtable" G.1.squared
EndChar

StartChar: uni0193.1
Encoding: 57348 57348 153
AltUni2: 000193.ffffffff.0
Width: 1531
GlyphClass: 2
Flags: W
AnchorPoint: "Anchor-1" 938 1490 basechar 0
AnchorPoint: "Anchor-0" 678 3 basechar 0
LayerCount: 2
Fore
SplineSet
1260 1027 m 1,0,-1
 1247 1327 l 2,1,2
 1242 1453 1242 1453 1285.5 1530.5 c 128,-1,3
 1329 1608 1329 1608 1421.5 1644 c 128,-1,4
 1514 1680 1514 1680 1654 1680 c 0,5,6
 1716 1680 1716 1680 1768.5 1677.5 c 128,-1,7
 1821 1675 1821 1675 1859 1669 c 1,8,-1
 1810 1375 l 1,9,10
 1787 1377 1787 1377 1755 1378 c 128,-1,11
 1723 1379 1723 1379 1685 1379 c 0,12,13
 1635 1379 1635 1379 1609.5 1359.5 c 128,-1,14
 1584 1340 1584 1340 1575 1296 c 2,15,-1
 1525 988 l 1,16,-1
 1260 1027 l 1,0,-1
641 -22 m 0,17,18
 454 -22 454 -22 315 71.5 c 128,-1,19
 176 165 176 165 112.5 337 c 128,-1,20
 49 509 49 509 88 743 c 0,21,22
 119 929 119 929 199 1072.5 c 128,-1,23
 279 1216 279 1216 394.5 1314 c 128,-1,24
 510 1412 510 1412 650 1462 c 128,-1,25
 790 1512 790 1512 942 1512 c 0,26,27
 1076 1512 1076 1512 1186.5 1474.5 c 128,-1,28
 1297 1437 1297 1437 1376 1366.5 c 128,-1,29
 1455 1296 1455 1296 1494 1200 c 128,-1,30
 1533 1104 1533 1104 1525 988 c 1,31,-1
 1109 988 l 1,32,33
 1107 1027 1107 1027 1092.5 1058.5 c 128,-1,34
 1078 1090 1078 1090 1051 1112 c 128,-1,35
 1024 1134 1024 1134 985 1145 c 128,-1,36
 946 1156 946 1156 895 1156 c 0,37,38
 793 1156 793 1156 713 1108.5 c 128,-1,39
 633 1061 633 1061 581 969 c 128,-1,40
 529 877 529 877 507 746 c 256,41,42
 485 615 485 615 506.5 523 c 128,-1,43
 528 431 528 431 593 382.5 c 128,-1,44
 658 334 658 334 766 334 c 0,45,46
 851 334 851 334 915 361 c 128,-1,47
 979 388 979 388 1018 436 c 128,-1,48
 1057 484 1057 484 1068 548 c 1,49,-1
 1238 548 l 1,50,-1
 1222 449 l 2,51,52
 1204 338 1204 338 1153.5 250.5 c 128,-1,53
 1103 163 1103 163 1025.5 102.5 c 128,-1,54
 948 42 948 42 851 10 c 128,-1,55
 754 -22 754 -22 641 -22 c 0,17,18
1126 0 m 1,56,-1
 1128 337 l 1,57,-1
 1161 540 l 1,58,-1
 797 540 l 1,59,-1
 846 832 l 1,60,-1
 1514 832 l 1,61,-1
 1376 0 l 1,62,-1
 1126 0 l 1,56,-1
EndSplineSet
EndChar

StartChar: H
Encoding: 72 72 161
Width: 1513
GlyphClass: 2
Flags: W
AnchorPoint: "Anchor-3" 204 0 basechar 0
AnchorPoint: "Anchor-1" 914 1490 basechar 0
AnchorPoint: "Anchor-0" 667 0 basechar 0
LayerCount: 2
Fore
SplineSet
-2 0 m 1,0,-1
 245 1490 l 1,1,-1
 655 1490 l 1,2,-1
 562 929 l 1,3,-1
 1078 929 l 1,4,-1
 1171 1490 l 1,5,-1
 1581 1490 l 1,6,-1
 1334 0 l 1,7,-1
 924 0 l 1,8,-1
 1022 590 l 1,9,-1
 506 590 l 1,10,-1
 408 0 l 1,11,-1
 -2 0 l 1,0,-1
EndSplineSet
Substitution2: "'c2sc' Capitals to Small Capitals in Latin lookup 67 subtable" h.sc
Substitution2: "'ss06' Style Set 6 in Latin lookup 52 subtable" H.squared
Substitution2: "'ss05' Style Set 5 in Latin lookup 51 subtable" uni24BD
Substitution2: "'aalt' Access All Alternates in Latin lookup 0 subtable" h.sc
Position2: "'cpsp' Capital Spacing in Latin lookup 0 subtable" dx=0 dy=0 dh=0 dv=0
EndChar

StartChar: Hbar
Encoding: 294 294 169
Width: 1691
GlyphClass: 2
Flags: W
AnchorPoint: "Anchor-3" 288 0 basechar 0
AnchorPoint: "Anchor-1" 998 1490 basechar 0
AnchorPoint: "Anchor-0" 751 0 basechar 0
LayerCount: 2
Fore
SplineSet
1763 1268 m 1,0,-1
 1731 1076 l 1,1,-1
 137 1076 l 1,2,-1
 169 1268 l 1,3,-1
 1763 1268 l 1,0,-1
82 0 m 1,4,-1
 329 1490 l 1,5,-1
 739 1490 l 1,6,-1
 646 929 l 1,7,-1
 1162 929 l 1,8,-1
 1255 1490 l 1,9,-1
 1665 1490 l 1,10,-1
 1418 0 l 1,11,-1
 1008 0 l 1,12,-1
 1106 590 l 1,13,-1
 590 590 l 1,14,-1
 492 0 l 1,15,-1
 82 0 l 1,4,-1
EndSplineSet
Position2: "'cpsp' Capital Spacing in Latin lookup 0 subtable" dx=0 dy=0 dh=0 dv=0
EndChar

StartChar: uni04C7
Encoding: 1223 1223 170
Width: 1513
GlyphClass: 2
Flags: W
AnchorPoint: "Anchor-3" 204 0 basechar 0
AnchorPoint: "Anchor-1" 914 1490 basechar 0
AnchorPoint: "Anchor-0" 667 0 basechar 0
LayerCount: 2
Fore
SplineSet
637 -417 m 1,0,-1
 688 -108 l 1,1,2
 711 -111 711 -111 743 -112 c 128,-1,3
 775 -113 775 -113 813 -113 c 0,4,5
 863 -113 863 -113 887.5 -94 c 128,-1,6
 912 -75 912 -75 919 -32 c 2,7,-1
 944 120 l 1,8,-1
 1354 120 l 1,9,-1
 1326 -55 l 2,10,11
 1294 -242 1294 -242 1173.5 -335.5 c 128,-1,12
 1053 -429 1053 -429 842 -429 c 0,13,14
 780 -429 780 -429 727 -426 c 128,-1,15
 674 -423 674 -423 637 -417 c 1,0,-1
-2 0 m 1,16,-1
 245 1490 l 1,17,-1
 655 1490 l 1,18,-1
 562 929 l 1,19,-1
 1078 929 l 1,20,-1
 1171 1490 l 1,21,-1
 1581 1490 l 1,22,-1
 1334 0 l 1,23,-1
 924 0 l 1,24,-1
 1022 590 l 1,25,-1
 506 590 l 1,26,-1
 408 0 l 1,27,-1
 -2 0 l 1,16,-1
EndSplineSet
Position2: "'cpsp' Capital Spacing in Latin lookup 0 subtable" dx=0 dy=0 dh=0 dv=0
EndChar

StartChar: uni04A4
Encoding: 1188 1188 173
Width: 2074
GlyphClass: 2
Flags: W
AnchorPoint: "Anchor-3" 204 0 basechar 0
AnchorPoint: "Anchor-1" 914 1490 basechar 0
AnchorPoint: "Anchor-0" 667 0 basechar 0
LayerCount: 2
Fore
SplineSet
2183 1490 m 1,0,-1
 2128 1164 l 1,1,-1
 1473 1164 l 1,2,-1
 1185 1490 l 1,3,-1
 2183 1490 l 1,0,-1
-2 0 m 1,4,-1
 245 1490 l 1,5,-1
 655 1490 l 1,6,-1
 562 929 l 1,7,-1
 1078 929 l 1,8,-1
 1171 1490 l 1,9,-1
 1581 1490 l 1,10,-1
 1334 0 l 1,11,-1
 924 0 l 1,12,-1
 1022 590 l 1,13,-1
 506 590 l 1,14,-1
 408 0 l 1,15,-1
 -2 0 l 1,4,-1
EndSplineSet
Position2: "'cpsp' Capital Spacing in Latin lookup 0 subtable" dx=0 dy=0 dh=0 dv=0
EndChar

StartChar: uni01F6
Encoding: 502 502 174
Width: 2266
Flags: W
LayerCount: 2
Fore
SplineSet
1524 -22 m 0,0,1
 1344 -22 1344 -22 1218.5 44.5 c 128,-1,2
 1093 111 1093 111 1037.5 227.5 c 128,-1,3
 982 344 982 344 1007 496 c 2,4,-1
 1021 582 l 1,5,-1
 505 582 l 1,6,-1
 408 0 l 1,7,-1
 -2 0 l 1,8,-1
 245 1490 l 1,9,-1
 655 1490 l 1,10,-1
 561 921 l 1,11,-1
 1077 921 l 1,12,-1
 1171 1490 l 1,13,-1
 1581 1490 l 1,14,-1
 1414 483 l 2,15,16
 1400 395 1400 395 1432.5 350.5 c 128,-1,17
 1465 306 1465 306 1537 306 c 0,18,19
 1596 306 1596 306 1643.5 332 c 128,-1,20
 1691 358 1691 358 1723 404.5 c 128,-1,21
 1755 451 1755 451 1765 509 c 2,22,-1
 1856 1062 l 1,23,-1
 2258 1062 l 1,24,-1
 2160 470 l 2,25,26
 2136 318 2136 318 2049.5 208 c 128,-1,27
 1963 98 1963 98 1828 38 c 128,-1,28
 1693 -22 1693 -22 1524 -22 c 0,0,1
EndSplineSet
Position2: "'cpsp' Capital Spacing in Latin lookup 0 subtable" dx=0 dy=0 dh=0 dv=0
EndChar

StartChar: I
Encoding: 73 73 197
Width: 587
GlyphClass: 2
Flags: W
AnchorPoint: "Anchor-4" 408 0 basechar 0
AnchorPoint: "Anchor-1" 452 1490 basechar 0
AnchorPoint: "Anchor-0" 203 0 basechar 0
LayerCount: 2
Fore
SplineSet
655 1490 m 1,0,-1
 408 0 l 1,1,-1
 -2 0 l 1,2,-1
 245 1490 l 1,3,-1
 655 1490 l 1,0,-1
EndSplineSet
Substitution2: "'c2sc' Capitals to Small Capitals in Latin lookup 67 subtable" i.sc
Substitution2: "'cv08' Character Variants 08 in Latin lookup 62 subtable" I.1
Substitution2: "'ss06' Style Set 6 in Latin lookup 52 subtable" I.squared
Substitution2: "'ss05' Style Set 5 in Latin lookup 51 subtable" uni24BE
Substitution2: "'ss04' Style Set 4 in Latin lookup 50 subtable" I.1
Substitution2: "'ss02' Style Set 2 in Latin lookup 48 subtable" I.1
Substitution2: "'salt' Stylistic Alternatives in Latin lookup 46 subtable" I.1
Substitution2: "'aalt' Access All Alternates in Latin lookup 0 subtable" i.sc
Position2: "'cpsp' Capital Spacing in Latin lookup 0 subtable" dx=0 dy=0 dh=0 dv=0
EndChar

StartChar: I.1
Encoding: 57356 57356 235
Width: 967
GlyphClass: 2
Flags: W
AnchorPoint: "Anchor-4" 823 0 basechar 0
AnchorPoint: "Anchor-1" 641 1490 basechar 0
AnchorPoint: "Anchor-0" 394 0 basechar 0
LayerCount: 2
Fore
SplineSet
-36 0 m 1,0,-1
 18 326 l 1,1,-1
 242 326 l 1,2,-1
 382 1164 l 1,3,-1
 158 1164 l 1,4,-1
 211 1490 l 1,5,-1
 1070 1490 l 1,6,-1
 1015 1164 l 1,7,-1
 792 1164 l 1,8,-1
 652 326 l 1,9,-1
 877 326 l 1,10,-1
 823 0 l 1,11,-1
 -36 0 l 1,0,-1
EndSplineSet
EndChar

StartChar: J
Encoding: 74 74 267
Width: 1211
GlyphClass: 2
Flags: W
AnchorPoint: "Anchor-1" 1075 1490 basechar 0
LayerCount: 2
Fore
SplineSet
503 -22 m 0,0,1
 274 -22 274 -22 147.5 78 c 128,-1,2
 21 178 21 178 21 366 c 0,3,4
 21 382 21 382 23 403.5 c 128,-1,5
 25 425 25 425 31 465 c 128,-1,6
 37 505 37 505 49 576 c 1,7,-1
 443 576 l 1,8,9
 432 512 432 512 427.5 481.5 c 128,-1,10
 423 451 423 451 422 439.5 c 128,-1,11
 421 428 421 428 421 421 c 0,12,13
 421 365 421 365 451 336.5 c 128,-1,14
 481 308 481 308 538 308 c 0,15,16
 604 308 604 308 647 347.5 c 128,-1,17
 690 387 690 387 703 465 c 2,18,-1
 873 1490 l 1,19,-1
 1280 1490 l 1,20,-1
 1109 465 l 2,21,22
 1070 231 1070 231 917 104.5 c 128,-1,23
 764 -22 764 -22 503 -22 c 0,0,1
EndSplineSet
Substitution2: "'ss06' Style Set 6 in Latin lookup 52 subtable" J.squared
Substitution2: "'ss05' Style Set 5 in Latin lookup 51 subtable" uni24BF
Position2: "'cpsp' Capital Spacing in Latin lookup 0 subtable" dx=0 dy=0 dh=0 dv=0
EndChar

StartChar: K
Encoding: 75 75 272
Width: 1524
GlyphClass: 2
Flags: W
AnchorPoint: "Anchor-1" 899 1490 basechar 0
AnchorPoint: "Anchor-0" 652 0 basechar 0
LayerCount: 2
Fore
SplineSet
344 237 m 1,0,-1
 395 661 l 1,1,2
 454 741 454 741 510.5 811 c 128,-1,3
 567 881 567 881 629.5 952 c 128,-1,4
 692 1023 692 1023 770 1108 c 2,5,-1
 1130 1490 l 1,6,-1
 1630 1490 l 1,7,-1
 880 723 l 1,8,-1
 843 732 l 1,9,-1
 344 237 l 1,0,-1
-2 0 m 1,10,-1
 245 1490 l 1,11,-1
 662 1490 l 1,12,-1
 608 1171 l 1,13,-1
 533 741 l 1,14,-1
 504 545 l 1,15,-1
 415 0 l 1,16,-1
 -2 0 l 1,10,-1
959 0 m 1,17,-1
 699 600 l 1,18,-1
 978 904 l 1,19,-1
 1412 0 l 1,20,-1
 959 0 l 1,17,-1
EndSplineSet
Substitution2: "'ss06' Style Set 6 in Latin lookup 52 subtable" K.squared
Substitution2: "'ss05' Style Set 5 in Latin lookup 51 subtable" uni24C0
Position2: "'cpsp' Capital Spacing in Latin lookup 0 subtable" dx=0 dy=0 dh=0 dv=0
EndChar

StartChar: uni04A0
Encoding: 1184 1184 278
Width: 1869
GlyphClass: 2
Flags: W
AnchorPoint: "Anchor-1" 1206 1490 basechar 0
LayerCount: 2
Fore
SplineSet
785 1490 m 1,0,-1
 729 1151 l 1,1,-1
 149 1151 l 1,2,-1
 206 1490 l 1,3,-1
 785 1490 l 1,0,-1
342 0 m 1,4,-1
 589 1490 l 1,5,-1
 999 1490 l 1,6,-1
 907 930 l 1,7,-1
 1004 930 l 1,8,-1
 1486 1490 l 1,9,-1
 1977 1490 l 1,10,-1
 1324 765 l 1,11,-1
 1756 0 l 1,12,-1
 1298 0 l 1,13,-1
 977 595 l 1,14,-1
 851 595 l 1,15,-1
 752 0 l 1,16,-1
 342 0 l 1,4,-1
EndSplineSet
Position2: "'cpsp' Capital Spacing in Latin lookup 0 subtable" dx=0 dy=0 dh=0 dv=0
EndChar

StartChar: uni0198
Encoding: 408 408 280
Width: 1555
Flags: W
LayerCount: 2
Fore
SplineSet
-2 0 m 1,0,-1
 245 1490 l 1,1,-1
 649 1490 l 1,2,-1
 553 915 l 1,3,-1
 573 915 l 1,4,-1
 1068 1343 l 2,5,6
 1172 1432 1172 1432 1277 1474 c 128,-1,7
 1382 1516 1382 1516 1487.5 1507.5 c 128,-1,8
 1593 1499 1593 1499 1699 1435 c 1,9,-1
 1533 1153 l 1,10,11
 1469 1186 1469 1186 1425 1164 c 128,-1,12
 1381 1142 1381 1142 1327 1096 c 2,13,-1
 973 793 l 1,14,-1
 1450 0 l 1,15,-1
 967 0 l 1,16,-1
 666 504 l 1,17,-1
 455 320 l 1,18,-1
 403 0 l 1,19,-1
 -2 0 l 1,0,-1
EndSplineSet
Position2: "'cpsp' Capital Spacing in Latin lookup 0 subtable" dx=0 dy=0 dh=0 dv=0
EndChar

StartChar: L
Encoding: 76 76 282
Width: 1168
GlyphClass: 2
Flags: W
AnchorPoint: "Anchor-1" 449 1490 basechar 0
AnchorPoint: "Anchor-0" 505 0 basechar 0
LayerCount: 2
Fore
SplineSet
-2 0 m 1,0,-1
 245 1490 l 1,1,-1
 655 1490 l 1,2,-1
 465 340 l 1,3,-1
 1087 340 l 1,4,-1
 1030 0 l 1,5,-1
 -2 0 l 1,0,-1
EndSplineSet
Substitution2: "'c2sc' Capitals to Small Capitals in Latin lookup 67 subtable" l.sc
Substitution2: "'ss06' Style Set 6 in Latin lookup 52 subtable" L.squared
Substitution2: "'ss05' Style Set 5 in Latin lookup 51 subtable" uni24C1
Substitution2: "'aalt' Access All Alternates in Latin lookup 0 subtable" l.sc
Position2: "'cpsp' Capital Spacing in Latin lookup 0 subtable" dx=0 dy=0 dh=0 dv=0
EndChar

StartChar: M
Encoding: 77 77 293
Width: 1927
GlyphClass: 2
Flags: W
AnchorPoint: "Anchor-1" 1120 1490 basechar 0
AnchorPoint: "Anchor-0" 874 0 basechar 0
LayerCount: 2
Fore
SplineSet
-2 0 m 1,0,-1
 246 1490 l 1,1,-1
 875 1490 l 1,2,-1
 932 1025 l 2,3,4
 940 965 940 965 946.5 872 c 128,-1,5
 953 779 953 779 959 675 c 128,-1,6
 965 571 965 571 968.5 475 c 128,-1,7
 972 379 972 379 973 313 c 1,8,-1
 881 313 l 1,9,10
 903 380 903 380 938 475 c 128,-1,11
 973 570 973 570 1013 674.5 c 128,-1,12
 1053 779 1053 779 1090.5 872 c 128,-1,13
 1128 965 1128 965 1155 1024 c 2,14,-1
 1365 1490 l 1,15,-1
 1996 1490 l 1,16,-1
 1748 0 l 1,17,-1
 1340 0 l 1,18,-1
 1435 577 l 2,19,20
 1444 628 1444 628 1460.5 710.5 c 128,-1,21
 1477 793 1477 793 1496 891.5 c 128,-1,22
 1515 990 1515 990 1534.5 1090 c 128,-1,23
 1554 1190 1554 1190 1568 1276 c 1,24,-1
 1603 1276 l 1,25,26
 1568 1186 1568 1186 1527.5 1086 c 128,-1,27
 1487 986 1487 986 1446.5 889.5 c 128,-1,28
 1406 793 1406 793 1371 711.5 c 128,-1,29
 1336 630 1336 630 1310 577 c 2,30,-1
 1042 0 l 1,31,-1
 707 0 l 1,32,-1
 625 576 l 2,33,34
 615 648 615 648 603 766.5 c 128,-1,35
 591 885 591 885 579.5 1020.5 c 128,-1,36
 568 1156 568 1156 560 1276 c 1,37,-1
 601 1276 l 1,38,39
 587 1190 587 1190 573 1090 c 128,-1,40
 559 990 559 990 546 891.5 c 128,-1,41
 533 793 533 793 522 710.5 c 128,-1,42
 511 628 511 628 502 577 c 2,43,-1
 407 0 l 1,44,-1
 -2 0 l 1,0,-1
EndSplineSet
Substitution2: "'c2sc' Capitals to Small Capitals in Latin lookup 67 subtable" m.sc
Substitution2: "'ss06' Style Set 6 in Latin lookup 52 subtable" M.squared
Substitution2: "'ss05' Style Set 5 in Latin lookup 51 subtable" uni24C2
Substitution2: "'aalt' Access All Alternates in Latin lookup 0 subtable" m.sc
Position2: "'cpsp' Capital Spacing in Latin lookup 0 subtable" dx=0 dy=0 dh=0 dv=0
EndChar

StartChar: N
Encoding: 78 78 301
Width: 1545
GlyphClass: 2
Flags: W
AnchorPoint: "Anchor-1" 931 1490 basechar 0
AnchorPoint: "Anchor-0" 684 0 basechar 0
LayerCount: 2
Fore
SplineSet
-2 0 m 1,0,-1
 245 1490 l 1,1,-1
 678 1490 l 1,2,-1
 939 906 l 2,3,4
 965 848 965 848 991.5 777.5 c 128,-1,5
 1018 707 1018 707 1043.5 624 c 128,-1,6
 1069 541 1069 541 1090 447 c 1,7,-1
 1038 389 l 1,8,9
 1047 469 1047 469 1058.5 574.5 c 128,-1,10
 1070 680 1070 680 1083.5 780 c 128,-1,11
 1097 880 1097 880 1106 944 c 2,12,-1
 1198 1490 l 1,13,-1
 1614 1490 l 1,14,-1
 1367 0 l 1,15,-1
 935 0 l 1,16,-1
 690 544 l 2,17,18
 659 616 659 616 628.5 694 c 128,-1,19
 598 772 598 772 567.5 864 c 128,-1,20
 537 956 537 956 505 1065 c 1,21,-1
 568 1077 l 1,22,23
 559 971 559 971 547.5 869 c 128,-1,24
 536 767 536 767 524.5 682 c 128,-1,25
 513 597 513 597 504 544 c 2,26,-1
 415 0 l 1,27,-1
 -2 0 l 1,0,-1
EndSplineSet
Substitution2: "'c2sc' Capitals to Small Capitals in Latin lookup 67 subtable" n.sc
Substitution2: "'ss06' Style Set 6 in Latin lookup 52 subtable" N.squared
Substitution2: "'ss05' Style Set 5 in Latin lookup 51 subtable" uni24C3
Substitution2: "'aalt' Access All Alternates in Latin lookup 0 subtable" n.sc
Position2: "'cpsp' Capital Spacing in Latin lookup 0 subtable" dx=0 dy=0 dh=0 dv=0
EndChar

StartChar: Nhook
Encoding: 413 413 311
Width: 1545
GlyphClass: 2
Flags: W
AnchorPoint: "Anchor-1" 931 1490 basechar 0
AnchorPoint: "Anchor-0" 684 0 basechar 0
LayerCount: 2
Fore
SplineSet
-289 -417 m 1,0,-1
 -238 -108 l 1,1,2
 -215 -111 -215 -111 -183 -112 c 128,-1,3
 -151 -113 -151 -113 -113 -113 c 0,4,5
 -63 -113 -63 -113 -38.5 -94 c 128,-1,6
 -14 -75 -14 -75 -7 -32 c 2,7,-1
 18 120 l 1,8,-1
 428 120 l 1,9,-1
 400 -55 l 2,10,11
 368 -242 368 -242 247.5 -335.5 c 128,-1,12
 127 -429 127 -429 -84 -429 c 0,13,14
 -146 -429 -146 -429 -199 -426 c 128,-1,15
 -252 -423 -252 -423 -289 -417 c 1,0,-1
-2 0 m 1,16,-1
 245 1490 l 1,17,-1
 678 1490 l 1,18,-1
 939 906 l 2,19,20
 965 848 965 848 991.5 777.5 c 128,-1,21
 1018 707 1018 707 1043.5 624 c 128,-1,22
 1069 541 1069 541 1090 447 c 1,23,-1
 1038 389 l 1,24,25
 1047 469 1047 469 1058.5 574.5 c 128,-1,26
 1070 680 1070 680 1083.5 780 c 128,-1,27
 1097 880 1097 880 1106 944 c 2,28,-1
 1198 1490 l 1,29,-1
 1614 1490 l 1,30,-1
 1367 0 l 1,31,-1
 935 0 l 1,32,-1
 690 544 l 2,33,34
 659 616 659 616 628.5 694 c 128,-1,35
 598 772 598 772 567.5 864 c 128,-1,36
 537 956 537 956 505 1065 c 1,37,-1
 568 1077 l 1,38,39
 559 971 559 971 547.5 869 c 128,-1,40
 536 767 536 767 524.5 682 c 128,-1,41
 513 597 513 597 504 544 c 2,42,-1
 415 0 l 1,43,-1
 -2 0 l 1,16,-1
EndSplineSet
Position2: "'cpsp' Capital Spacing in Latin lookup 0 subtable" dx=0 dy=0 dh=0 dv=0
EndChar

StartChar: Eng
Encoding: 330 330 312
Width: 1545
GlyphClass: 2
Flags: W
AnchorPoint: "Anchor-1" 931 1490 basechar 0
AnchorPoint: "Anchor-0" 684 0 basechar 0
LayerCount: 2
Fore
SplineSet
669 -417 m 1,0,-1
 720 -108 l 1,1,2
 743 -111 743 -111 775 -112 c 128,-1,3
 807 -113 807 -113 845 -113 c 0,4,5
 895 -113 895 -113 919.5 -94 c 128,-1,6
 944 -75 944 -75 951 -32 c 2,7,-1
 976 120 l 1,8,-1
 1386 120 l 1,9,-1
 1358 -55 l 2,10,11
 1326 -242 1326 -242 1205.5 -335.5 c 128,-1,12
 1085 -429 1085 -429 874 -429 c 0,13,14
 812 -429 812 -429 759 -426 c 128,-1,15
 706 -423 706 -423 669 -417 c 1,0,-1
-2 0 m 1,16,-1
 245 1490 l 1,17,-1
 678 1490 l 1,18,-1
 939 906 l 2,19,20
 965 848 965 848 991.5 777.5 c 128,-1,21
 1018 707 1018 707 1043.5 624 c 128,-1,22
 1069 541 1069 541 1090 447 c 1,23,-1
 1038 389 l 1,24,25
 1047 469 1047 469 1058.5 574.5 c 128,-1,26
 1070 680 1070 680 1083.5 780 c 128,-1,27
 1097 880 1097 880 1106 944 c 2,28,-1
 1198 1490 l 1,29,-1
 1614 1490 l 1,30,-1
 1367 0 l 1,31,-1
 935 0 l 1,32,-1
 690 544 l 2,33,34
 659 616 659 616 628.5 694 c 128,-1,35
 598 772 598 772 567.5 864 c 128,-1,36
 537 956 537 956 505 1065 c 1,37,-1
 568 1077 l 1,38,39
 559 971 559 971 547.5 869 c 128,-1,40
 536 767 536 767 524.5 682 c 128,-1,41
 513 597 513 597 504 544 c 2,42,-1
 415 0 l 1,43,-1
 -2 0 l 1,16,-1
EndSplineSet
Position2: "'cpsp' Capital Spacing in Latin lookup 0 subtable" dx=0 dy=0 dh=0 dv=0
EndChar

StartChar: uni0418
Encoding: 1048 1048 313
Width: 1545
GlyphClass: 2
Flags: W
AnchorPoint: "Anchor-1" 905 1490 basechar 0
AnchorPoint: "Anchor-0" 682 0 basechar 0
LayerCount: 2
Fore
SplineSet
1367 0 m 1,0,-1
 951 0 l 1,1,-1
 1041 544 l 2,2,3
 1050 598 1050 598 1066.5 682.5 c 128,-1,4
 1083 767 1083 767 1105 869 c 128,-1,5
 1127 971 1127 971 1152 1077 c 1,6,-1
 1221 1065 l 1,7,8
 1152 956 1152 956 1091.5 864 c 128,-1,9
 1031 772 1031 772 975 693.5 c 128,-1,10
 919 615 919 615 864 544 c 2,11,-1
 439 0 l 1,12,-1
 -2 0 l 1,13,-1
 245 1490 l 1,14,-1
 662 1490 l 1,15,-1
 571 944 l 2,16,17
 560 879 560 879 540 779 c 128,-1,18
 520 679 520 679 497.5 574.5 c 128,-1,19
 475 470 475 470 456 389 c 1,20,-1
 419 459 l 1,21,22
 472 552 472 552 524.5 632.5 c 128,-1,23
 577 713 577 713 627 781 c 128,-1,24
 677 849 677 849 722 906 c 2,25,-1
 1177 1490 l 1,26,-1
 1614 1490 l 1,27,-1
 1367 0 l 1,0,-1
EndSplineSet
Position2: "'cpsp' Capital Spacing in Latin lookup 0 subtable" dx=0 dy=0 dh=0 dv=0
EndChar

StartChar: O
Encoding: 79 79 322
Width: 1561
GlyphClass: 2
Flags: W
AnchorPoint: "Anchor-4" 1548 893 basechar 0
AnchorPoint: "Anchor-1" 937 1490 basechar 0
AnchorPoint: "Anchor-0" 691 0 basechar 0
LayerCount: 2
Fore
SplineSet
708 -22 m 0,0,1
 524 -22 524 -22 382 50 c 128,-1,2
 240 122 240 122 159.5 260 c 128,-1,3
 79 398 79 398 79 598 c 0,4,5
 79 783 79 783 138 949 c 128,-1,6
 197 1115 197 1115 307.5 1241.5 c 128,-1,7
 418 1368 418 1368 573 1440 c 128,-1,8
 728 1512 728 1512 920 1512 c 0,9,10
 1103 1512 1103 1512 1245 1441 c 128,-1,11
 1387 1370 1387 1370 1467.5 1232 c 128,-1,12
 1548 1094 1548 1094 1548 893 c 0,13,14
 1548 705 1548 705 1488 539.5 c 128,-1,15
 1428 374 1428 374 1317.5 247.5 c 128,-1,16
 1207 121 1207 121 1052.5 49.5 c 128,-1,17
 898 -22 898 -22 708 -22 c 0,0,1
726 334 m 0,18,19
 833 334 833 334 910 385.5 c 128,-1,20
 987 437 987 437 1037 520.5 c 128,-1,21
 1087 604 1087 604 1111 702 c 128,-1,22
 1135 800 1135 800 1135 894 c 0,23,24
 1135 980 1135 980 1109 1038 c 128,-1,25
 1083 1096 1083 1096 1031.5 1126 c 128,-1,26
 980 1156 980 1156 902 1156 c 0,27,28
 797 1156 797 1156 719 1105 c 128,-1,29
 641 1054 641 1054 591 971 c 128,-1,30
 541 888 541 888 517 790 c 128,-1,31
 493 692 493 692 493 598 c 0,32,33
 493 513 493 513 519 454 c 128,-1,34
 545 395 545 395 596.5 364.5 c 128,-1,35
 648 334 648 334 726 334 c 0,18,19
EndSplineSet
Substitution2: "'ss06' Style Set 6 in Latin lookup 52 subtable" O.squared
Substitution2: "'ss05' Style Set 5 in Latin lookup 51 subtable" uni24C4
Substitution2: "Single Substitution lookup 44 subtable" ordmasculine
Substitution2: "'aalt' Access All Alternates in Latin lookup 0 subtable" ordmasculine
Position2: "'cpsp' Capital Spacing in Latin lookup 0 subtable" dx=0 dy=0 dh=0 dv=0
EndChar

StartChar: Ohorn
Encoding: 416 416 326
Width: 1578
GlyphClass: 2
Flags: W
AnchorPoint: "Anchor-4" 1548 893 basechar 0
AnchorPoint: "Anchor-1" 937 1490 basechar 0
AnchorPoint: "Anchor-0" 691 0 basechar 0
LayerCount: 2
Fore
SplineSet
910 1276 m 1,0,-1
 950 1512 l 1,1,2
 985 1512 985 1512 1013.5 1510 c 128,-1,3
 1042 1508 1042 1508 1070.5 1504.5 c 128,-1,4
 1099 1501 1099 1501 1130.5 1498 c 128,-1,5
 1162 1495 1162 1495 1201 1492.5 c 128,-1,6
 1240 1490 1240 1490 1290 1490 c 0,7,8
 1321 1490 1321 1490 1327 1522 c 2,9,-1
 1358 1714 l 1,10,-1
 1706 1714 l 1,11,-1
 1668 1480 l 2,12,13
 1648 1362 1648 1362 1565 1312 c 128,-1,14
 1482 1262 1482 1262 1374 1262 c 0,15,16
 1316 1262 1316 1262 1258 1264.5 c 128,-1,17
 1200 1267 1200 1267 1142 1270 c 128,-1,18
 1084 1273 1084 1273 1026 1274.5 c 128,-1,19
 968 1276 968 1276 910 1276 c 1,0,-1
708 -22 m 0,20,21
 524 -22 524 -22 382 50 c 128,-1,22
 240 122 240 122 159.5 260 c 128,-1,23
 79 398 79 398 79 598 c 0,24,25
 79 783 79 783 138 949 c 128,-1,26
 197 1115 197 1115 307.5 1241.5 c 128,-1,27
 418 1368 418 1368 573 1440 c 128,-1,28
 728 1512 728 1512 920 1512 c 0,29,30
 1103 1512 1103 1512 1245 1441 c 128,-1,31
 1387 1370 1387 1370 1467.5 1232 c 128,-1,32
 1548 1094 1548 1094 1548 893 c 0,33,34
 1548 705 1548 705 1488 539.5 c 128,-1,35
 1428 374 1428 374 1317.5 247.5 c 128,-1,36
 1207 121 1207 121 1052.5 49.5 c 128,-1,37
 898 -22 898 -22 708 -22 c 0,20,21
726 334 m 0,38,39
 833 334 833 334 910 385.5 c 128,-1,40
 987 437 987 437 1037 520.5 c 128,-1,41
 1087 604 1087 604 1111 702 c 128,-1,42
 1135 800 1135 800 1135 894 c 0,43,44
 1135 980 1135 980 1109 1038 c 128,-1,45
 1083 1096 1083 1096 1031.5 1126 c 128,-1,46
 980 1156 980 1156 902 1156 c 0,47,48
 797 1156 797 1156 719 1105 c 128,-1,49
 641 1054 641 1054 591 971 c 128,-1,50
 541 888 541 888 517 790 c 128,-1,51
 493 692 493 692 493 598 c 0,52,53
 493 513 493 513 519 454 c 128,-1,54
 545 395 545 395 596.5 364.5 c 128,-1,55
 648 334 648 334 726 334 c 0,38,39
EndSplineSet
Position2: "'cpsp' Capital Spacing in Latin lookup 0 subtable" dx=0 dy=0 dh=0 dv=0
EndChar

StartChar: uni03F4
Encoding: 1012 1012 368
Width: 1561
GlyphClass: 2
Flags: W
AnchorPoint: "Anchor-4" 1548 893 basechar 0
AnchorPoint: "Anchor-1" 937 1490 basechar 0
AnchorPoint: "Anchor-0" 691 0 basechar 0
LayerCount: 2
Fore
SplineSet
1316 862 m 1,0,-1
 1278 628 l 1,1,-1
 365 628 l 1,2,-1
 403 862 l 1,3,-1
 1316 862 l 1,0,-1
708 -22 m 0,4,5
 524 -22 524 -22 382 50 c 128,-1,6
 240 122 240 122 159.5 260 c 128,-1,7
 79 398 79 398 79 598 c 0,8,9
 79 783 79 783 138 949 c 128,-1,10
 197 1115 197 1115 307.5 1241.5 c 128,-1,11
 418 1368 418 1368 573 1440 c 128,-1,12
 728 1512 728 1512 920 1512 c 0,13,14
 1103 1512 1103 1512 1245 1441 c 128,-1,15
 1387 1370 1387 1370 1467.5 1232 c 128,-1,16
 1548 1094 1548 1094 1548 893 c 0,17,18
 1548 705 1548 705 1488 539.5 c 128,-1,19
 1428 374 1428 374 1317.5 247.5 c 128,-1,20
 1207 121 1207 121 1052.5 49.5 c 128,-1,21
 898 -22 898 -22 708 -22 c 0,4,5
726 334 m 0,22,23
 833 334 833 334 910 385.5 c 128,-1,24
 987 437 987 437 1037 520.5 c 128,-1,25
 1087 604 1087 604 1111 702 c 128,-1,26
 1135 800 1135 800 1135 894 c 0,27,28
 1135 980 1135 980 1109 1038 c 128,-1,29
 1083 1096 1083 1096 1031.5 1126 c 128,-1,30
 980 1156 980 1156 902 1156 c 0,31,32
 797 1156 797 1156 719 1105 c 128,-1,33
 641 1054 641 1054 591 971 c 128,-1,34
 541 888 541 888 517 790 c 128,-1,35
 493 692 493 692 493 598 c 0,36,37
 493 513 493 513 519 454 c 128,-1,38
 545 395 545 395 596.5 364.5 c 128,-1,39
 648 334 648 334 726 334 c 0,22,23
EndSplineSet
Position2: "'cpsp' Capital Spacing in Latin lookup 0 subtable" dx=0 dy=0 dh=0 dv=0
EndChar

StartChar: OE
Encoding: 338 338 375
Width: 2162
GlyphClass: 2
Flags: W
AnchorPoint: "Anchor-4" 1990 0 basechar 0
AnchorPoint: "Anchor-3" 1435 0 basechar 0
AnchorPoint: "Anchor-1" 1683 1490 basechar 0
AnchorPoint: "Anchor-0" 1436 0 basechar 0
LayerCount: 2
Fore
SplineSet
688 0 m 2,0,1
 476 0 476 0 327.5 86.5 c 128,-1,2
 179 173 179 173 114 338.5 c 128,-1,3
 49 504 49 504 88 743 c 0,4,5
 128 984 128 984 249 1150.5 c 128,-1,6
 370 1317 370 1317 548 1403.5 c 128,-1,7
 726 1490 726 1490 937 1490 c 2,8,-1
 1325 1490 l 1,9,-1
 1269 1155 l 1,10,-1
 895 1155 l 2,11,12
 792 1155 792 1155 712.5 1115 c 128,-1,13
 633 1075 633 1075 580.5 984.5 c 128,-1,14
 528 894 528 894 503 743 c 0,15,16
 478 594 478 594 501 504.5 c 128,-1,17
 524 415 524 415 588 375 c 128,-1,18
 652 335 652 335 754 335 c 2,19,-1
 1132 335 l 1,20,-1
 1075 0 l 1,21,-1
 688 0 l 2,0,1
878 0 m 1,22,-1
 1125 1490 l 1,23,-1
 2239 1490 l 1,24,-1
 2183 1152 l 1,25,-1
 1479 1152 l 1,26,-1
 1440 914 l 1,27,-1
 2087 914 l 1,28,-1
 2032 584 l 1,29,-1
 1385 584 l 1,30,-1
 1345 340 l 1,31,-1
 2047 340 l 1,32,-1
 1990 0 l 1,33,-1
 878 0 l 1,22,-1
EndSplineSet
Substitution2: "'c2sc' Capitals to Small Capitals in Latin lookup 67 subtable" oe.sc
Substitution2: "'aalt' Access All Alternates in Latin lookup 0 subtable" oe.sc
Position2: "'cpsp' Capital Spacing in Latin lookup 0 subtable" dx=0 dy=0 dh=0 dv=0
EndChar

StartChar: P
Encoding: 80 80 376
Width: 1334
GlyphClass: 2
Flags: W
AnchorPoint: "Anchor-1" 813 1490 basechar 0
LayerCount: 2
Fore
SplineSet
-2 0 m 1,0,-1
 245 1490 l 1,1,-1
 883 1490 l 2,2,3
 1055 1490 1055 1490 1171.5 1426 c 128,-1,4
 1288 1362 1288 1362 1338.5 1244 c 128,-1,5
 1389 1126 1389 1126 1363 966 c 0,6,7
 1337 807 1337 807 1246.5 690 c 128,-1,8
 1156 573 1156 573 1016 509.5 c 128,-1,9
 876 446 876 446 702 446 c 2,10,-1
 314 446 l 1,11,-1
 368 775 l 1,12,-1
 700 775 l 2,13,14
 768 775 768 775 820 798.5 c 128,-1,15
 872 822 872 822 905.5 865 c 128,-1,16
 939 908 939 908 948 967 c 0,17,18
 959 1027 959 1027 939.5 1069.5 c 128,-1,19
 920 1112 920 1112 876 1135 c 128,-1,20
 832 1158 832 1158 764 1158 c 2,21,-1
 600 1158 l 1,22,-1
 408 0 l 1,23,-1
 -2 0 l 1,0,-1
EndSplineSet
Substitution2: "'ss06' Style Set 6 in Latin lookup 52 subtable" P.squared
Substitution2: "'ss05' Style Set 5 in Latin lookup 51 subtable" uni24C5
Position2: "'cpsp' Capital Spacing in Latin lookup 0 subtable" dx=0 dy=0 dh=0 dv=0
EndChar

StartChar: uni048E
Encoding: 1166 1166 379
Width: 1373
GlyphClass: 2
Flags: W
AnchorPoint: "Anchor-1" 823 1490 basechar 0
LayerCount: 2
Fore
SplineSet
783 992 m 1,0,-1
 1115 352 l 1,1,-1
 973 268 l 1,2,-1
 640 908 l 1,3,-1
 783 992 l 1,0,-1
8 0 m 1,4,-1
 255 1490 l 1,5,-1
 893 1490 l 2,6,7
 1065 1490 1065 1490 1181.5 1426 c 128,-1,8
 1298 1362 1298 1362 1348.5 1244 c 128,-1,9
 1399 1126 1399 1126 1373 966 c 0,10,11
 1347 807 1347 807 1256.5 690 c 128,-1,12
 1166 573 1166 573 1026 509.5 c 128,-1,13
 886 446 886 446 712 446 c 2,14,-1
 324 446 l 1,15,-1
 378 775 l 1,16,-1
 710 775 l 2,17,18
 778 775 778 775 830 798.5 c 128,-1,19
 882 822 882 822 915.5 865 c 128,-1,20
 949 908 949 908 958 967 c 0,21,22
 969 1027 969 1027 949.5 1069.5 c 128,-1,23
 930 1112 930 1112 886 1135 c 128,-1,24
 842 1158 842 1158 774 1158 c 2,25,-1
 610 1158 l 1,26,-1
 418 0 l 1,27,-1
 8 0 l 1,4,-1
EndSplineSet
Position2: "'cpsp' Capital Spacing in Latin lookup 0 subtable" dx=0 dy=0 dh=0 dv=0
EndChar

StartChar: uni01A4
Encoding: 420 420 380
Width: 1814
GlyphClass: 2
Flags: W
AnchorPoint: "Anchor-1" 1293 1490 basechar 0
LayerCount: 2
Fore
SplineSet
113 1021 m 1,0,-1
 128 1117 l 2,1,2
 158 1297 158 1297 276 1393.5 c 128,-1,3
 394 1490 394 1490 604 1490 c 2,4,-1
 727 1490 l 1,5,-1
 672 1158 l 1,6,-1
 615 1158 l 2,7,8
 564 1158 564 1158 533.5 1135.5 c 128,-1,9
 503 1113 503 1113 496 1068 c 2,10,-1
 489 1021 l 1,11,-1
 113 1021 l 1,0,-1
478 0 m 1,12,-1
 725 1490 l 1,13,-1
 1363 1490 l 2,14,15
 1535 1490 1535 1490 1651.5 1426 c 128,-1,16
 1768 1362 1768 1362 1818.5 1244 c 128,-1,17
 1869 1126 1869 1126 1843 966 c 0,18,19
 1817 807 1817 807 1726.5 690 c 128,-1,20
 1636 573 1636 573 1496 509.5 c 128,-1,21
 1356 446 1356 446 1182 446 c 2,22,-1
 794 446 l 1,23,-1
 848 775 l 1,24,-1
 1180 775 l 2,25,26
 1248 775 1248 775 1300 798.5 c 128,-1,27
 1352 822 1352 822 1385.5 865 c 128,-1,28
 1419 908 1419 908 1428 967 c 0,29,30
 1439 1027 1439 1027 1419.5 1069.5 c 128,-1,31
 1400 1112 1400 1112 1356 1135 c 128,-1,32
 1312 1158 1312 1158 1244 1158 c 2,33,-1
 1080 1158 l 1,34,-1
 888 0 l 1,35,-1
 478 0 l 1,12,-1
EndSplineSet
Position2: "'cpsp' Capital Spacing in Latin lookup 0 subtable" dx=0 dy=0 dh=0 dv=0
EndChar

StartChar: Q
Encoding: 81 81 383
Width: 1561
GlyphClass: 2
Flags: W
AnchorPoint: "Anchor-4" 1548 893 basechar 0
AnchorPoint: "Anchor-1" 937 1490 basechar 0
AnchorPoint: "Anchor-0" 691 0 basechar 0
LayerCount: 2
Fore
SplineSet
624 552 m 1,0,-1
 911 552 l 1,1,-1
 1002 410 l 1,2,-1
 1158 192 l 1,3,-1
 1362 -110 l 1,4,-1
 1035 -110 l 1,5,-1
 895 96 l 1,6,-1
 793 268 l 1,7,-1
 624 552 l 1,0,-1
708 -22 m 0,8,9
 524 -22 524 -22 382 50 c 128,-1,10
 240 122 240 122 159.5 260 c 128,-1,11
 79 398 79 398 79 598 c 0,12,13
 79 783 79 783 138 949 c 128,-1,14
 197 1115 197 1115 307.5 1241.5 c 128,-1,15
 418 1368 418 1368 573 1440 c 128,-1,16
 728 1512 728 1512 920 1512 c 0,17,18
 1103 1512 1103 1512 1245 1441 c 128,-1,19
 1387 1370 1387 1370 1467.5 1232 c 128,-1,20
 1548 1094 1548 1094 1548 893 c 0,21,22
 1548 705 1548 705 1488 539.5 c 128,-1,23
 1428 374 1428 374 1317.5 247.5 c 128,-1,24
 1207 121 1207 121 1052.5 49.5 c 128,-1,25
 898 -22 898 -22 708 -22 c 0,8,9
726 334 m 0,26,27
 833 334 833 334 910 385.5 c 128,-1,28
 987 437 987 437 1037 520.5 c 128,-1,29
 1087 604 1087 604 1111 702 c 128,-1,30
 1135 800 1135 800 1135 894 c 0,31,32
 1135 980 1135 980 1109 1038 c 128,-1,33
 1083 1096 1083 1096 1031.5 1126 c 128,-1,34
 980 1156 980 1156 902 1156 c 0,35,36
 797 1156 797 1156 719 1105 c 128,-1,37
 641 1054 641 1054 591 971 c 128,-1,38
 541 888 541 888 517 790 c 128,-1,39
 493 692 493 692 493 598 c 0,40,41
 493 513 493 513 519 454 c 128,-1,42
 545 395 545 395 596.5 364.5 c 128,-1,43
 648 334 648 334 726 334 c 0,26,27
EndSplineSet
Substitution2: "'ss06' Style Set 6 in Latin lookup 52 subtable" Q.squared
Substitution2: "'ss05' Style Set 5 in Latin lookup 51 subtable" uni24C6
Position2: "'cpsp' Capital Spacing in Latin lookup 0 subtable" dx=0 dy=0 dh=0 dv=0
EndChar

StartChar: Q_rthook
Encoding: 586 586 384
Width: 1575
GlyphClass: 2
Flags: W
LayerCount: 2
Fore
SplineSet
1643 1490 m 1,0,-1
 1396 0 l 1,1,-1
 995 0 l 1,2,-1
 1029 207 l 1,3,-1
 1023 207 l 1,4,5
 947 106 947 106 836 43 c 128,-1,6
 725 -20 725 -20 583 -20 c 0,7,8
 447 -20 447 -20 343 37.5 c 128,-1,9
 239 95 239 95 173 199 c 128,-1,10
 107 303 107 303 84.5 442 c 128,-1,11
 62 581 62 581 89 744 c 0,12,13
 117 908 117 908 186.5 1047.5 c 128,-1,14
 256 1187 256 1187 357 1291 c 128,-1,15
 458 1395 458 1395 580.5 1452.5 c 128,-1,16
 703 1510 703 1510 836 1510 c 0,17,18
 978 1510 978 1510 1067.5 1447 c 128,-1,19
 1157 1384 1157 1384 1202 1285 c 1,20,-1
 1207 1285 l 1,21,-1
 1242 1490 l 1,22,-1
 1643 1490 l 1,0,-1
741 332 m 0,23,24
 841 332 841 332 917 380.5 c 128,-1,25
 993 429 993 429 1044 521 c 128,-1,26
 1095 613 1095 613 1117 745 c 256,27,28
 1139 877 1139 877 1119 970 c 128,-1,29
 1099 1063 1099 1063 1038 1110.5 c 128,-1,30
 977 1158 977 1158 878 1158 c 0,31,32
 780 1158 780 1158 704 1110.5 c 128,-1,33
 628 1063 628 1063 577.5 971 c 128,-1,34
 527 879 527 879 505 745 c 0,35,36
 483 612 483 612 502.5 519.5 c 128,-1,37
 522 427 522 427 582.5 379.5 c 128,-1,38
 643 332 643 332 741 332 c 0,23,24
1337 -429 m 0,39,40
 1126 -429 1126 -429 1040.5 -335.5 c 128,-1,41
 955 -242 955 -242 986 -55 c 2,42,-1
 995 0 l 1,43,-1
 1396 0 l 1,44,-1
 1389 -44 l 2,45,46
 1382 -88 1382 -88 1400.5 -108 c 128,-1,47
 1419 -128 1419 -128 1469 -128 c 0,48,49
 1506 -128 1506 -128 1538 -127 c 128,-1,50
 1570 -126 1570 -126 1595 -124 c 1,51,-1
 1546 -417 l 1,52,53
 1507 -423 1507 -423 1452.5 -426 c 128,-1,54
 1398 -429 1398 -429 1337 -429 c 0,39,40
EndSplineSet
Position2: "'cpsp' Capital Spacing in Latin lookup 0 subtable" dx=0 dy=0 dh=0 dv=0
EndChar

StartChar: R
Encoding: 82 82 385
Width: 1366
GlyphClass: 2
Flags: W
AnchorPoint: "Anchor-1" 831 1490 basechar 0
AnchorPoint: "Anchor-0" 603 0 basechar 0
LayerCount: 2
Fore
SplineSet
-2 0 m 1,0,-1
 245 1490 l 1,1,-1
 883 1490 l 2,2,3
 1055 1490 1055 1490 1171.5 1428 c 128,-1,4
 1288 1366 1288 1366 1339.5 1251.5 c 128,-1,5
 1391 1137 1391 1137 1364 977 c 0,6,7
 1339 820 1339 820 1248 708.5 c 128,-1,8
 1157 597 1157 597 1015.5 538.5 c 128,-1,9
 874 480 874 480 697 480 c 2,10,-1
 328 480 l 1,11,-1
 380 797 l 1,12,-1
 704 797 l 2,13,14
 772 797 772 797 823.5 817.5 c 128,-1,15
 875 838 875 838 908 878 c 128,-1,16
 941 918 941 918 951 977 c 0,17,18
 966 1066 966 1066 915.5 1113 c 128,-1,19
 865 1160 865 1160 764 1160 c 2,20,-1
 601 1160 l 1,21,-1
 408 0 l 1,22,-1
 -2 0 l 1,0,-1
818 0 m 1,23,-1
 586 681 l 1,24,-1
 1009 681 l 1,25,-1
 1250 0 l 1,26,-1
 818 0 l 1,23,-1
EndSplineSet
Substitution2: "'c2sc' Capitals to Small Capitals in Latin lookup 67 subtable" r.sc
Substitution2: "'ss06' Style Set 6 in Latin lookup 52 subtable" R.squared
Substitution2: "'ss05' Style Set 5 in Latin lookup 51 subtable" uni24C7
Substitution2: "'aalt' Access All Alternates in Latin lookup 0 subtable" r.sc
Position2: "'cpsp' Capital Spacing in Latin lookup 0 subtable" dx=0 dy=0 dh=0 dv=0
EndChar

StartChar: uni211F
Encoding: 8479 8479 395
Width: 1372
GlyphClass: 2
Flags: W
AnchorPoint: "Anchor-1" 839 1490 basechar 0
AnchorPoint: "Anchor-0" 611 0 basechar 0
LayerCount: 2
Fore
SplineSet
1118 1708 m 1,0,-1
 412 -376 l 1,1,-1
 295 -364 l 1,2,-1
 976 1626 l 1,3,-1
 663 1690 l 1,4,-1
 709 1798 l 1,5,-1
 1118 1708 l 1,0,-1
6 0 m 1,6,-1
 253 1490 l 1,7,-1
 891 1490 l 2,8,9
 1063 1490 1063 1490 1179.5 1428 c 128,-1,10
 1296 1366 1296 1366 1347.5 1251.5 c 128,-1,11
 1399 1137 1399 1137 1372 977 c 0,12,13
 1347 820 1347 820 1256 708.5 c 128,-1,14
 1165 597 1165 597 1023.5 538.5 c 128,-1,15
 882 480 882 480 705 480 c 2,16,-1
 336 480 l 1,17,-1
 388 797 l 1,18,-1
 712 797 l 2,19,20
 780 797 780 797 831.5 817.5 c 128,-1,21
 883 838 883 838 916 878 c 128,-1,22
 949 918 949 918 959 977 c 0,23,24
 974 1066 974 1066 923.5 1113 c 128,-1,25
 873 1160 873 1160 772 1160 c 2,26,-1
 609 1160 l 1,27,-1
 416 0 l 1,28,-1
 6 0 l 1,6,-1
826 0 m 1,29,-1
 594 681 l 1,30,-1
 1017 681 l 1,31,-1
 1258 0 l 1,32,-1
 826 0 l 1,29,-1
EndSplineSet
EndChar

StartChar: Rx
Encoding: 8478 8478 396
Width: 1667
Flags: W
LayerCount: 2
Fore
SplineSet
245 1490 m 1,0,-1
 871 1490 l 2,1,2
 1054 1490 1054 1490 1173.5 1437.5 c 128,-1,3
 1293 1385 1293 1385 1342.5 1281 c 128,-1,4
 1392 1177 1392 1177 1365 1022 c 0,5,6
 1345 901 1345 901 1286.5 812.5 c 128,-1,7
 1228 724 1228 724 1147 665.5 c 128,-1,8
 1066 607 1066 607 975 571 c 2,9,-1
 893 536 l 1,10,-1
 332 536 l 1,11,-1
 382 857 l 1,12,-1
 771 857 l 2,13,14
 813 856 813 856 853 870.5 c 128,-1,15
 893 885 893 885 923 919 c 128,-1,16
 953 953 953 953 963 1010 c 0,17,18
 971 1057 971 1057 960.5 1087 c 128,-1,19
 950 1117 950 1117 928 1133.5 c 128,-1,20
 906 1150 906 1150 876.5 1157 c 128,-1,21
 847 1164 847 1164 816 1164 c 2,22,-1
 595 1165 l 1,23,-1
 403 0 l 1,24,-1
 -2 0 l 1,25,-1
 245 1490 l 1,0,-1
1162 0 m 1,26,-1
 782 687 l 1,27,-1
 1090 687 l 1,28,-1
 1476 0 l 1,29,-1
 1162 0 l 1,26,-1
924 0 m 1,30,-1
 694 0 l 1,31,-1
 1308 687 l 1,32,-1
 1528 687 l 1,33,-1
 924 0 l 1,30,-1
EndSplineSet
EndChar

StartChar: uni024C
Encoding: 588 588 397
Width: 1405
GlyphClass: 2
Flags: W
AnchorPoint: "Anchor-1" 873 1490 basechar 0
AnchorPoint: "Anchor-0" 645 0 basechar 0
LayerCount: 2
Fore
SplineSet
373 526 m 1,0,-1
 3 526 l 1,1,-1
 50 812 l 1,2,-1
 419 812 l 1,3,-1
 373 526 l 1,0,-1
40 0 m 1,4,-1
 287 1490 l 1,5,-1
 925 1490 l 2,6,7
 1097 1490 1097 1490 1213.5 1428 c 128,-1,8
 1330 1366 1330 1366 1381.5 1251.5 c 128,-1,9
 1433 1137 1433 1137 1406 977 c 0,10,11
 1381 820 1381 820 1290 708.5 c 128,-1,12
 1199 597 1199 597 1057.5 538.5 c 128,-1,13
 916 480 916 480 739 480 c 2,14,-1
 370 480 l 1,15,-1
 422 797 l 1,16,-1
 746 797 l 2,17,18
 814 797 814 797 865.5 817.5 c 128,-1,19
 917 838 917 838 950 878 c 128,-1,20
 983 918 983 918 993 977 c 0,21,22
 1008 1066 1008 1066 957.5 1113 c 128,-1,23
 907 1160 907 1160 806 1160 c 2,24,-1
 643 1160 l 1,25,-1
 450 0 l 1,26,-1
 40 0 l 1,4,-1
860 0 m 1,27,-1
 628 681 l 1,28,-1
 1051 681 l 1,29,-1
 1292 0 l 1,30,-1
 860 0 l 1,27,-1
EndSplineSet
Position2: "'cpsp' Capital Spacing in Latin lookup 0 subtable" dx=0 dy=0 dh=0 dv=0
EndChar

StartChar: S
Encoding: 83 83 398
Width: 1384
GlyphClass: 2
Flags: W
AnchorPoint: "Anchor-3" 604 0 basechar 0
AnchorPoint: "Anchor-1" 850 1490 basechar 0
AnchorPoint: "Anchor-0" 608 0 basechar 0
LayerCount: 2
Fore
SplineSet
632 -21 m 0,0,1
 429 -21 429 -21 290 39 c 128,-1,2
 151 99 151 99 89.5 217 c 128,-1,3
 28 335 28 335 56 510 c 1,4,-1
 445 510 l 1,5,6
 437 446 437 446 460.5 401 c 128,-1,7
 484 356 484 356 535.5 332.5 c 128,-1,8
 587 309 587 309 664 309 c 0,9,10
 730 309 730 309 779 325.5 c 128,-1,11
 828 342 828 342 858 371 c 128,-1,12
 888 400 888 400 894 438 c 0,13,14
 900 473 900 473 881.5 499.5 c 128,-1,15
 863 526 863 526 816.5 547 c 128,-1,16
 770 568 770 568 690 584 c 2,17,-1
 545 614 l 2,18,19
 346 656 346 656 247.5 765.5 c 128,-1,20
 149 875 149 875 179 1050 c 0,21,22
 201 1189 201 1189 290.5 1293 c 128,-1,23
 380 1397 380 1397 521 1454.5 c 128,-1,24
 662 1512 662 1512 838 1512 c 0,25,26
 1022 1512 1022 1512 1150.5 1452.5 c 128,-1,27
 1279 1393 1279 1393 1339 1283 c 128,-1,28
 1399 1173 1399 1173 1376 1021 c 1,29,-1
 992 1021 l 1,30,31
 997 1098 997 1098 951.5 1140.5 c 128,-1,32
 906 1183 906 1183 809 1183 c 0,33,34
 749 1183 749 1183 704 1167.5 c 128,-1,35
 659 1152 659 1152 632.5 1124.5 c 128,-1,36
 606 1097 606 1097 600 1061 c 0,37,38
 594 1026 594 1026 610.5 1000 c 128,-1,39
 627 974 627 974 669 955 c 128,-1,40
 711 936 711 936 783 921 c 2,41,-1
 899 897 l 2,42,43
 1021 872 1021 872 1105.5 831 c 128,-1,44
 1190 790 1190 790 1239 733 c 128,-1,45
 1288 676 1288 676 1304 603 c 128,-1,46
 1320 530 1320 530 1305 441 c 0,47,48
 1282 292 1282 292 1195.5 189 c 128,-1,49
 1109 86 1109 86 967 32.5 c 128,-1,50
 825 -21 825 -21 632 -21 c 0,0,1
EndSplineSet
Substitution2: "'ss06' Style Set 6 in Latin lookup 52 subtable" S.squared
Substitution2: "'ss05' Style Set 5 in Latin lookup 51 subtable" uni24C8
Position2: "'cpsp' Capital Spacing in Latin lookup 0 subtable" dx=0 dy=0 dh=0 dv=0
EndChar

StartChar: uni01A7
Encoding: 423 423 410
Width: 1384
GlyphClass: 2
Flags: W
AnchorPoint: "Anchor-3" 600 0 basechar 0
AnchorPoint: "Anchor-1" 849 1490 basechar 0
AnchorPoint: "Anchor-0" 597 0 basechar 0
LayerCount: 2
Fore
SplineSet
608 -21 m 0,0,1
 413 -21 413 -21 278.5 34.5 c 128,-1,2
 144 90 144 90 82.5 196 c 128,-1,3
 21 302 21 302 47 453 c 0,4,5
 61 540 61 540 100 611 c 128,-1,6
 139 682 139 682 206 737.5 c 128,-1,7
 273 793 273 793 370 833 c 128,-1,8
 467 873 467 873 596 898 c 2,9,-1
 721 922 l 2,10,11
 798 937 798 937 847.5 955.5 c 128,-1,12
 897 974 897 974 923.5 1000 c 128,-1,13
 950 1026 950 1026 956 1061 c 0,14,15
 962 1097 962 1097 946 1124.5 c 128,-1,16
 930 1152 930 1152 892.5 1167.5 c 128,-1,17
 855 1183 855 1183 794 1183 c 0,18,19
 731 1183 731 1183 680.5 1163 c 128,-1,20
 630 1143 630 1143 597.5 1107.5 c 128,-1,21
 565 1072 565 1072 551 1021 c 1,22,-1
 166 1021 l 1,23,24
 195 1172 195 1172 280.5 1282.5 c 128,-1,25
 366 1393 366 1393 504 1452.5 c 128,-1,26
 642 1512 642 1512 825 1512 c 0,27,28
 1004 1512 1004 1512 1135.5 1452.5 c 128,-1,29
 1267 1393 1267 1393 1331.5 1286.5 c 128,-1,30
 1396 1180 1396 1180 1372 1037 c 0,31,32
 1343 867 1343 867 1212 761 c 128,-1,33
 1081 655 1081 655 868 613 c 2,34,-1
 713 583 l 2,35,36
 628 566 628 566 572.5 546 c 128,-1,37
 517 526 517 526 489.5 499.5 c 128,-1,38
 462 473 462 473 456 438 c 0,39,40
 446 382 446 382 491.5 345.5 c 128,-1,41
 537 309 537 309 635 309 c 0,42,43
 712 309 712 309 773 332.5 c 128,-1,44
 834 356 834 356 874.5 401 c 128,-1,45
 915 446 915 446 929 510 c 1,46,-1
 1317 510 l 1,47,48
 1288 334 1288 334 1196 215.5 c 128,-1,49
 1104 97 1104 97 956 38 c 128,-1,50
 808 -21 808 -21 608 -21 c 0,0,1
EndSplineSet
Position2: "'cpsp' Capital Spacing in Latin lookup 0 subtable" dx=0 dy=0 dh=0 dv=0
EndChar

StartChar: uni1E9E
Encoding: 7838 7838 411
Width: 1512
Flags: W
LayerCount: 2
Fore
SplineSet
-2 0 m 1,0,-1
 161 975 l 2,1,2
 188 1140 188 1140 280.5 1260 c 128,-1,3
 373 1380 373 1380 516.5 1445.5 c 128,-1,4
 660 1511 660 1511 843 1511 c 0,5,6
 960 1511 960 1511 1082.5 1476.5 c 128,-1,7
 1205 1442 1205 1442 1317.5 1379.5 c 128,-1,8
 1430 1317 1430 1317 1520 1230 c 1,9,-1
 1129 873 l 1,10,11
 1236 852 1236 852 1310.5 789.5 c 128,-1,12
 1385 727 1385 727 1418 636.5 c 128,-1,13
 1451 546 1451 546 1434 441 c 0,14,15
 1411 306 1411 306 1324 202 c 128,-1,16
 1237 98 1237 98 1103 39 c 128,-1,17
 969 -20 969 -20 807 -20 c 0,18,19
 716 -20 716 -20 618.5 -1 c 128,-1,20
 521 18 521 18 457 47 c 1,21,-1
 610 332 l 1,22,23
 660 311 660 311 716.5 298.5 c 128,-1,24
 773 286 773 286 820 287 c 0,25,26
 917 286 917 286 980 326.5 c 128,-1,27
 1043 367 1043 367 1055 441 c 0,28,29
 1062 480 1062 480 1056 514 c 128,-1,30
 1050 548 1050 548 1032 573.5 c 128,-1,31
 1014 599 1014 599 985 617.5 c 128,-1,32
 956 636 956 636 916.5 645 c 128,-1,33
 877 654 877 654 829 654 c 2,34,-1
 697 654 l 1,35,-1
 732 865 l 1,36,-1
 1027 1125 l 1,37,38
 994 1159 994 1159 929.5 1179 c 128,-1,39
 865 1199 865 1199 792 1200 c 0,40,41
 727 1200 727 1200 680.5 1174.5 c 128,-1,42
 634 1149 634 1149 605.5 1097.5 c 128,-1,43
 577 1046 577 1046 564 967 c 2,44,-1
 403 0 l 1,45,-1
 -2 0 l 1,0,-1
EndSplineSet
Position2: "'cpsp' Capital Spacing in Latin lookup 0 subtable" dx=0 dy=0 dh=0 dv=0
EndChar

StartChar: T
Encoding: 84 84 412
Width: 1376
GlyphClass: 2
Flags: W
AnchorPoint: "Anchor-3" 591 0 basechar 0
AnchorPoint: "Anchor-1" 845 1490 basechar 0
AnchorPoint: "Anchor-0" 597 0 basechar 0
LayerCount: 2
Fore
SplineSet
149 1152 m 1,0,-1
 205 1490 l 1,1,-1
 1484 1490 l 1,2,-1
 1428 1152 l 1,3,-1
 993 1152 l 1,4,-1
 803 0 l 1,5,-1
 393 0 l 1,6,-1
 583 1152 l 1,7,-1
 149 1152 l 1,0,-1
EndSplineSet
Substitution2: "'c2sc' Capitals to Small Capitals in Latin lookup 67 subtable" t.sc
Substitution2: "'ss06' Style Set 6 in Latin lookup 52 subtable" T.squared
Substitution2: "'ss05' Style Set 5 in Latin lookup 51 subtable" uni24C9
Substitution2: "'aalt' Access All Alternates in Latin lookup 0 subtable" t.sc
Position2: "'cpsp' Capital Spacing in Latin lookup 0 subtable" dx=0 dy=0 dh=0 dv=0
EndChar

StartChar: uni01AC
Encoding: 428 428 420
Width: 1589
GlyphClass: 2
Flags: W
LayerCount: 2
Fore
SplineSet
211 1021 m 1,0,-1
 226 1117 l 2,1,2
 256 1297 256 1297 374 1393.5 c 128,-1,3
 492 1490 492 1490 701 1490 c 2,4,-1
 825 1490 l 1,5,-1
 769 1158 l 1,6,-1
 712 1158 l 2,7,8
 662 1158 662 1158 631.5 1135.5 c 128,-1,9
 601 1113 601 1113 594 1068 c 2,10,-1
 587 1021 l 1,11,-1
 211 1021 l 1,0,-1
769 1152 m 1,12,-1
 825 1490 l 1,13,-1
 1697 1490 l 1,14,-1
 1641 1152 l 1,15,-1
 1194 1152 l 1,16,-1
 1004 0 l 1,17,-1
 594 0 l 1,18,-1
 784 1152 l 1,19,-1
 769 1152 l 1,12,-1
EndSplineSet
Position2: "'cpsp' Capital Spacing in Latin lookup 0 subtable" dx=0 dy=0 dh=0 dv=0
EndChar

StartChar: uni01AC.base
Encoding: 60940 60940 421
Width: 1400
GlyphClass: 2
Flags: W
LayerCount: 2
Fore
SplineSet
580 1152 m 1,0,-1
 636 1490 l 1,1,-1
 1508 1490 l 1,2,-1
 1452 1152 l 1,3,-1
 1005 1152 l 1,4,-1
 815 0 l 1,5,-1
 405 0 l 1,6,-1
 595 1152 l 1,7,-1
 580 1152 l 1,0,-1
EndSplineSet
EndChar

StartChar: Trthook
Encoding: 430 430 422
Width: 1376
GlyphClass: 2
Flags: W
AnchorPoint: "Anchor-3" 591 0 basechar 0
AnchorPoint: "Anchor-1" 845 1490 basechar 0
AnchorPoint: "Anchor-0" 597 0 basechar 0
LayerCount: 2
Fore
SplineSet
804 0 m 1,0,-1
 798 -34 l 2,1,2
 790 -85 790 -85 834.5 -102 c 128,-1,3
 879 -119 879 -119 932 -120 c 2,4,-1
 1000 -120 l 1,5,-1
 950 -418 l 1,6,-1
 775 -418 l 2,7,8
 695 -418 695 -418 619 -406 c 128,-1,9
 543 -394 543 -394 485.5 -356 c 128,-1,10
 428 -318 428 -318 403 -240.5 c 128,-1,11
 378 -163 378 -163 400 -32 c 2,12,-1
 406 0 l 1,13,-1
 804 0 l 1,0,-1
149 1152 m 1,14,-1
 205 1490 l 1,15,-1
 1484 1490 l 1,16,-1
 1428 1152 l 1,17,-1
 993 1152 l 1,18,-1
 803 0 l 1,19,-1
 393 0 l 1,20,-1
 583 1152 l 1,21,-1
 149 1152 l 1,14,-1
EndSplineSet
Position2: "'cpsp' Capital Spacing in Latin lookup 0 subtable" dx=0 dy=0 dh=0 dv=0
EndChar

StartChar: uni023E
Encoding: 574 574 423
Width: 1376
GlyphClass: 2
Flags: W
AnchorPoint: "Anchor-3" 591 0 basechar 0
AnchorPoint: "Anchor-1" 845 1490 basechar 0
AnchorPoint: "Anchor-0" 597 0 basechar 0
LayerCount: 2
Fore
SplineSet
217 -190 m 1,0,-1
 1090 1678 l 1,1,-1
 1298 1678 l 1,2,-1
 423 -190 l 1,3,-1
 217 -190 l 1,0,-1
149 1152 m 1,4,-1
 205 1490 l 1,5,-1
 1484 1490 l 1,6,-1
 1428 1152 l 1,7,-1
 993 1152 l 1,8,-1
 803 0 l 1,9,-1
 393 0 l 1,10,-1
 583 1152 l 1,11,-1
 149 1152 l 1,4,-1
EndSplineSet
Position2: "'cpsp' Capital Spacing in Latin lookup 0 subtable" dx=0 dy=0 dh=0 dv=0
EndChar

StartChar: U
Encoding: 85 85 425
Width: 1462
GlyphClass: 2
Flags: W
AnchorPoint: "Anchor-4" 1370 521 basechar 0
AnchorPoint: "Anchor-1" 887 1490 basechar 0
AnchorPoint: "Anchor-0" 640 0 basechar 0
LayerCount: 2
Fore
SplineSet
657 -21 m 0,0,1
 459 -21 459 -21 321 50 c 128,-1,2
 183 121 183 121 122 249 c 128,-1,3
 61 377 61 377 89 546 c 2,4,-1
 245 1490 l 1,5,-1
 649 1490 l 1,6,-1
 495 554 l 2,7,8
 484 485 484 485 502.5 435 c 128,-1,9
 521 385 521 385 566 357 c 128,-1,10
 611 329 611 329 674 329 c 0,11,12
 749 329 749 329 813.5 363 c 128,-1,13
 878 397 878 397 921 454 c 128,-1,14
 964 511 964 511 975 581 c 2,15,-1
 1126 1490 l 1,16,-1
 1530 1490 l 1,17,-1
 1370 521 l 2,18,19
 1342 351 1342 351 1244.5 229.5 c 128,-1,20
 1147 108 1147 108 996.5 43.5 c 128,-1,21
 846 -21 846 -21 657 -21 c 0,0,1
EndSplineSet
Substitution2: "'ss06' Style Set 6 in Latin lookup 52 subtable" U.squared
Substitution2: "'ss05' Style Set 5 in Latin lookup 51 subtable" uni24CA
Position2: "'cpsp' Capital Spacing in Latin lookup 0 subtable" dx=0 dy=0 dh=0 dv=0
EndChar

StartChar: Uhorn
Encoding: 431 431 426
Width: 1461
GlyphClass: 2
Flags: W
AnchorPoint: "Anchor-4" 1370 521 basechar 0
AnchorPoint: "Anchor-1" 887 1490 basechar 0
AnchorPoint: "Anchor-0" 640 0 basechar 0
LayerCount: 2
Fore
SplineSet
1087 1254 m 1,0,-1
 1126 1490 l 1,1,-1
 1311 1490 l 2,2,3
 1342 1490 1342 1490 1348 1522 c 2,4,-1
 1379 1714 l 1,5,-1
 1727 1714 l 1,6,-1
 1688 1480 l 2,7,8
 1669 1362 1669 1362 1585 1308 c 128,-1,9
 1501 1254 1501 1254 1393 1254 c 2,10,-1
 1087 1254 l 1,0,-1
657 -21 m 0,11,12
 459 -21 459 -21 321 50 c 128,-1,13
 183 121 183 121 122 249 c 128,-1,14
 61 377 61 377 89 546 c 2,15,-1
 245 1490 l 1,16,-1
 649 1490 l 1,17,-1
 495 554 l 2,18,19
 484 485 484 485 502.5 435 c 128,-1,20
 521 385 521 385 566 357 c 128,-1,21
 611 329 611 329 674 329 c 0,22,23
 749 329 749 329 813.5 363 c 128,-1,24
 878 397 878 397 921 454 c 128,-1,25
 964 511 964 511 975 581 c 2,26,-1
 1126 1490 l 1,27,-1
 1530 1490 l 1,28,-1
 1370 521 l 2,29,30
 1342 351 1342 351 1244.5 229.5 c 128,-1,31
 1147 108 1147 108 996.5 43.5 c 128,-1,32
 846 -21 846 -21 657 -21 c 0,11,12
EndSplineSet
Position2: "'cpsp' Capital Spacing in Latin lookup 0 subtable" dx=0 dy=0 dh=0 dv=0
EndChar

StartChar: uni0244
Encoding: 580 580 456
Width: 1566
GlyphClass: 2
Flags: W
AnchorPoint: "Anchor-4" 1432 521 basechar 0
AnchorPoint: "Anchor-1" 949 1490 basechar 0
AnchorPoint: "Anchor-0" 702 0 basechar 0
LayerCount: 2
Fore
SplineSet
1635 834 m 1,0,-1
 1597 614 l 1,1,-1
 -8 614 l 1,2,-1
 29 834 l 1,3,-1
 1635 834 l 1,0,-1
719 -21 m 0,4,5
 521 -21 521 -21 383 50 c 128,-1,6
 245 121 245 121 184 249 c 128,-1,7
 123 377 123 377 151 546 c 2,8,-1
 307 1490 l 1,9,-1
 711 1490 l 1,10,-1
 557 554 l 2,11,12
 546 485 546 485 564.5 435 c 128,-1,13
 583 385 583 385 628 357 c 128,-1,14
 673 329 673 329 736 329 c 0,15,16
 811 329 811 329 875.5 363 c 128,-1,17
 940 397 940 397 983 454 c 128,-1,18
 1026 511 1026 511 1037 581 c 2,19,-1
 1188 1490 l 1,20,-1
 1592 1490 l 1,21,-1
 1432 521 l 2,22,23
 1404 351 1404 351 1306.5 229.5 c 128,-1,24
 1209 108 1209 108 1058.5 43.5 c 128,-1,25
 908 -21 908 -21 719 -21 c 0,4,5
EndSplineSet
Position2: "'cpsp' Capital Spacing in Latin lookup 0 subtable" dx=0 dy=0 dh=0 dv=0
EndChar

StartChar: V
Encoding: 86 86 457
Width: 1583
GlyphClass: 2
Flags: W
AnchorPoint: "Anchor-1" 948 1490 basechar 0
AnchorPoint: "Anchor-0" 701 0 basechar 0
LayerCount: 2
Fore
SplineSet
433 0 m 1,0,-1
 180 1490 l 1,1,-1
 632 1490 l 1,2,-1
 709 912 l 2,3,4
 735 725 735 725 752.5 533.5 c 128,-1,5
 770 342 770 342 784 147 c 1,6,-1
 678 147 l 1,7,8
 756 341 756 341 834 533 c 128,-1,9
 912 725 912 725 997 912 c 2,10,-1
 1258 1490 l 1,11,-1
 1716 1490 l 1,12,-1
 985 0 l 1,13,-1
 433 0 l 1,0,-1
EndSplineSet
Substitution2: "'ss06' Style Set 6 in Latin lookup 52 subtable" V.squared
Substitution2: "'ss05' Style Set 5 in Latin lookup 51 subtable" uni24CB
Position2: "'cpsp' Capital Spacing in Latin lookup 0 subtable" dx=0 dy=0 dh=0 dv=0
EndChar

StartChar: W
Encoding: 87 87 460
Width: 2170
GlyphClass: 2
Flags: W
AnchorPoint: "Anchor-1" 1242 1490 basechar 0
AnchorPoint: "Anchor-0" 995 0 basechar 0
LayerCount: 2
Fore
SplineSet
328 0 m 1,0,-1
 180 1490 l 1,1,-1
 632 1490 l 1,2,-1
 655 912 l 2,3,4
 660 804 660 804 659.5 684 c 128,-1,5
 659 564 659 564 657 445.5 c 128,-1,6
 655 327 655 327 656 217 c 1,7,-1
 567 217 l 1,8,9
 607 327 607 327 647 445.5 c 128,-1,10
 687 564 687 564 728 684 c 128,-1,11
 769 804 769 804 812 912 c 2,12,-1
 1040 1490 l 1,13,-1
 1444 1490 l 1,14,-1
 1480 912 l 2,15,16
 1487 804 1487 804 1489 684 c 128,-1,17
 1491 564 1491 564 1491 445.5 c 128,-1,18
 1491 327 1491 327 1494 217 c 1,19,-1
 1404 217 l 1,20,21
 1442 327 1442 327 1479 445.5 c 128,-1,22
 1516 564 1516 564 1555.5 684 c 128,-1,23
 1595 804 1595 804 1636 912 c 2,24,-1
 1852 1490 l 1,25,-1
 2304 1490 l 1,26,-1
 1662 0 l 1,27,-1
 1205 0 l 1,28,-1
 1154 648 l 2,29,30
 1144 767 1144 767 1146.5 915.5 c 128,-1,31
 1149 1064 1149 1064 1142 1233 c 1,32,-1
 1256 1233 l 1,33,34
 1189 1064 1189 1064 1144.5 916 c 128,-1,35
 1100 768 1100 768 1051 648 c 2,36,-1
 785 0 l 1,37,-1
 328 0 l 1,0,-1
EndSplineSet
Substitution2: "'ss06' Style Set 6 in Latin lookup 52 subtable" W.squared
Substitution2: "'ss05' Style Set 5 in Latin lookup 51 subtable" uni24CC
Position2: "'cpsp' Capital Spacing in Latin lookup 0 subtable" dx=0 dy=0 dh=0 dv=0
EndChar

StartChar: X
Encoding: 88 88 467
Width: 1565
GlyphClass: 2
Flags: W
AnchorPoint: "Anchor-1" 939 1490 basechar 0
AnchorPoint: "Anchor-0" 691 -3 basechar 0
LayerCount: 2
Fore
SplineSet
-67 0 m 1,0,-1
 726 911 l 1,1,-1
 675 602 l 1,2,-1
 241 1490 l 1,3,-1
 696 1490 l 1,4,-1
 783 1296 l 2,5,6
 810 1236 810 1236 829.5 1178.5 c 128,-1,7
 849 1121 849 1121 866 1067.5 c 128,-1,8
 883 1014 883 1014 903 963 c 1,9,-1
 781 963 l 1,10,11
 820 1013 820 1013 855.5 1067 c 128,-1,12
 891 1121 891 1121 930 1178.5 c 128,-1,13
 969 1236 969 1236 1017 1296 c 2,14,-1
 1170 1490 l 1,15,-1
 1640 1490 l 1,16,-1
 933 627 l 1,17,-1
 981 915 l 1,18,-1
 1452 0 l 1,19,-1
 977 0 l 1,20,-1
 858 256 l 2,21,22
 834 307 834 307 817.5 348 c 128,-1,23
 801 389 801 389 787 425.5 c 128,-1,24
 773 462 773 462 756 499 c 1,25,-1
 810 499 l 1,26,27
 780 461 780 461 754.5 425 c 128,-1,28
 729 389 729 389 698.5 348 c 128,-1,29
 668 307 668 307 625 256 c 2,30,-1
 413 0 l 1,31,-1
 -67 0 l 1,0,-1
EndSplineSet
Substitution2: "'ss06' Style Set 6 in Latin lookup 52 subtable" X.squared
Substitution2: "'ss05' Style Set 5 in Latin lookup 51 subtable" uni24CD
Position2: "'cpsp' Capital Spacing in Latin lookup 0 subtable" dx=0 dy=0 dh=0 dv=0
EndChar

StartChar: Y
Encoding: 89 89 473
Width: 1542
GlyphClass: 2
Flags: W
AnchorPoint: "Anchor-4" 890 0 basechar 0
AnchorPoint: "Anchor-1" 928 1490 basechar 0
AnchorPoint: "Anchor-0" 686 0 basechar 0
LayerCount: 2
Fore
SplineSet
488 0 m 1,0,-1
 573 513 l 1,1,-1
 180 1490 l 1,2,-1
 639 1490 l 1,3,-1
 781 1057 l 2,4,5
 801 1000 801 1000 814.5 942 c 128,-1,6
 828 884 828 884 841 817 c 1,7,-1
 782 817 l 1,8,9
 815 884 815 884 846.5 942 c 128,-1,10
 878 1000 878 1000 913 1057 c 2,11,-1
 1187 1490 l 1,12,-1
 1676 1490 l 1,13,-1
 975 513 l 1,14,-1
 890 0 l 1,15,-1
 488 0 l 1,0,-1
EndSplineSet
Substitution2: "'c2sc' Capitals to Small Capitals in Latin lookup 67 subtable" y.sc
Substitution2: "'ss06' Style Set 6 in Latin lookup 52 subtable" Y.squared
Substitution2: "'ss05' Style Set 5 in Latin lookup 51 subtable" uni24CE
Substitution2: "'aalt' Access All Alternates in Latin lookup 0 subtable" y.sc
Position2: "'cpsp' Capital Spacing in Latin lookup 0 subtable" dx=0 dy=0 dh=0 dv=0
EndChar

StartChar: uni01B3
Encoding: 435 435 474
Width: 1714
Flags: W
LayerCount: 2
Fore
SplineSet
884 850 m 1,0,-1
 890 884 l 1,1,-1
 925 884 l 1,2,-1
 920 850 l 1,3,-1
 884 850 l 1,0,-1
201 1490 m 1,4,-1
 635 1490 l 1,5,-1
 905 870 l 1,6,-1
 1215 1275 l 2,7,8
 1311 1398 1311 1398 1421 1451.5 c 128,-1,9
 1531 1505 1531 1505 1642.5 1506 c 128,-1,10
 1754 1507 1754 1507 1854 1470 c 1,11,-1
 1723 1173 l 1,12,13
 1639 1197 1639 1197 1591 1172.5 c 128,-1,14
 1543 1148 1543 1148 1483 1075 c 2,15,-1
 1052 551 l 1,16,-1
 961 0 l 1,17,-1
 560 0 l 1,18,-1
 653 551 l 1,19,-1
 201 1490 l 1,4,-1
EndSplineSet
Position2: "'cpsp' Capital Spacing in Latin lookup 0 subtable" dx=0 dy=0 dh=0 dv=0
EndChar

StartChar: uni024E
Encoding: 590 590 484
Width: 1550
GlyphClass: 2
Flags: W
AnchorPoint: "Anchor-4" 890 0 basechar 0
AnchorPoint: "Anchor-1" 928 1490 basechar 0
AnchorPoint: "Anchor-0" 686 0 basechar 0
LayerCount: 2
Fore
SplineSet
1635 1176 m 1,0,-1
 1604 986 l 1,1,-1
 92 986 l 1,2,-1
 123 1176 l 1,3,-1
 1635 1176 l 1,0,-1
488 0 m 1,4,-1
 573 513 l 1,5,-1
 180 1490 l 1,6,-1
 639 1490 l 1,7,-1
 781 1057 l 2,8,9
 801 1000 801 1000 814.5 942 c 128,-1,10
 828 884 828 884 841 817 c 1,11,-1
 782 817 l 1,12,13
 815 884 815 884 846.5 942 c 128,-1,14
 878 1000 878 1000 913 1057 c 2,15,-1
 1187 1490 l 1,16,-1
 1676 1490 l 1,17,-1
 975 513 l 1,18,-1
 890 0 l 1,19,-1
 488 0 l 1,4,-1
EndSplineSet
Position2: "'cpsp' Capital Spacing in Latin lookup 0 subtable" dx=0 dy=0 dh=0 dv=0
EndChar

StartChar: Z
Encoding: 90 90 497
Width: 1407
GlyphClass: 2
Flags: W
AnchorPoint: "Anchor-1" 866 1490 basechar 0
AnchorPoint: "Anchor-0" 615 0 basechar 0
LayerCount: 2
Fore
SplineSet
5 0 m 1,0,-1
 42 224 l 1,1,-1
 902 1165 l 1,2,-1
 200 1165 l 1,3,-1
 254 1490 l 1,4,-1
 1470 1490 l 1,5,-1
 1433 1266 l 1,6,-1
 573 327 l 1,7,-1
 1275 327 l 1,8,-1
 1221 0 l 1,9,-1
 5 0 l 1,0,-1
EndSplineSet
Substitution2: "'ss06' Style Set 6 in Latin lookup 52 subtable" Z.squared
Substitution2: "'ss05' Style Set 5 in Latin lookup 51 subtable" uni24CF
Position2: "'cpsp' Capital Spacing in Latin lookup 0 subtable" dx=0 dy=0 dh=0 dv=0
EndChar

StartChar: uni0224
Encoding: 548 548 504
Width: 1407
GlyphClass: 2
Flags: W
AnchorPoint: "Anchor-1" 866 1490 basechar 0
AnchorPoint: "Anchor-0" 615 0 basechar 0
LayerCount: 2
Fore
SplineSet
523 -417 m 1,0,-1
 574 -108 l 1,1,2
 597 -111 597 -111 629 -112 c 128,-1,3
 661 -113 661 -113 699 -113 c 0,4,5
 749 -113 749 -113 774 -94 c 128,-1,6
 799 -75 799 -75 806 -32 c 2,7,-1
 811 0 l 1,8,-1
 1221 0 l 1,9,-1
 1212 -55 l 2,10,11
 1181 -242 1181 -242 1060 -335.5 c 128,-1,12
 939 -429 939 -429 728 -429 c 0,13,14
 667 -429 667 -429 614 -426 c 128,-1,15
 561 -423 561 -423 523 -417 c 1,0,-1
5 0 m 1,16,-1
 42 224 l 1,17,-1
 902 1165 l 1,18,-1
 200 1165 l 1,19,-1
 254 1490 l 1,20,-1
 1470 1490 l 1,21,-1
 1433 1266 l 1,22,-1
 573 327 l 1,23,-1
 1275 327 l 1,24,-1
 1221 0 l 1,25,-1
 5 0 l 1,16,-1
EndSplineSet
Position2: "'cpsp' Capital Spacing in Latin lookup 0 subtable" dx=0 dy=0 dh=0 dv=0
EndChar

StartChar: uni2C7F
Encoding: 11391 11391 507
Width: 1411
Flags: W
LayerCount: 2
Fore
SplineSet
974 -436 m 0,0,1
 871 -436 871 -436 796.5 -404 c 128,-1,2
 722 -372 722 -372 666 -322.5 c 128,-1,3
 610 -273 610 -273 558 -217 c 128,-1,4
 506 -161 506 -161 446.5 -111.5 c 128,-1,5
 387 -62 387 -62 308 -31 c 128,-1,6
 229 0 229 0 119 0 c 2,7,-1
 5 0 l 1,8,-1
 38 205 l 1,9,-1
 889 1173 l 1,10,-1
 202 1173 l 1,11,-1
 255 1490 l 1,12,-1
 1458 1490 l 1,13,-1
 1424 1289 l 1,14,-1
 538 268 l 1,15,16
 610 234 610 234 665 184 c 128,-1,17
 720 134 720 134 765.5 80.5 c 128,-1,18
 811 27 811 27 854 -18.5 c 128,-1,19
 897 -64 897 -64 944.5 -92.5 c 128,-1,20
 992 -121 992 -121 1053 -121 c 0,21,22
 1095 -121 1095 -121 1133.5 -115.5 c 128,-1,23
 1172 -110 1172 -110 1210 -97 c 1,24,-1
 1160 -402 l 1,25,26
 1120 -416 1120 -416 1074 -426 c 128,-1,27
 1028 -436 1028 -436 974 -436 c 0,0,1
EndSplineSet
Position2: "'cpsp' Capital Spacing in Latin lookup 0 subtable" dx=0 dy=0 dh=0 dv=0
EndChar

StartChar: a
Encoding: 97 97 508
Width: 1298
GlyphClass: 2
Flags: W
AnchorPoint: "Anchor-4" 1113 0 basechar 0
AnchorPoint: "Anchor-1" 750 1087 basechar 0
AnchorPoint: "Anchor-0" 569 0 basechar 0
LayerCount: 2
Fore
SplineSet
408 -19 m 0,0,1
 280 -19 280 -19 189 46.5 c 128,-1,2
 98 112 98 112 60.5 238 c 128,-1,3
 23 364 23 364 54 545 c 0,4,5
 84 727 84 727 165.5 852 c 128,-1,6
 247 977 247 977 358.5 1041.5 c 128,-1,7
 470 1106 470 1106 592 1106 c 0,8,9
 667 1106 667 1106 722 1083 c 128,-1,10
 777 1060 777 1060 813 1019 c 128,-1,11
 849 978 849 978 866 924 c 1,12,-1
 871 924 l 1,13,-1
 899 1087 l 1,14,-1
 1293 1087 l 1,15,-1
 1113 0 l 1,16,-1
 720 0 l 1,17,-1
 748 171 l 1,18,-1
 741 171 l 1,19,20
 709 113 709 113 659 70.5 c 128,-1,21
 609 28 609 28 546 4.5 c 128,-1,22
 483 -19 483 -19 408 -19 c 0,0,1
594 292 m 256,23,24
 649 292 649 292 695 323 c 128,-1,25
 741 354 741 354 773 410.5 c 128,-1,26
 805 467 805 467 818 545 c 0,27,28
 830 623 830 623 816.5 679 c 128,-1,29
 803 735 803 735 767.5 766 c 128,-1,30
 732 797 732 797 676 797 c 0,31,32
 622 797 622 797 578.5 766 c 128,-1,33
 535 735 535 735 505.5 678.5 c 128,-1,34
 476 622 476 622 462 545 c 0,35,36
 450 467 450 467 461 410.5 c 128,-1,37
 472 354 472 354 505.5 323 c 128,-1,38
 539 292 539 292 594 292 c 256,23,24
EndSplineSet
Substitution2: "'smcp' Lowercase to Small Capitals in Latin lookup 68 subtable" a.sc
Substitution2: "'c2sc' Capitals to Small Capitals in Latin lookup 67 subtable" a.sc
Substitution2: "Single Substitution lookup 44 subtable" ordfeminine
Substitution2: "'sups' Superscript in Latin lookup 39 subtable" a.sups
Substitution2: "'subs' Subscript in Latin lookup 38 subtable" a.subs
Substitution2: "'sinf' Scientific Inferiors in Latin lookup 18 subtable" a.subs
AlternateSubs2: "'aalt' Access All Alternates in Latin lookup 1 subtable" ordfeminine a.sups a.subs a.sc
EndChar

StartChar: aturn
Encoding: 592 592 540
Width: 1298
GlyphClass: 2
Flags: W
AnchorPoint: "Anchor-4" 185 1087 basechar 0
AnchorPoint: "Anchor-1" 747 1087 basechar 0
AnchorPoint: "Anchor-0" 566 0 basechar 0
LayerCount: 2
Fore
SplineSet
890 1106 m 0,0,1
 1019 1106 1019 1106 1109.5 1040.5 c 128,-1,2
 1200 975 1200 975 1237.5 849.5 c 128,-1,3
 1275 724 1275 724 1245 544 c 0,4,5
 1215 362 1215 362 1133.5 236 c 128,-1,6
 1052 110 1052 110 940.5 45.5 c 128,-1,7
 829 -19 829 -19 707 -19 c 0,8,9
 632 -19 632 -19 576.5 4.5 c 128,-1,10
 521 28 521 28 485.5 69 c 128,-1,11
 450 110 450 110 432 165 c 1,12,-1
 427 165 l 1,13,-1
 400 0 l 1,14,-1
 5 0 l 1,15,-1
 185 1087 l 1,16,-1
 579 1087 l 1,17,-1
 551 918 l 1,18,-1
 557 918 l 1,19,20
 590 975 590 975 639.5 1017.5 c 128,-1,21
 689 1060 689 1060 752.5 1083 c 128,-1,22
 816 1106 816 1106 890 1106 c 0,0,1
705 795 m 256,23,24
 650 795 650 795 604 764.5 c 128,-1,25
 558 734 558 734 526 677.5 c 128,-1,26
 494 621 494 621 481 544 c 0,27,28
 468 466 468 466 481.5 409.5 c 128,-1,29
 495 353 495 353 531.5 322.5 c 128,-1,30
 568 292 568 292 622 292 c 0,31,32
 677 292 677 292 720 322.5 c 128,-1,33
 763 353 763 353 793 409.5 c 128,-1,34
 823 466 823 466 836 544 c 256,35,36
 849 622 849 622 838 678.5 c 128,-1,37
 827 735 827 735 793.5 765 c 128,-1,38
 760 795 760 795 705 795 c 256,23,24
EndSplineSet
EndChar

StartChar: ae
Encoding: 230 230 544
Width: 1893
GlyphClass: 2
Flags: W
AnchorPoint: "Anchor-1" 1012 1087 basechar 0
LayerCount: 2
Fore
SplineSet
390 -18 m 0,0,1
 192 -18 192 -18 90 68 c 128,-1,2
 -12 154 -12 154 13 301 c 0,3,4
 30 404 30 404 92.5 480 c 128,-1,5
 155 556 155 556 254 598.5 c 128,-1,6
 353 641 353 641 478 643 c 0,7,8
 531 644 531 644 582 645 c 128,-1,9
 633 646 633 646 684.5 647 c 128,-1,10
 736 648 736 648 788 649 c 1,11,-1
 752 436 l 1,12,13
 701 436 701 436 649 434 c 128,-1,14
 597 432 597 432 545 430 c 0,15,16
 477 428 477 428 438.5 397.5 c 128,-1,17
 400 367 400 367 393 325 c 0,18,19
 386 281 386 281 414.5 257 c 128,-1,20
 443 233 443 233 494 233 c 0,21,22
 539 233 539 233 582 251 c 128,-1,23
 625 269 625 269 657 302.5 c 128,-1,24
 689 336 689 336 696 385 c 2,25,-1
 753 731 l 2,26,27
 762 777 762 777 731.5 803.5 c 128,-1,28
 701 830 701 830 639 830 c 0,29,30
 599 830 599 830 566.5 818 c 128,-1,31
 534 806 534 806 511.5 784 c 128,-1,32
 489 762 489 762 479 732 c 1,33,-1
 117 750 l 1,34,35
 147 852 147 852 223.5 932.5 c 128,-1,36
 300 1013 300 1013 419 1060 c 128,-1,37
 538 1107 538 1107 692 1107 c 0,38,39
 839 1107 839 1107 924.5 1061.5 c 128,-1,40
 1010 1016 1010 1016 1039.5 935 c 128,-1,41
 1069 854 1069 854 1051 745 c 2,42,-1
 993 398 l 1,43,-1
 976 386 l 1,44,45
 956 259 956 259 883.5 169 c 128,-1,46
 811 79 811 79 687.5 30.5 c 128,-1,47
 564 -18 564 -18 390 -18 c 0,0,1
1232 -24 m 0,48,49
 1053 -24 1053 -24 929 42.5 c 128,-1,50
 805 109 805 109 751 235.5 c 128,-1,51
 697 362 697 362 727 543 c 0,52,53
 748 672 748 672 805 776 c 128,-1,54
 862 880 862 880 949 954 c 128,-1,55
 1036 1028 1036 1028 1147 1067 c 128,-1,56
 1258 1106 1258 1106 1388 1106 c 0,57,58
 1515 1106 1515 1106 1620 1069 c 128,-1,59
 1725 1032 1725 1032 1787.5 958.5 c 128,-1,60
 1850 885 1850 885 1850 776 c 0,61,62
 1850 663 1850 663 1778.5 595 c 128,-1,63
 1707 527 1707 527 1573.5 492.5 c 128,-1,64
 1440 458 1440 458 1253.5 446.5 c 128,-1,65
 1067 435 1067 435 836 435 c 1,66,-1
 873 651 l 1,67,68
 1072 651 1072 651 1193.5 655.5 c 128,-1,69
 1315 660 1315 660 1378.5 671 c 128,-1,70
 1442 682 1442 682 1464.5 699.5 c 128,-1,71
 1487 717 1487 717 1487 742 c 0,72,73
 1487 780 1487 780 1450.5 802 c 128,-1,74
 1414 824 1414 824 1346 824 c 0,75,76
 1284 824 1284 824 1240.5 805 c 128,-1,77
 1197 786 1197 786 1170.5 743 c 128,-1,78
 1144 700 1144 700 1131 626 c 0,79,80
 1127 602 1127 602 1120.5 562.5 c 128,-1,81
 1114 523 1114 523 1109 482.5 c 128,-1,82
 1104 442 1104 442 1104 418 c 0,83,84
 1104 328 1104 328 1147.5 292.5 c 128,-1,85
 1191 257 1191 257 1265 257 c 256,86,87
 1339 257 1339 257 1386 285.5 c 128,-1,88
 1433 314 1433 314 1447 360 c 1,89,-1
 1813 361 l 1,90,91
 1755 186 1755 186 1609.5 81 c 128,-1,92
 1464 -24 1464 -24 1232 -24 c 0,48,49
EndSplineSet
EndChar

StartChar: b
Encoding: 98 98 548
Width: 1302
GlyphClass: 2
Flags: W
AnchorPoint: "Anchor-1" 924 1304 basechar 0
AnchorPoint: "Anchor-0" 619 0 basechar 0
LayerCount: 2
Fore
SplineSet
731 -19 m 0,0,1
 650 -19 650 -19 590 7 c 128,-1,2
 530 33 530 33 492.5 79.5 c 128,-1,3
 455 126 455 126 440 186 c 1,4,-1
 432 186 l 1,5,-1
 401 0 l 1,6,-1
 4 0 l 1,7,-1
 251 1490 l 1,8,-1
 652 1490 l 1,9,-1
 560 926 l 1,10,-1
 564 926 l 1,11,12
 593 982 593 982 639 1022 c 128,-1,13
 685 1062 685 1062 745 1084 c 128,-1,14
 805 1106 805 1106 876 1106 c 0,15,16
 986 1106 986 1106 1071 1054.5 c 128,-1,17
 1156 1003 1156 1003 1206 902.5 c 128,-1,18
 1256 802 1256 802 1256 656 c 0,19,20
 1256 544 1256 544 1224.5 425 c 128,-1,21
 1193 306 1193 306 1128 205.5 c 128,-1,22
 1063 105 1063 105 964 43 c 128,-1,23
 865 -19 865 -19 731 -19 c 0,0,1
604 292 m 0,24,25
 668 292 668 292 714.5 327.5 c 128,-1,26
 761 363 761 363 791 417.5 c 128,-1,27
 821 472 821 472 835 533 c 128,-1,28
 849 594 849 594 849 645 c 0,29,30
 849 717 849 717 819 757 c 128,-1,31
 789 797 789 797 728 797 c 0,32,33
 668 797 668 797 620.5 765.5 c 128,-1,34
 573 734 573 734 540 682 c 128,-1,35
 507 630 507 630 490 570 c 128,-1,36
 473 510 473 510 473 453 c 0,37,38
 473 378 473 378 507.5 335 c 128,-1,39
 542 292 542 292 604 292 c 0,24,25
EndSplineSet
Substitution2: "'sups' Superscript in Latin lookup 39 subtable" b.sups
Substitution2: "'subs' Subscript in Latin lookup 38 subtable" b.subs
Substitution2: "'sinf' Scientific Inferiors in Latin lookup 18 subtable" b.subs
AlternateSubs2: "'aalt' Access All Alternates in Latin lookup 1 subtable" b.sups b.subs
EndChar

StartChar: uni0183
Encoding: 387 387 550
Width: 1302
GlyphClass: 2
Flags: W
AnchorPoint: "Anchor-1" 924 1304 basechar 0
AnchorPoint: "Anchor-0" 619 0 basechar 0
LayerCount: 2
Fore
SplineSet
404 1193 m 1,0,-1
 251 1490 l 1,1,-1
 1147 1490 l 1,2,-1
 1098 1193 l 1,3,-1
 404 1193 l 1,0,-1
731 -19 m 0,4,5
 650 -19 650 -19 590 7 c 128,-1,6
 530 33 530 33 492.5 79.5 c 128,-1,7
 455 126 455 126 440 186 c 1,8,-1
 432 186 l 1,9,-1
 401 0 l 1,10,-1
 4 0 l 1,11,-1
 251 1490 l 1,12,-1
 652 1490 l 1,13,-1
 560 926 l 1,14,-1
 564 926 l 1,15,16
 593 982 593 982 639 1022 c 128,-1,17
 685 1062 685 1062 745 1084 c 128,-1,18
 805 1106 805 1106 876 1106 c 0,19,20
 986 1106 986 1106 1071 1054.5 c 128,-1,21
 1156 1003 1156 1003 1206 902.5 c 128,-1,22
 1256 802 1256 802 1256 656 c 0,23,24
 1256 544 1256 544 1224.5 425 c 128,-1,25
 1193 306 1193 306 1128 205.5 c 128,-1,26
 1063 105 1063 105 964 43 c 128,-1,27
 865 -19 865 -19 731 -19 c 0,4,5
604 292 m 0,28,29
 668 292 668 292 714.5 327.5 c 128,-1,30
 761 363 761 363 791 417.5 c 128,-1,31
 821 472 821 472 835 533 c 128,-1,32
 849 594 849 594 849 645 c 0,33,34
 849 717 849 717 819 757 c 128,-1,35
 789 797 789 797 728 797 c 0,36,37
 668 797 668 797 620.5 765.5 c 128,-1,38
 573 734 573 734 540 682 c 128,-1,39
 507 630 507 630 490 570 c 128,-1,40
 473 510 473 510 473 453 c 0,41,42
 473 378 473 378 507.5 335 c 128,-1,43
 542 292 542 292 604 292 c 0,28,29
EndSplineSet
EndChar

StartChar: uni0253
Encoding: 595 595 551
Width: 1301
GlyphClass: 2
Flags: W
AnchorPoint: "Anchor-1" 634 1490 basechar 0
AnchorPoint: "Anchor-0" 540 0 basechar 0
LayerCount: 2
Fore
SplineSet
710 -19 m 0,0,1
 637 -19 637 -19 580.5 4.5 c 128,-1,2
 524 28 524 28 487.5 70.5 c 128,-1,3
 451 113 451 113 437 170 c 1,4,-1
 430 170 l 1,5,-1
 402 0 l 1,6,-1
 5 0 l 1,7,-1
 148 864 l 1,8,-1
 549 864 l 1,9,-1
 554 900 l 1,10,-1
 561 905 l 1,11,12
 596 957 596 957 644.5 997.5 c 128,-1,13
 693 1038 693 1038 754 1060 c 128,-1,14
 815 1082 815 1082 888 1082 c 0,15,16
 1011 1082 1011 1082 1102 1019.5 c 128,-1,17
 1193 957 1193 957 1234.5 835.5 c 128,-1,18
 1276 714 1276 714 1246 537 c 0,19,20
 1218 361 1218 361 1139.5 236.5 c 128,-1,21
 1061 112 1061 112 950.5 46.5 c 128,-1,22
 840 -19 840 -19 710 -19 c 0,0,1
625 293 m 256,23,24
 680 293 680 293 723 322 c 128,-1,25
 766 351 766 351 795.5 406 c 128,-1,26
 825 461 825 461 837 537 c 0,27,28
 850 612 850 612 839 667 c 128,-1,29
 828 722 828 722 794.5 751.5 c 128,-1,30
 761 781 761 781 705 781 c 0,31,32
 651 781 651 781 605 751.5 c 128,-1,33
 559 722 559 722 527.5 667 c 128,-1,34
 496 612 496 612 482 537 c 0,35,36
 470 463 470 463 484 407.5 c 128,-1,37
 498 352 498 352 534 322.5 c 128,-1,38
 570 293 570 293 625 293 c 256,23,24
148 865 m 1,39,-1
 185 1087 l 1,40,-1
 191 1124 l 2,41,42
 223 1311 223 1311 340.5 1404 c 128,-1,43
 458 1497 458 1497 669 1497 c 0,44,45
 730 1497 730 1497 783 1494.5 c 128,-1,46
 836 1492 836 1492 874 1486 c 1,47,-1
 825 1192 l 1,48,49
 802 1194 802 1194 770 1195 c 128,-1,50
 738 1196 738 1196 701 1196 c 0,51,52
 650 1196 650 1196 624 1176.5 c 128,-1,53
 598 1157 598 1157 590 1113 c 2,54,-1
 586 1087 l 1,55,-1
 549 865 l 1,56,-1
 148 865 l 1,39,-1
EndSplineSet
EndChar

StartChar: thorn
Encoding: 254 254 555
Width: 1302
Flags: W
LayerCount: 2
Fore
SplineSet
708 -19 m 0,0,1
 633 -19 633 -19 578 4.5 c 128,-1,2
 523 28 523 28 488.5 70.5 c 128,-1,3
 454 113 454 113 440 171 c 1,4,-1
 435 171 l 1,5,-1
 337 -418 l 1,6,-1
 -65 -418 l 1,7,-1
 251 1490 l 1,8,-1
 653 1490 l 1,9,-1
 560 924 l 1,10,-1
 565 924 l 1,11,12
 600 978 600 978 648.5 1019 c 128,-1,13
 697 1060 697 1060 759.5 1083 c 128,-1,14
 822 1106 822 1106 897 1106 c 0,15,16
 1020 1106 1020 1106 1110 1042 c 128,-1,17
 1200 978 1200 978 1239.5 852.5 c 128,-1,18
 1279 727 1279 727 1248 544 c 0,19,20
 1219 364 1219 364 1140 238 c 128,-1,21
 1061 112 1061 112 949 46.5 c 128,-1,22
 837 -19 837 -19 708 -19 c 0,0,1
626 292 m 0,23,24
 680 292 680 292 723.5 323 c 128,-1,25
 767 354 767 354 797 410.5 c 128,-1,26
 827 467 827 467 840 545 c 0,27,28
 852 622 852 622 841 678.5 c 128,-1,29
 830 735 830 735 797 766 c 128,-1,30
 764 797 764 797 709 797 c 256,31,32
 654 797 654 797 608 766 c 128,-1,33
 562 735 562 735 530 679 c 128,-1,34
 498 623 498 623 484 545 c 0,35,36
 472 468 472 468 485.5 411 c 128,-1,37
 499 354 499 354 535 323 c 128,-1,38
 571 292 571 292 626 292 c 0,23,24
EndSplineSet
EndChar

StartChar: c
Encoding: 99 99 556
Width: 1214
GlyphClass: 2
Flags: W
AnchorPoint: "Anchor-3" 536 0 basechar 0
AnchorPoint: "Anchor-1" 716 1087 basechar 0
AnchorPoint: "Anchor-0" 536 0 basechar 0
LayerCount: 2
Fore
SplineSet
553 -22 m 0,0,1
 395 -22 395 -22 282.5 37 c 128,-1,2
 170 96 170 96 109 202 c 128,-1,3
 48 308 48 308 48 451 c 0,4,5
 48 579 48 579 90.5 697 c 128,-1,6
 133 815 133 815 216 907.5 c 128,-1,7
 299 1000 299 1000 420 1053 c 128,-1,8
 541 1106 541 1106 698 1106 c 0,9,10
 812 1106 812 1106 905 1075 c 128,-1,11
 998 1044 998 1044 1064 986 c 128,-1,12
 1130 928 1130 928 1161.5 846.5 c 128,-1,13
 1193 765 1193 765 1183 663 c 1,14,-1
 802 636 l 1,15,16
 804 672 804 672 800 702.5 c 128,-1,17
 796 733 796 733 784 755.5 c 128,-1,18
 772 778 772 778 750.5 790 c 128,-1,19
 729 802 729 802 696 802 c 0,20,21
 632 802 632 802 585.5 767 c 128,-1,22
 539 732 539 732 509 676 c 128,-1,23
 479 620 479 620 465 557 c 128,-1,24
 451 494 451 494 451 436 c 0,25,26
 451 387 451 387 464 352.5 c 128,-1,27
 477 318 477 318 503 301 c 128,-1,28
 529 284 529 284 568 284 c 0,29,30
 603 284 603 284 635 296 c 128,-1,31
 667 308 667 308 694.5 330.5 c 128,-1,32
 722 353 722 353 742.5 384.5 c 128,-1,33
 763 416 763 416 773 454 c 1,34,-1
 1144 427 l 1,35,36
 1122 324 1122 324 1070.5 241.5 c 128,-1,37
 1019 159 1019 159 942 100.5 c 128,-1,38
 865 42 865 42 767 10 c 128,-1,39
 669 -22 669 -22 553 -22 c 0,0,1
EndSplineSet
Substitution2: "'sups' Superscript in Latin lookup 39 subtable" c.sups
Substitution2: "'subs' Subscript in Latin lookup 38 subtable" c.subs
Substitution2: "'sinf' Scientific Inferiors in Latin lookup 18 subtable" c.subs
AlternateSubs2: "'aalt' Access All Alternates in Latin lookup 1 subtable" c.sups c.subs
EndChar

StartChar: uni023C
Encoding: 572 572 557
Width: 1214
GlyphClass: 2
Flags: W
AnchorPoint: "Anchor-3" 536 0 basechar 0
AnchorPoint: "Anchor-1" 716 1087 basechar 0
AnchorPoint: "Anchor-0" 536 0 basechar 0
LayerCount: 2
Fore
SplineSet
122 -418 m 1,0,-1
 964 1490 l 1,1,-1
 1134 1490 l 1,2,-1
 290 -418 l 1,3,-1
 122 -418 l 1,0,-1
553 -22 m 0,4,5
 395 -22 395 -22 282.5 37 c 128,-1,6
 170 96 170 96 109 202 c 128,-1,7
 48 308 48 308 48 451 c 0,8,9
 48 579 48 579 90.5 697 c 128,-1,10
 133 815 133 815 216 907.5 c 128,-1,11
 299 1000 299 1000 420 1053 c 128,-1,12
 541 1106 541 1106 698 1106 c 0,13,14
 812 1106 812 1106 905 1075 c 128,-1,15
 998 1044 998 1044 1064 986 c 128,-1,16
 1130 928 1130 928 1161.5 846.5 c 128,-1,17
 1193 765 1193 765 1183 663 c 1,18,-1
 802 636 l 1,19,20
 804 672 804 672 800 702.5 c 128,-1,21
 796 733 796 733 784 755.5 c 128,-1,22
 772 778 772 778 750.5 790 c 128,-1,23
 729 802 729 802 696 802 c 0,24,25
 632 802 632 802 585.5 767 c 128,-1,26
 539 732 539 732 509 676 c 128,-1,27
 479 620 479 620 465 557 c 128,-1,28
 451 494 451 494 451 436 c 0,29,30
 451 387 451 387 464 352.5 c 128,-1,31
 477 318 477 318 503 301 c 128,-1,32
 529 284 529 284 568 284 c 0,33,34
 603 284 603 284 635 296 c 128,-1,35
 667 308 667 308 694.5 330.5 c 128,-1,36
 722 353 722 353 742.5 384.5 c 128,-1,37
 763 416 763 416 773 454 c 1,38,-1
 1144 427 l 1,39,40
 1122 324 1122 324 1070.5 241.5 c 128,-1,41
 1019 159 1019 159 942 100.5 c 128,-1,42
 865 42 865 42 767 10 c 128,-1,43
 669 -22 669 -22 553 -22 c 0,4,5
EndSplineSet
Ligature2: "'ccmp' Glyph Composition/Decomposition in Latin lookup 6 subtable" c uni0338
EndChar

StartChar: uni0188
Encoding: 392 392 558
Width: 1214
GlyphClass: 2
Flags: W
AnchorPoint: "Anchor-3" 536 0 basechar 0
AnchorPoint: "Anchor-1" 716 1087 basechar 0
AnchorPoint: "Anchor-0" 536 0 basechar 0
LayerCount: 2
Fore
SplineSet
851 663 m 1,0,-1
 876 938 l 2,1,2
 893 1117 893 1117 986 1202.5 c 128,-1,3
 1079 1288 1079 1288 1289 1288 c 0,4,5
 1339 1288 1339 1288 1385.5 1286 c 128,-1,6
 1432 1284 1432 1284 1464 1282 c 1,7,-1
 1410 981 l 1,8,9
 1391 983 1391 983 1362 985 c 128,-1,10
 1333 987 1333 987 1300 987 c 0,11,12
 1249 987 1249 987 1226.5 967 c 128,-1,13
 1204 947 1204 947 1200 903 c 2,14,-1
 1183 663 l 1,15,-1
 851 663 l 1,0,-1
553 -22 m 0,16,17
 395 -22 395 -22 282.5 37 c 128,-1,18
 170 96 170 96 109 202 c 128,-1,19
 48 308 48 308 48 451 c 0,20,21
 48 579 48 579 90.5 697 c 128,-1,22
 133 815 133 815 216 907.5 c 128,-1,23
 299 1000 299 1000 420 1053 c 128,-1,24
 541 1106 541 1106 698 1106 c 0,25,26
 812 1106 812 1106 905 1075 c 128,-1,27
 998 1044 998 1044 1064 986 c 128,-1,28
 1130 928 1130 928 1161.5 846.5 c 128,-1,29
 1193 765 1193 765 1183 663 c 1,30,-1
 802 636 l 1,31,32
 804 672 804 672 800 702.5 c 128,-1,33
 796 733 796 733 784 755.5 c 128,-1,34
 772 778 772 778 750.5 790 c 128,-1,35
 729 802 729 802 696 802 c 0,36,37
 632 802 632 802 585.5 767 c 128,-1,38
 539 732 539 732 509 676 c 128,-1,39
 479 620 479 620 465 557 c 128,-1,40
 451 494 451 494 451 436 c 0,41,42
 451 387 451 387 464 352.5 c 128,-1,43
 477 318 477 318 503 301 c 128,-1,44
 529 284 529 284 568 284 c 0,45,46
 603 284 603 284 635 296 c 128,-1,47
 667 308 667 308 694.5 330.5 c 128,-1,48
 722 353 722 353 742.5 384.5 c 128,-1,49
 763 416 763 416 773 454 c 1,50,-1
 1144 427 l 1,51,52
 1122 324 1122 324 1070.5 241.5 c 128,-1,53
 1019 159 1019 159 942 100.5 c 128,-1,54
 865 42 865 42 767 10 c 128,-1,55
 669 -22 669 -22 553 -22 c 0,16,17
EndSplineSet
EndChar

StartChar: d
Encoding: 100 100 567
Width: 1301
GlyphClass: 2
Flags: W
AnchorPoint: "Anchor-1" 597 1304 basechar 0
AnchorPoint: "Anchor-0" 582 0 basechar 0
LayerCount: 2
Fore
SplineSet
430 -19 m 0,0,1
 258 -19 258 -19 151.5 95.5 c 128,-1,2
 45 210 45 210 45 421 c 0,3,4
 45 546 45 546 80 668 c 128,-1,5
 115 790 115 790 182.5 889 c 128,-1,6
 250 988 250 988 347.5 1047 c 128,-1,7
 445 1106 445 1106 570 1106 c 0,8,9
 652 1106 652 1106 710 1080 c 128,-1,10
 768 1054 768 1054 805 1008.5 c 128,-1,11
 842 963 842 963 861 905 c 1,12,-1
 866 905 l 1,13,-1
 962 1490 l 1,14,-1
 1364 1490 l 1,15,-1
 1117 0 l 1,16,-1
 720 0 l 1,17,-1
 749 169 l 1,18,-1
 742 169 l 1,19,20
 710 105 710 105 663 64 c 128,-1,21
 616 23 616 23 557.5 2 c 128,-1,22
 499 -19 499 -19 430 -19 c 0,0,1
574 292 m 0,23,24
 634 292 634 292 681 324 c 128,-1,25
 728 356 728 356 761 408 c 128,-1,26
 794 460 794 460 811.5 520 c 128,-1,27
 829 580 829 580 829 637 c 0,28,29
 829 713 829 713 794 755 c 128,-1,30
 759 797 759 797 698 797 c 256,31,32
 637 797 637 797 591 763.5 c 128,-1,33
 545 730 545 730 514 677 c 128,-1,34
 483 624 483 624 467.5 562.5 c 128,-1,35
 452 501 452 501 452 444 c 0,36,37
 452 371 452 371 482.5 331.5 c 128,-1,38
 513 292 513 292 574 292 c 0,23,24
EndSplineSet
Substitution2: "'sups' Superscript in Latin lookup 39 subtable" d.sups
Substitution2: "'subs' Subscript in Latin lookup 38 subtable" d.subs
Substitution2: "'sinf' Scientific Inferiors in Latin lookup 18 subtable" d.subs
AlternateSubs2: "'aalt' Access All Alternates in Latin lookup 1 subtable" d.sups d.subs
EndChar

StartChar: drthook
Encoding: 598 598 569
Width: 1301
GlyphClass: 2
Flags: W
AnchorPoint: "Anchor-1" 597 1304 basechar 0
AnchorPoint: "Anchor-0" 582 0 basechar 0
LayerCount: 2
Fore
SplineSet
1058 -429 m 0,0,1
 847 -429 847 -429 763.5 -335.5 c 128,-1,2
 680 -242 680 -242 711 -55 c 2,3,-1
 755 209 l 1,4,-1
 1151 209 l 1,5,-1
 1109 -44 l 2,6,7
 1102 -89 1102 -89 1121 -108.5 c 128,-1,8
 1140 -128 1140 -128 1189 -128 c 0,9,10
 1227 -128 1227 -128 1259 -127 c 128,-1,11
 1291 -126 1291 -126 1315 -124 c 1,12,-1
 1267 -417 l 1,13,14
 1227 -423 1227 -423 1173.5 -426 c 128,-1,15
 1120 -429 1120 -429 1058 -429 c 0,0,1
430 -19 m 0,16,17
 258 -19 258 -19 151.5 95.5 c 128,-1,18
 45 210 45 210 45 421 c 0,19,20
 45 546 45 546 80 668 c 128,-1,21
 115 790 115 790 182.5 889 c 128,-1,22
 250 988 250 988 347.5 1047 c 128,-1,23
 445 1106 445 1106 570 1106 c 0,24,25
 652 1106 652 1106 710 1080 c 128,-1,26
 768 1054 768 1054 805 1008.5 c 128,-1,27
 842 963 842 963 861 905 c 1,28,-1
 866 905 l 1,29,-1
 962 1490 l 1,30,-1
 1364 1490 l 1,31,-1
 1117 0 l 1,32,-1
 720 0 l 1,33,-1
 749 169 l 1,34,-1
 742 169 l 1,35,36
 710 105 710 105 663 64 c 128,-1,37
 616 23 616 23 557.5 2 c 128,-1,38
 499 -19 499 -19 430 -19 c 0,16,17
574 292 m 0,39,40
 634 292 634 292 681 324 c 128,-1,41
 728 356 728 356 761 408 c 128,-1,42
 794 460 794 460 811.5 520 c 128,-1,43
 829 580 829 580 829 637 c 0,44,45
 829 713 829 713 794 755 c 128,-1,46
 759 797 759 797 698 797 c 256,47,48
 637 797 637 797 591 763.5 c 128,-1,49
 545 730 545 730 514 677 c 128,-1,50
 483 624 483 624 467.5 562.5 c 128,-1,51
 452 501 452 501 452 444 c 0,52,53
 452 371 452 371 482.5 331.5 c 128,-1,54
 513 292 513 292 574 292 c 0,39,40
EndSplineSet
EndChar

StartChar: uni0257
Encoding: 599 599 570
Width: 1298
GlyphClass: 2
Flags: W
AnchorPoint: "Anchor-4" 1113 0 basechar 0
AnchorPoint: "Anchor-1" 750 1087 basechar 0
AnchorPoint: "Anchor-0" 569 0 basechar 0
LayerCount: 2
Fore
SplineSet
856 865 m 1,0,-1
 893 1087 l 1,1,-1
 898 1124 l 1,2,3
 930 1311 930 1311 1048 1404 c 128,-1,4
 1166 1497 1166 1497 1377 1497 c 0,5,6
 1438 1497 1438 1497 1491 1494.5 c 128,-1,7
 1544 1492 1544 1492 1582 1486 c 1,8,-1
 1533 1192 l 1,9,10
 1510 1194 1510 1194 1477.5 1195 c 128,-1,11
 1445 1196 1445 1196 1408 1196 c 0,12,13
 1358 1196 1358 1196 1331.5 1176.5 c 128,-1,14
 1305 1157 1305 1157 1298 1113 c 2,15,-1
 1293 1087 l 1,16,-1
 1257 865 l 1,17,-1
 856 865 l 1,0,-1
408 -19 m 0,18,19
 280 -19 280 -19 189 46.5 c 128,-1,20
 98 112 98 112 60.5 238 c 128,-1,21
 23 364 23 364 54 545 c 0,22,23
 84 727 84 727 165.5 852 c 128,-1,24
 247 977 247 977 358.5 1041.5 c 128,-1,25
 470 1106 470 1106 592 1106 c 0,26,27
 667 1106 667 1106 722 1083 c 128,-1,28
 777 1060 777 1060 813 1019 c 128,-1,29
 849 978 849 978 866 924 c 1,30,-1
 871 924 l 1,31,-1
 899 1087 l 1,32,-1
 1293 1087 l 1,33,-1
 1113 0 l 1,34,-1
 720 0 l 1,35,-1
 748 171 l 1,36,-1
 741 171 l 1,37,38
 709 113 709 113 659 70.5 c 128,-1,39
 609 28 609 28 546 4.5 c 128,-1,40
 483 -19 483 -19 408 -19 c 0,18,19
594 292 m 256,41,42
 649 292 649 292 695 323 c 128,-1,43
 741 354 741 354 773 410.5 c 128,-1,44
 805 467 805 467 818 545 c 0,45,46
 830 623 830 623 816.5 679 c 128,-1,47
 803 735 803 735 767.5 766 c 128,-1,48
 732 797 732 797 676 797 c 0,49,50
 622 797 622 797 578.5 766 c 128,-1,51
 535 735 535 735 505.5 678.5 c 128,-1,52
 476 622 476 622 462 545 c 0,53,54
 450 467 450 467 461 410.5 c 128,-1,55
 472 354 472 354 505.5 323 c 128,-1,56
 539 292 539 292 594 292 c 256,41,42
EndSplineSet
EndChar

StartChar: uni018C
Encoding: 396 396 571
Width: 1301
GlyphClass: 2
Flags: W
AnchorPoint: "Anchor-1" 597 1304 basechar 0
AnchorPoint: "Anchor-0" 582 0 basechar 0
LayerCount: 2
Fore
SplineSet
1112 1193 m 1,0,-1
 418 1193 l 1,1,-1
 467 1490 l 1,2,-1
 1364 1490 l 1,3,-1
 1112 1193 l 1,0,-1
430 -19 m 0,4,5
 258 -19 258 -19 151.5 95.5 c 128,-1,6
 45 210 45 210 45 421 c 0,7,8
 45 546 45 546 80 668 c 128,-1,9
 115 790 115 790 182.5 889 c 128,-1,10
 250 988 250 988 347.5 1047 c 128,-1,11
 445 1106 445 1106 570 1106 c 0,12,13
 652 1106 652 1106 710 1080 c 128,-1,14
 768 1054 768 1054 805 1008.5 c 128,-1,15
 842 963 842 963 861 905 c 1,16,-1
 866 905 l 1,17,-1
 962 1490 l 1,18,-1
 1364 1490 l 1,19,-1
 1117 0 l 1,20,-1
 720 0 l 1,21,-1
 749 169 l 1,22,-1
 742 169 l 1,23,24
 710 105 710 105 663 64 c 128,-1,25
 616 23 616 23 557.5 2 c 128,-1,26
 499 -19 499 -19 430 -19 c 0,4,5
574 292 m 0,27,28
 634 292 634 292 681 324 c 128,-1,29
 728 356 728 356 761 408 c 128,-1,30
 794 460 794 460 811.5 520 c 128,-1,31
 829 580 829 580 829 637 c 0,32,33
 829 713 829 713 794 755 c 128,-1,34
 759 797 759 797 698 797 c 256,35,36
 637 797 637 797 591 763.5 c 128,-1,37
 545 730 545 730 514 677 c 128,-1,38
 483 624 483 624 467.5 562.5 c 128,-1,39
 452 501 452 501 452 444 c 0,40,41
 452 371 452 371 482.5 331.5 c 128,-1,42
 513 292 513 292 574 292 c 0,27,28
EndSplineSet
EndChar

StartChar: uni0221
Encoding: 545 545 572
Width: 1621
GlyphClass: 2
Flags: W
AnchorPoint: "Anchor-1" 597 1304 basechar 0
AnchorPoint: "Anchor-0" 582 0 basechar 0
LayerCount: 2
Fore
SplineSet
1122 -418 m 0,0,1
 957 -418 957 -418 859.5 -374.5 c 128,-1,2
 762 -331 762 -331 726.5 -241 c 128,-1,3
 691 -151 691 -151 714 -12 c 2,4,-1
 748 192 l 1,5,-1
 1149 192 l 1,6,-1
 1096 -122 l 2,7,8
 1090 -162 1090 -162 1111 -181.5 c 128,-1,9
 1132 -201 1132 -201 1170 -201 c 0,10,11
 1203 -201 1203 -201 1228 -186 c 128,-1,12
 1253 -171 1253 -171 1257 -144 c 0,13,14
 1262 -114 1262 -114 1241 -96 c 128,-1,15
 1220 -78 1220 -78 1170 -78 c 0,16,17
 1141 -78 1141 -78 1106 -87.5 c 128,-1,18
 1071 -97 1071 -97 1015 -126 c 128,-1,19
 959 -155 959 -155 867 -211 c 2,20,-1
 514 -430 l 1,21,-1
 384 -207 l 1,22,-1
 759 23 l 2,23,24
 845 76 845 76 956.5 119 c 128,-1,25
 1068 162 1068 162 1192 162 c 0,26,27
 1401 162 1401 162 1502 69 c 128,-1,28
 1603 -24 1603 -24 1580 -161 c 0,29,30
 1559 -288 1559 -288 1443 -353 c 128,-1,31
 1327 -418 1327 -418 1122 -418 c 0,0,1
430 -19 m 0,32,33
 258 -19 258 -19 151.5 95.5 c 128,-1,34
 45 210 45 210 45 421 c 0,35,36
 45 546 45 546 80 668 c 128,-1,37
 115 790 115 790 182.5 889 c 128,-1,38
 250 988 250 988 347.5 1047 c 128,-1,39
 445 1106 445 1106 570 1106 c 0,40,41
 652 1106 652 1106 710 1080 c 128,-1,42
 768 1054 768 1054 805 1008.5 c 128,-1,43
 842 963 842 963 861 905 c 1,44,-1
 866 905 l 1,45,-1
 962 1490 l 1,46,-1
 1364 1490 l 1,47,-1
 1117 0 l 1,48,-1
 720 0 l 1,49,-1
 749 169 l 1,50,-1
 742 169 l 1,51,52
 710 105 710 105 663 64 c 128,-1,53
 616 23 616 23 557.5 2 c 128,-1,54
 499 -19 499 -19 430 -19 c 0,32,33
574 292 m 0,55,56
 634 292 634 292 681 324 c 128,-1,57
 728 356 728 356 761 408 c 128,-1,58
 794 460 794 460 811.5 520 c 128,-1,59
 829 580 829 580 829 637 c 0,60,61
 829 713 829 713 794 755 c 128,-1,62
 759 797 759 797 698 797 c 256,63,64
 637 797 637 797 591 763.5 c 128,-1,65
 545 730 545 730 514 677 c 128,-1,66
 483 624 483 624 467.5 562.5 c 128,-1,67
 452 501 452 501 452 444 c 0,68,69
 452 371 452 371 482.5 331.5 c 128,-1,70
 513 292 513 292 574 292 c 0,55,56
EndSplineSet
EndChar

StartChar: uni02A3
Encoding: 675 675 580
Width: 2350
GlyphClass: 2
Flags: W
AnchorPoint: "Anchor-1" 597 1304 basechar 0
AnchorPoint: "Anchor-0" 582 0 basechar 0
LayerCount: 2
Fore
SplineSet
1172 0 m 1,0,-1
 1208 222 l 1,1,-1
 1794 806 l 1,2,-1
 1795 812 l 1,3,-1
 1084 812 l 1,4,-1
 1135 1118 l 1,5,-1
 2321 1118 l 1,6,-1
 2282 872 l 1,7,-1
 1744 312 l 1,8,-1
 1741 306 l 1,9,-1
 2203 306 l 1,10,-1
 2154 0 l 1,11,-1
 1172 0 l 1,0,-1
430 -19 m 0,12,13
 258 -19 258 -19 151.5 95.5 c 128,-1,14
 45 210 45 210 45 421 c 0,15,16
 45 546 45 546 80 668 c 128,-1,17
 115 790 115 790 182.5 889 c 128,-1,18
 250 988 250 988 347.5 1047 c 128,-1,19
 445 1106 445 1106 570 1106 c 0,20,21
 652 1106 652 1106 710 1080 c 128,-1,22
 768 1054 768 1054 805 1008.5 c 128,-1,23
 842 963 842 963 861 905 c 1,24,-1
 866 905 l 1,25,-1
 962 1490 l 1,26,-1
 1364 1490 l 1,27,-1
 1117 0 l 1,28,-1
 720 0 l 1,29,-1
 749 169 l 1,30,-1
 742 169 l 1,31,32
 710 105 710 105 663 64 c 128,-1,33
 616 23 616 23 557.5 2 c 128,-1,34
 499 -19 499 -19 430 -19 c 0,12,13
574 292 m 0,35,36
 634 292 634 292 681 324 c 128,-1,37
 728 356 728 356 761 408 c 128,-1,38
 794 460 794 460 811.5 520 c 128,-1,39
 829 580 829 580 829 637 c 0,40,41
 829 713 829 713 794 755 c 128,-1,42
 759 797 759 797 698 797 c 256,43,44
 637 797 637 797 591 763.5 c 128,-1,45
 545 730 545 730 514 677 c 128,-1,46
 483 624 483 624 467.5 562.5 c 128,-1,47
 452 501 452 501 452 444 c 0,48,49
 452 371 452 371 482.5 331.5 c 128,-1,50
 513 292 513 292 574 292 c 0,35,36
EndSplineSet
EndChar

StartChar: dyogh
Encoding: 676 676 582
Width: 2084
GlyphClass: 2
Flags: W
AnchorPoint: "Anchor-1" 597 1304 basechar 0
AnchorPoint: "Anchor-0" 582 0 basechar 0
LayerCount: 2
Fore
SplineSet
1117 -64 m 1,0,1
 1121 -84 1121 -84 1143 -99 c 128,-1,2
 1165 -114 1165 -114 1202.5 -123 c 128,-1,3
 1240 -132 1240 -132 1287 -132 c 0,4,5
 1350 -132 1350 -132 1401 -110 c 128,-1,6
 1452 -88 1452 -88 1485 -48 c 128,-1,7
 1518 -8 1518 -8 1527 45 c 0,8,9
 1534 93 1534 93 1513 129 c 128,-1,10
 1492 165 1492 165 1446.5 184.5 c 128,-1,11
 1401 204 1401 204 1334 204 c 2,12,-1
 1218 204 l 1,13,-1
 1269 510 l 1,14,-1
 1567 752 l 1,15,-1
 1568 757 l 1,16,-1
 1150 757 l 1,17,-1
 1205 1088 l 1,18,-1
 2075 1088 l 1,19,-1
 2027 796 l 1,20,-1
 1560 430 l 1,21,-1
 1559 424 l 1,22,23
 1688 408 1688 408 1768.5 365.5 c 128,-1,24
 1849 323 1849 323 1889.5 264 c 128,-1,25
 1930 205 1930 205 1941 140 c 128,-1,26
 1952 75 1952 75 1941 12 c 0,27,28
 1919 -126 1919 -126 1817.5 -226.5 c 128,-1,29
 1716 -327 1716 -327 1564 -380.5 c 128,-1,30
 1412 -434 1412 -434 1233 -434 c 0,31,32
 1062 -434 1062 -434 945.5 -386 c 128,-1,33
 829 -338 829 -338 770.5 -254 c 128,-1,34
 712 -170 712 -170 714 -64 c 1,35,-1
 1117 -64 l 1,0,1
430 -19 m 0,36,37
 258 -19 258 -19 151.5 95.5 c 128,-1,38
 45 210 45 210 45 421 c 0,39,40
 45 546 45 546 80 668 c 128,-1,41
 115 790 115 790 182.5 889 c 128,-1,42
 250 988 250 988 347.5 1047 c 128,-1,43
 445 1106 445 1106 570 1106 c 0,44,45
 652 1106 652 1106 710 1080 c 128,-1,46
 768 1054 768 1054 805 1008.5 c 128,-1,47
 842 963 842 963 861 905 c 1,48,-1
 866 905 l 1,49,-1
 962 1490 l 1,50,-1
 1364 1490 l 1,51,-1
 1117 0 l 1,52,-1
 720 0 l 1,53,-1
 749 169 l 1,54,-1
 742 169 l 1,55,56
 710 105 710 105 663 64 c 128,-1,57
 616 23 616 23 557.5 2 c 128,-1,58
 499 -19 499 -19 430 -19 c 0,36,37
574 292 m 0,59,60
 634 292 634 292 681 324 c 128,-1,61
 728 356 728 356 761 408 c 128,-1,62
 794 460 794 460 811.5 520 c 128,-1,63
 829 580 829 580 829 637 c 0,64,65
 829 713 829 713 794 755 c 128,-1,66
 759 797 759 797 698 797 c 256,67,68
 637 797 637 797 591 763.5 c 128,-1,69
 545 730 545 730 514 677 c 128,-1,70
 483 624 483 624 467.5 562.5 c 128,-1,71
 452 501 452 501 452 444 c 0,72,73
 452 371 452 371 482.5 331.5 c 128,-1,74
 513 292 513 292 574 292 c 0,59,60
EndSplineSet
EndChar

StartChar: e
Encoding: 101 101 584
Width: 1217
GlyphClass: 2
Flags: W
AnchorPoint: "Anchor-4" 1135 347 basechar 0
AnchorPoint: "Anchor-3" 548 0 basechar 0
AnchorPoint: "Anchor-1" 728 1087 basechar 0
AnchorPoint: "Anchor-0" 551 0 basechar 0
LayerCount: 2
Fore
SplineSet
559 -24 m 0,0,1
 390 -24 390 -24 270 35 c 128,-1,2
 150 94 150 94 91.5 207 c 128,-1,3
 33 320 33 320 48 482 c 0,4,5
 59 616 59 616 110.5 729.5 c 128,-1,6
 162 843 162 843 249.5 927.5 c 128,-1,7
 337 1012 337 1012 454.5 1059 c 128,-1,8
 572 1106 572 1106 714 1106 c 0,9,10
 841 1106 841 1106 946.5 1067 c 128,-1,11
 1052 1028 1052 1028 1114.5 951.5 c 128,-1,12
 1177 875 1177 875 1177 759 c 0,13,14
 1177 640 1177 640 1105.5 572 c 128,-1,15
 1034 504 1034 504 900 473 c 128,-1,16
 766 442 766 442 580 434 c 128,-1,17
 394 426 394 426 162 426 c 1,18,-1
 199 652 l 1,19,20
 398 652 398 652 519.5 656.5 c 128,-1,21
 641 661 641 661 704.5 671 c 128,-1,22
 768 681 768 681 790.5 698.5 c 128,-1,23
 813 716 813 716 813 741 c 0,24,25
 813 781 813 781 777 802.5 c 128,-1,26
 741 824 741 824 673 824 c 0,27,28
 591 824 591 824 545 788 c 128,-1,29
 499 752 499 752 477 696.5 c 128,-1,30
 455 641 455 641 448 580.5 c 128,-1,31
 441 520 441 520 437 471 c 0,32,33
 431 408 431 408 439 359.5 c 128,-1,34
 447 311 447 311 482.5 284 c 128,-1,35
 518 257 518 257 591 257 c 0,36,37
 666 257 666 257 712.5 285 c 128,-1,38
 759 313 759 313 774 361 c 1,39,-1
 1135 347 l 1,40,41
 1082 181 1082 181 934 78.5 c 128,-1,42
 786 -24 786 -24 559 -24 c 0,0,1
EndSplineSet
Substitution2: "'sups' Superscript in Latin lookup 39 subtable" e.sups
Substitution2: "'subs' Subscript in Latin lookup 38 subtable" e.subs
Substitution2: "'sinf' Scientific Inferiors in Latin lookup 18 subtable" e.subs
AlternateSubs2: "'aalt' Access All Alternates in Latin lookup 1 subtable" e.sups e.subs
EndChar

StartChar: uni0247
Encoding: 583 583 586
Width: 1217
GlyphClass: 2
Flags: W
AnchorPoint: "Anchor-4" 1135 347 basechar 0
AnchorPoint: "Anchor-3" 548 0 basechar 0
AnchorPoint: "Anchor-1" 728 1087 basechar 0
AnchorPoint: "Anchor-0" 551 0 basechar 0
LayerCount: 2
Fore
SplineSet
89 -418 m 1,0,-1
 988 1490 l 1,1,-1
 1150 1490 l 1,2,-1
 249 -418 l 1,3,-1
 89 -418 l 1,0,-1
559 -24 m 0,4,5
 390 -24 390 -24 270 35 c 128,-1,6
 150 94 150 94 91.5 207 c 128,-1,7
 33 320 33 320 48 482 c 0,8,9
 59 616 59 616 110.5 729.5 c 128,-1,10
 162 843 162 843 249.5 927.5 c 128,-1,11
 337 1012 337 1012 454.5 1059 c 128,-1,12
 572 1106 572 1106 714 1106 c 0,13,14
 841 1106 841 1106 946.5 1067 c 128,-1,15
 1052 1028 1052 1028 1114.5 951.5 c 128,-1,16
 1177 875 1177 875 1177 759 c 0,17,18
 1177 640 1177 640 1105.5 572 c 128,-1,19
 1034 504 1034 504 900 473 c 128,-1,20
 766 442 766 442 580 434 c 128,-1,21
 394 426 394 426 162 426 c 1,22,-1
 199 652 l 1,23,24
 398 652 398 652 519.5 656.5 c 128,-1,25
 641 661 641 661 704.5 671 c 128,-1,26
 768 681 768 681 790.5 698.5 c 128,-1,27
 813 716 813 716 813 741 c 0,28,29
 813 781 813 781 777 802.5 c 128,-1,30
 741 824 741 824 673 824 c 0,31,32
 591 824 591 824 545 788 c 128,-1,33
 499 752 499 752 477 696.5 c 128,-1,34
 455 641 455 641 448 580.5 c 128,-1,35
 441 520 441 520 437 471 c 0,36,37
 431 408 431 408 439 359.5 c 128,-1,38
 447 311 447 311 482.5 284 c 128,-1,39
 518 257 518 257 591 257 c 0,40,41
 666 257 666 257 712.5 285 c 128,-1,42
 759 313 759 313 774 361 c 1,43,-1
 1135 347 l 1,44,45
 1082 181 1082 181 934 78.5 c 128,-1,46
 786 -24 786 -24 559 -24 c 0,4,5
EndSplineSet
EndChar

StartChar: eturn
Encoding: 477 477 615
Width: 1217
GlyphClass: 2
Flags: W
AnchorPoint: "Anchor-4" 82 740 basechar 0
AnchorPoint: "Anchor-3" 669 1087 basechar 0
AnchorPoint: "Anchor-1" 681 1087 basechar 0
AnchorPoint: "Anchor-0" 506 7 basechar 0
LayerCount: 2
Fore
SplineSet
658 1111 m 0,0,1
 828 1111 828 1111 947.5 1052.5 c 128,-1,2
 1067 994 1067 994 1125.5 881 c 128,-1,3
 1184 768 1184 768 1169 605 c 0,4,5
 1158 472 1158 472 1106.5 358.5 c 128,-1,6
 1055 245 1055 245 967.5 160.5 c 128,-1,7
 880 76 880 76 762.5 28.5 c 128,-1,8
 645 -19 645 -19 503 -19 c 0,9,10
 375 -19 375 -19 270 20 c 128,-1,11
 165 59 165 59 102.5 137 c 128,-1,12
 40 215 40 215 40 328 c 0,13,14
 40 447 40 447 111.5 515 c 128,-1,15
 183 583 183 583 317 614.5 c 128,-1,16
 451 646 451 646 637 654 c 128,-1,17
 823 662 823 662 1055 662 c 1,18,-1
 1018 436 l 1,19,20
 819 436 819 436 697.5 431.5 c 128,-1,21
 576 427 576 427 512.5 416.5 c 128,-1,22
 449 406 449 406 426.5 389 c 128,-1,23
 404 372 404 372 404 346 c 0,24,25
 404 308 404 308 440.5 285.5 c 128,-1,26
 477 263 477 263 544 263 c 0,27,28
 626 263 626 263 672 299 c 128,-1,29
 718 335 718 335 740 391 c 128,-1,30
 762 447 762 447 769.5 507.5 c 128,-1,31
 777 568 777 568 780 617 c 0,32,33
 786 681 786 681 778 729 c 128,-1,34
 770 777 770 777 735 803.5 c 128,-1,35
 700 830 700 830 626 830 c 0,36,37
 551 830 551 830 505 802.5 c 128,-1,38
 459 775 459 775 443 728 c 1,39,-1
 82 740 l 1,40,41
 136 907 136 907 283.5 1009 c 128,-1,42
 431 1111 431 1111 658 1111 c 0,0,1
EndSplineSet
EndChar

StartChar: _part.f_base
Encoding: 1114123 -1 616
Width: 835
GlyphClass: 2
Flags: W
AnchorPoint: "Anchor-1" 658 1515 basechar 0
LayerCount: 2
Fore
SplineSet
-7 -437 m 0,0,1
 -46 -437 -46 -437 -85.5 -436.5 c 128,-1,2
 -125 -436 -125 -436 -158.5 -434 c 128,-1,3
 -192 -432 -192 -432 -215 -429 c 1,4,-1
 -150 -130 l 1,5,6
 -132 -131 -132 -131 -105 -133 c 128,-1,7
 -78 -135 -78 -135 -54 -135 c 0,8,9
 8 -135 8 -135 40.5 -105.5 c 128,-1,10
 73 -76 73 -76 84 -10 c 2,11,-1
 272 1121 l 2,12,13
 294 1256 294 1256 356 1345 c 128,-1,14
 418 1434 418 1434 521.5 1479 c 128,-1,15
 625 1524 625 1524 768 1524 c 0,16,17
 831 1524 831 1524 885 1522 c 128,-1,18
 939 1520 939 1520 978 1513 c 1,19,-1
 903 1217 l 1,20,21
 884 1219 884 1219 856.5 1220 c 128,-1,22
 829 1221 829 1221 796 1221 c 0,23,24
 739 1221 739 1221 710 1196 c 128,-1,25
 681 1171 681 1171 671 1115 c 2,26,-1
 482 -29 l 2,27,28
 460 -165 460 -165 398.5 -255 c 128,-1,29
 337 -345 337 -345 235.5 -391 c 128,-1,30
 134 -437 134 -437 -7 -437 c 0,0,1
EndSplineSet
EndChar

StartChar: f
Encoding: 102 102 617
Width: 881
GlyphClass: 2
Flags: W
AnchorPoint: "Anchor-1" 689 1515 basechar 0
AnchorPoint: "Anchor-0" 316 0 basechar 0
LayerCount: 2
Fore
SplineSet
921 1087 m 1,0,-1
 871 789 l 1,1,-1
 61 789 l 1,2,-1
 111 1087 l 1,3,-1
 921 1087 l 1,0,-1
24 -437 m 0,4,5
 -15 -437 -15 -437 -54.5 -436.5 c 128,-1,6
 -94 -436 -94 -436 -128 -434 c 128,-1,7
 -162 -432 -162 -432 -184 -429 c 1,8,-1
 -120 -130 l 1,9,10
 -100 -131 -100 -131 -73 -133 c 128,-1,11
 -46 -135 -46 -135 -23 -135 c 0,12,13
 39 -135 39 -135 72 -105.5 c 128,-1,14
 105 -76 105 -76 116 -10 c 2,15,-1
 302 1121 l 2,16,17
 325 1256 325 1256 387.5 1345 c 128,-1,18
 450 1434 450 1434 552.5 1479 c 128,-1,19
 655 1524 655 1524 799 1524 c 0,20,21
 861 1524 861 1524 916 1522 c 128,-1,22
 971 1520 971 1520 1008 1513 c 1,23,-1
 935 1217 l 1,24,25
 914 1219 914 1219 887 1220 c 128,-1,26
 860 1221 860 1221 827 1221 c 0,27,28
 770 1221 770 1221 741 1196 c 128,-1,29
 712 1171 712 1171 703 1115 c 2,30,-1
 513 -29 l 2,31,32
 491 -165 491 -165 429 -255 c 128,-1,33
 367 -345 367 -345 266 -391 c 128,-1,34
 165 -437 165 -437 24 -437 c 0,4,5
EndSplineSet
Substitution2: "'cv12' Character Variants 12 in Latin lookup 65 subtable" f.1
Substitution2: "'salt' Stylistic Alternatives in Latin lookup 46 subtable" f.1
Substitution2: "'sups' Superscript in Latin lookup 39 subtable" f.sups
Substitution2: "'subs' Subscript in Latin lookup 38 subtable" f.subs
Substitution2: "Single Substitution lookup 36 subtable" f.1
Substitution2: "Single Substitution lookup 35 subtable" f.i.1
Substitution2: "Single Substitution lookup 34 subtable" f.i
Substitution2: "'sinf' Scientific Inferiors in Latin lookup 18 subtable" f.subs
AlternateSubs2: "'aalt' Access All Alternates in Latin lookup 1 subtable" f.sups f.subs
EndChar

StartChar: f.1
Encoding: 60941 60941 618
Width: 768
GlyphClass: 2
Flags: W
AnchorPoint: "Anchor-1" 576 1515 basechar 0
AnchorPoint: "Anchor-0" 203 0 basechar 0
LayerCount: 2
Fore
SplineSet
808 1087 m 1,0,-1
 759 789 l 1,1,-1
 332 789 l 1,2,-1
 382 1087 l 1,3,-1
 808 1087 l 1,0,-1
-88 -437 m 0,4,5
 -128 -437 -128 -437 -167 -436.5 c 128,-1,6
 -206 -436 -206 -436 -240 -434 c 128,-1,7
 -274 -432 -274 -432 -297 -429 c 1,8,-1
 -232 -130 l 1,9,10
 -213 -131 -213 -131 -186 -133 c 128,-1,11
 -159 -135 -159 -135 -135 -135 c 0,12,13
 -73 -135 -73 -135 -40.5 -105.5 c 128,-1,14
 -8 -76 -8 -76 3 -10 c 2,15,-1
 190 1121 l 2,16,17
 213 1256 213 1256 275 1345 c 128,-1,18
 337 1434 337 1434 440 1479 c 128,-1,19
 543 1524 543 1524 687 1524 c 0,20,21
 749 1524 749 1524 803.5 1522 c 128,-1,22
 858 1520 858 1520 896 1513 c 1,23,-1
 822 1217 l 1,24,25
 802 1219 802 1219 775 1220 c 128,-1,26
 748 1221 748 1221 714 1221 c 0,27,28
 658 1221 658 1221 629 1196 c 128,-1,29
 600 1171 600 1171 590 1115 c 2,30,-1
 400 -29 l 2,31,32
 379 -165 379 -165 317 -255 c 128,-1,33
 255 -345 255 -345 154 -391 c 128,-1,34
 53 -437 53 -437 -88 -437 c 0,4,5
EndSplineSet
EndChar

StartChar: f.i
Encoding: 60942 60942 619
Width: 772
GlyphClass: 2
Flags: W
AnchorPoint: "Anchor-1" 662 1515 basechar 0
AnchorPoint: "Anchor-0" 289 0 basechar 0
LayerCount: 2
Fore
SplineSet
-4 -437 m 0,0,1
 -42 -437 -42 -437 -82 -436.5 c 128,-1,2
 -122 -436 -122 -436 -155.5 -434 c 128,-1,3
 -189 -432 -189 -432 -211 -429 c 1,4,-1
 -147 -130 l 1,5,6
 -128 -131 -128 -131 -101 -133 c 128,-1,7
 -74 -135 -74 -135 -51 -135 c 0,8,9
 11 -135 11 -135 44 -105.5 c 128,-1,10
 77 -76 77 -76 88 -10 c 2,11,-1
 275 1121 l 2,12,13
 297 1256 297 1256 359.5 1345 c 128,-1,14
 422 1434 422 1434 525 1479 c 128,-1,15
 628 1524 628 1524 771 1524 c 0,16,17
 807 1524 807 1524 839.5 1524 c 128,-1,18
 872 1524 872 1524 904 1522 c 1,19,-1
 855 1221 l 1,20,21
 839 1222 839 1222 823.5 1221.5 c 128,-1,22
 808 1221 808 1221 792 1221 c 0,23,24
 738 1221 738 1221 711.5 1199.5 c 128,-1,25
 685 1178 685 1178 677 1129 c 2,26,-1
 486 -29 l 2,27,28
 463 -165 463 -165 401.5 -255 c 128,-1,29
 340 -345 340 -345 238.5 -391 c 128,-1,30
 137 -437 137 -437 -4 -437 c 0,0,1
69 790 m 1,31,-1
 118 1087 l 1,32,-1
 1192 1087 l 1,33,-1
 1143 790 l 1,34,-1
 69 790 l 1,31,-1
EndSplineSet
Substitution2: "Single Substitution lookup 35 subtable" f.i.1
EndChar

StartChar: f.i.1
Encoding: 60943 60943 620
Width: 688
GlyphClass: 2
Flags: W
AnchorPoint: "Anchor-1" 576 1515 basechar 0
AnchorPoint: "Anchor-0" 203 0 basechar 0
LayerCount: 2
Fore
SplineSet
-88 -437 m 0,0,1
 -128 -437 -128 -437 -167 -436.5 c 128,-1,2
 -206 -436 -206 -436 -240 -434 c 128,-1,3
 -274 -432 -274 -432 -297 -429 c 1,4,-1
 -232 -130 l 1,5,6
 -213 -131 -213 -131 -186 -133 c 128,-1,7
 -159 -135 -159 -135 -135 -135 c 0,8,9
 -73 -135 -73 -135 -40.5 -105.5 c 128,-1,10
 -8 -76 -8 -76 3 -10 c 2,11,-1
 190 1121 l 2,12,13
 213 1256 213 1256 275 1345 c 128,-1,14
 337 1434 337 1434 440 1479 c 128,-1,15
 543 1524 543 1524 687 1524 c 0,16,17
 721 1524 721 1524 753.5 1524 c 128,-1,18
 786 1524 786 1524 819 1522 c 1,19,-1
 769 1221 l 1,20,21
 753 1222 753 1222 737.5 1221.5 c 128,-1,22
 722 1221 722 1221 706 1221 c 0,23,24
 653 1221 653 1221 627 1199.5 c 128,-1,25
 601 1178 601 1178 592 1129 c 2,26,-1
 400 -29 l 2,27,28
 379 -165 379 -165 317 -255 c 128,-1,29
 255 -345 255 -345 153.5 -391 c 128,-1,30
 52 -437 52 -437 -88 -437 c 0,0,1
329 790 m 1,31,-1
 379 1087 l 1,32,-1
 1107 1087 l 1,33,-1
 1058 790 l 1,34,-1
 329 790 l 1,31,-1
EndSplineSet
EndChar

StartChar: g
Encoding: 103 103 628
Width: 1303
GlyphClass: 2
Flags: W
AnchorPoint: "Anchor-1" 725 1087 basechar 0
AnchorPoint: "Anchor-0" 476 -416 basechar 0
LayerCount: 2
Fore
SplineSet
493 -437 m 0,0,1
 323 -437 323 -437 213 -392 c 128,-1,2
 103 -347 103 -347 49 -269.5 c 128,-1,3
 -5 -192 -5 -192 -5 -93 c 1,4,-1
 357 -80 l 1,5,6
 359 -108 359 -108 375 -126.5 c 128,-1,7
 391 -145 391 -145 421.5 -154.5 c 128,-1,8
 452 -164 452 -164 495 -164 c 0,9,10
 594 -164 594 -164 653 -112.5 c 128,-1,11
 712 -61 712 -61 727 31 c 2,12,-1
 755 194 l 1,13,-1
 736 194 l 1,14,15
 703 135 703 135 659 95 c 128,-1,16
 615 55 615 55 560 35 c 128,-1,17
 505 15 505 15 435 15 c 0,18,19
 320 15 320 15 232.5 64.5 c 128,-1,20
 145 114 145 114 96 208.5 c 128,-1,21
 47 303 47 303 47 438 c 0,22,23
 47 562 47 562 83.5 681 c 128,-1,24
 120 800 120 800 188 896 c 128,-1,25
 256 992 256 992 353 1049 c 128,-1,26
 450 1106 450 1106 572 1106 c 0,27,28
 632 1106 632 1106 680.5 1090.5 c 128,-1,29
 729 1075 729 1075 766 1047.5 c 128,-1,30
 803 1020 803 1020 828 984 c 128,-1,31
 853 948 853 948 866 907 c 1,32,-1
 871 907 l 1,33,-1
 901 1087 l 1,34,-1
 1299 1087 l 1,35,-1
 1126 47 l 2,36,37
 1099 -120 1099 -120 1015 -227 c 128,-1,38
 931 -334 931 -334 798 -385.5 c 128,-1,39
 665 -437 665 -437 493 -437 c 0,0,1
576 312 m 0,40,41
 637 312 637 312 684 342.5 c 128,-1,42
 731 373 731 373 763.5 422.5 c 128,-1,43
 796 472 796 472 812.5 530.5 c 128,-1,44
 829 589 829 589 829 645 c 0,45,46
 829 720 829 720 795 760.5 c 128,-1,47
 761 801 761 801 698 801 c 0,48,49
 639 801 639 801 593 769 c 128,-1,50
 547 737 547 737 516 685.5 c 128,-1,51
 485 634 485 634 469.5 574 c 128,-1,52
 454 514 454 514 454 459 c 0,53,54
 454 387 454 387 485 349.5 c 128,-1,55
 516 312 516 312 576 312 c 0,40,41
EndSplineSet
Substitution2: "'smcp' Lowercase to Small Capitals in Latin lookup 68 subtable" g.sc
Substitution2: "'sups' Superscript in Latin lookup 39 subtable" g.sups
Substitution2: "'subs' Subscript in Latin lookup 38 subtable" g.subs
Substitution2: "'sinf' Scientific Inferiors in Latin lookup 18 subtable" g.subs
AlternateSubs2: "'aalt' Access All Alternates in Latin lookup 1 subtable" g.sc g.sups g.subs
EndChar

StartChar: uni0260
Encoding: 608 608 629
Width: 1303
GlyphClass: 2
Flags: W
AnchorPoint: "Anchor-1" 725 1087 basechar 0
AnchorPoint: "Anchor-0" 476 -416 basechar 0
LayerCount: 2
Fore
SplineSet
861 865 m 1,0,-1
 898 1087 l 1,1,-1
 904 1124 l 2,2,3
 936 1311 936 1311 1053.5 1404 c 128,-1,4
 1171 1497 1171 1497 1382 1497 c 0,5,6
 1443 1497 1443 1497 1496 1494.5 c 128,-1,7
 1549 1492 1549 1492 1587 1486 c 1,8,-1
 1538 1192 l 1,9,10
 1515 1194 1515 1194 1483 1195 c 128,-1,11
 1451 1196 1451 1196 1414 1196 c 0,12,13
 1363 1196 1363 1196 1337 1176.5 c 128,-1,14
 1311 1157 1311 1157 1303 1113 c 2,15,-1
 1299 1087 l 1,16,-1
 1262 865 l 1,17,-1
 861 865 l 1,0,-1
493 -437 m 0,18,19
 323 -437 323 -437 213 -392 c 128,-1,20
 103 -347 103 -347 49 -269.5 c 128,-1,21
 -5 -192 -5 -192 -5 -93 c 1,22,-1
 357 -80 l 1,23,24
 359 -108 359 -108 375 -126.5 c 128,-1,25
 391 -145 391 -145 421.5 -154.5 c 128,-1,26
 452 -164 452 -164 495 -164 c 0,27,28
 594 -164 594 -164 653 -112.5 c 128,-1,29
 712 -61 712 -61 727 31 c 2,30,-1
 755 194 l 1,31,-1
 736 194 l 1,32,33
 703 135 703 135 659 95 c 128,-1,34
 615 55 615 55 560 35 c 128,-1,35
 505 15 505 15 435 15 c 0,36,37
 320 15 320 15 232.5 64.5 c 128,-1,38
 145 114 145 114 96 208.5 c 128,-1,39
 47 303 47 303 47 438 c 0,40,41
 47 562 47 562 83.5 681 c 128,-1,42
 120 800 120 800 188 896 c 128,-1,43
 256 992 256 992 353 1049 c 128,-1,44
 450 1106 450 1106 572 1106 c 0,45,46
 632 1106 632 1106 680.5 1090.5 c 128,-1,47
 729 1075 729 1075 766 1047.5 c 128,-1,48
 803 1020 803 1020 828 984 c 128,-1,49
 853 948 853 948 866 907 c 1,50,-1
 871 907 l 1,51,-1
 901 1087 l 1,52,-1
 1299 1087 l 1,53,-1
 1126 47 l 2,54,55
 1099 -120 1099 -120 1015 -227 c 128,-1,56
 931 -334 931 -334 798 -385.5 c 128,-1,57
 665 -437 665 -437 493 -437 c 0,18,19
576 312 m 0,58,59
 637 312 637 312 684 342.5 c 128,-1,60
 731 373 731 373 763.5 422.5 c 128,-1,61
 796 472 796 472 812.5 530.5 c 128,-1,62
 829 589 829 589 829 645 c 0,63,64
 829 720 829 720 795 760.5 c 128,-1,65
 761 801 761 801 698 801 c 0,66,67
 639 801 639 801 593 769 c 128,-1,68
 547 737 547 737 516 685.5 c 128,-1,69
 485 634 485 634 469.5 574 c 128,-1,70
 454 514 454 514 454 459 c 0,71,72
 454 387 454 387 485 349.5 c 128,-1,73
 516 312 516 312 576 312 c 0,58,59
EndSplineSet
Substitution2: "'smcp' Lowercase to Small Capitals in Latin lookup 68 subtable" uni0260.sc
Substitution2: "'c2sc' Capitals to Small Capitals in Latin lookup 67 subtable" uni0260.sc
Substitution2: "'aalt' Access All Alternates in Latin lookup 0 subtable" uni0260.sc
EndChar

StartChar: g.sc
Encoding: 610 610 638
Width: 1163
GlyphClass: 2
Flags: W
AnchorPoint: "Anchor-1" 694 1087 basechar 0
AnchorPoint: "Anchor-0" 512 0 basechar 0
LayerCount: 2
Fore
SplineSet
540 -15 m 0,0,1
 388 -15 388 -15 277.5 40 c 128,-1,2
 167 95 167 95 107 198 c 128,-1,3
 47 301 47 301 47 444 c 0,4,5
 47 584 47 584 94 704 c 128,-1,6
 141 824 141 824 226 913.5 c 128,-1,7
 311 1003 311 1003 428 1053 c 128,-1,8
 545 1103 545 1103 685 1103 c 0,9,10
 812 1103 812 1103 921.5 1059.5 c 128,-1,11
 1031 1016 1031 1016 1095 929 c 128,-1,12
 1159 842 1159 842 1147 714 c 1,13,-1
 756 714 l 1,14,15
 755 738 755 738 746 750 c 128,-1,16
 737 762 737 762 720.5 766 c 128,-1,17
 704 770 704 770 680 770 c 0,18,19
 615 770 615 770 569 741 c 128,-1,20
 523 712 523 712 494.5 663.5 c 128,-1,21
 466 615 466 615 453 558 c 128,-1,22
 440 501 440 501 440 446 c 0,23,24
 440 382 440 382 468 349.5 c 128,-1,25
 496 317 496 317 565 317 c 0,26,27
 620 317 620 317 656 328 c 128,-1,28
 692 339 692 339 711.5 357 c 128,-1,29
 731 375 731 375 733 394 c 1,30,-1
 795 376 l 1,31,-1
 587 376 l 1,32,-1
 631 644 l 1,33,-1
 1148 644 l 1,34,-1
 1116 450 l 2,35,36
 1091 300 1091 300 1010.5 196 c 128,-1,37
 930 92 930 92 809 38.5 c 128,-1,38
 688 -15 688 -15 540 -15 c 0,0,1
EndSplineSet
EndChar

StartChar: uni0260.sc
Encoding: 60947 60947 639
Width: 1308
GlyphClass: 2
Flags: W
AnchorPoint: "Anchor-1" 694 1087 basechar 0
AnchorPoint: "Anchor-0" 512 0 basechar 0
LayerCount: 2
Fore
SplineSet
903 714 m 1,0,-1
 907 888 l 2,1,2
 910 1007 910 1007 940 1091.5 c 128,-1,3
 970 1176 970 1176 1040 1221.5 c 128,-1,4
 1110 1267 1110 1267 1229 1267 c 0,5,6
 1275 1267 1275 1267 1317 1264 c 128,-1,7
 1359 1261 1359 1261 1398 1255 c 1,8,-1
 1350 962 l 1,9,10
 1327 964 1327 964 1305 965 c 128,-1,11
 1283 966 1283 966 1261 966 c 0,12,13
 1210 966 1210 966 1187 936 c 128,-1,14
 1164 906 1164 906 1162 834 c 1,15,-1
 1146 714 l 1,16,-1
 903 714 l 1,0,-1
540 -15 m 0,17,18
 388 -15 388 -15 277.5 40 c 128,-1,19
 167 95 167 95 107 198 c 128,-1,20
 47 301 47 301 47 444 c 0,21,22
 47 584 47 584 94 704 c 128,-1,23
 141 824 141 824 226 913.5 c 128,-1,24
 311 1003 311 1003 428 1053 c 128,-1,25
 545 1103 545 1103 685 1103 c 0,26,27
 812 1103 812 1103 921.5 1059.5 c 128,-1,28
 1031 1016 1031 1016 1095 929 c 128,-1,29
 1159 842 1159 842 1147 714 c 1,30,-1
 756 714 l 1,31,32
 755 738 755 738 746 750 c 128,-1,33
 737 762 737 762 720.5 766 c 128,-1,34
 704 770 704 770 680 770 c 0,35,36
 615 770 615 770 569 741 c 128,-1,37
 523 712 523 712 494.5 663.5 c 128,-1,38
 466 615 466 615 453 558 c 128,-1,39
 440 501 440 501 440 446 c 0,40,41
 440 382 440 382 468 349.5 c 128,-1,42
 496 317 496 317 565 317 c 0,43,44
 620 317 620 317 656 328 c 128,-1,45
 692 339 692 339 711.5 357 c 128,-1,46
 731 375 731 375 733 394 c 1,47,-1
 795 376 l 1,48,-1
 587 376 l 1,49,-1
 631 644 l 1,50,-1
 1148 644 l 1,51,-1
 1116 450 l 2,52,53
 1091 300 1091 300 1010.5 196 c 128,-1,54
 930 92 930 92 809 38.5 c 128,-1,55
 688 -15 688 -15 540 -15 c 0,17,18
EndSplineSet
EndChar

StartChar: h
Encoding: 104 104 640
Width: 1298
GlyphClass: 2
Flags: W
AnchorPoint: "Anchor-3" 209 0 basechar 0
AnchorPoint: "Anchor-1" 448 1490 basechar 0
AnchorPoint: "Anchor-0" 559 0 basechar 0
LayerCount: 2
Fore
SplineSet
504 594 m 2,0,-1
 405 0 l 1,1,-1
 4 0 l 1,2,-1
 251 1490 l 1,3,-1
 647 1490 l 1,4,-1
 533 799 l 1,5,-1
 495 799 l 1,6,7
 539 888 539 888 595 957 c 128,-1,8
 651 1026 651 1026 727.5 1066 c 128,-1,9
 804 1106 804 1106 909 1106 c 0,10,11
 1027 1106 1027 1106 1105.5 1054 c 128,-1,12
 1184 1002 1184 1002 1216.5 908 c 128,-1,13
 1249 814 1249 814 1228 689 c 2,14,-1
 1115 0 l 1,15,-1
 713 0 l 1,16,-1
 813 603 l 2,17,18
 826 684 826 684 794 729 c 128,-1,19
 762 774 762 774 688 774 c 0,20,21
 640 774 640 774 602 753.5 c 128,-1,22
 564 733 564 733 539 693 c 128,-1,23
 514 653 514 653 504 594 c 2,0,-1
EndSplineSet
Substitution2: "'smcp' Lowercase to Small Capitals in Latin lookup 68 subtable" h.sc
Substitution2: "'sups' Superscript in Latin lookup 39 subtable" h.sups
Substitution2: "'subs' Subscript in Latin lookup 38 subtable" h.subs
Substitution2: "'sinf' Scientific Inferiors in Latin lookup 18 subtable" h.subs
AlternateSubs2: "'aalt' Access All Alternates in Latin lookup 1 subtable" h.sups h.subs h.sc
EndChar

StartChar: uni0452
Encoding: 1106 1106 643
Width: 1298
GlyphClass: 2
Flags: W
AnchorPoint: "Anchor-3" 209 0 basechar 0
AnchorPoint: "Anchor-1" 448 1490 basechar 0
AnchorPoint: "Anchor-0" 559 0 basechar 0
LayerCount: 2
Fore
SplineSet
634 -429 m 0,0,1
 573 -429 573 -429 518 -426 c 128,-1,2
 463 -423 463 -423 425 -417 c 1,3,-1
 474 -124 l 1,4,5
 498 -126 498 -126 529.5 -127 c 128,-1,6
 561 -128 561 -128 599 -128 c 0,7,8
 649 -128 649 -128 674 -108.5 c 128,-1,9
 699 -89 699 -89 706 -44 c 2,10,-1
 713 0 l 1,11,-1
 1115 0 l 1,12,-1
 1105 -55 l 2,13,14
 1074 -242 1074 -242 959.5 -335.5 c 128,-1,15
 845 -429 845 -429 634 -429 c 0,0,1
504 594 m 2,16,-1
 405 0 l 1,17,-1
 4 0 l 1,18,-1
 251 1490 l 1,19,-1
 647 1490 l 1,20,-1
 533 799 l 1,21,-1
 495 799 l 1,22,23
 539 888 539 888 595 957 c 128,-1,24
 651 1026 651 1026 727.5 1066 c 128,-1,25
 804 1106 804 1106 909 1106 c 0,26,27
 1027 1106 1027 1106 1105.5 1054 c 128,-1,28
 1184 1002 1184 1002 1216.5 908 c 128,-1,29
 1249 814 1249 814 1228 689 c 2,30,-1
 1115 0 l 1,31,-1
 713 0 l 1,32,-1
 813 603 l 2,33,34
 826 684 826 684 794 729 c 128,-1,35
 762 774 762 774 688 774 c 0,36,37
 640 774 640 774 602 753.5 c 128,-1,38
 564 733 564 733 539 693 c 128,-1,39
 514 653 514 653 504 594 c 2,16,-1
68 1175 m 1,40,-1
 104 1391 l 1,41,-1
 926 1391 l 1,42,-1
 890 1175 l 1,43,-1
 68 1175 l 1,40,-1
EndSplineSet
EndChar

StartChar: uni0266
Encoding: 614 614 644
Width: 1299
GlyphClass: 2
Flags: W
AnchorPoint: "Anchor-1" 739 1087 basechar 0
AnchorPoint: "Anchor-0" 559 0 basechar 0
LayerCount: 2
Fore
SplineSet
148 865 m 1,0,-1
 185 1087 l 1,1,-1
 190 1124 l 1,2,3
 222 1311 222 1311 340 1404 c 128,-1,4
 458 1497 458 1497 669 1497 c 0,5,6
 730 1497 730 1497 783 1494.5 c 128,-1,7
 836 1492 836 1492 874 1486 c 1,8,-1
 825 1192 l 1,9,10
 802 1194 802 1194 769.5 1195 c 128,-1,11
 737 1196 737 1196 700 1196 c 0,12,13
 650 1196 650 1196 623.5 1176.5 c 128,-1,14
 597 1157 597 1157 590 1113 c 2,15,-1
 585 1087 l 1,16,-1
 549 865 l 1,17,-1
 148 865 l 1,0,-1
501 581 m 2,18,-1
 405 0 l 1,19,-1
 4 0 l 1,20,-1
 184 1087 l 1,21,-1
 570 1087 l 1,22,-1
 529 799 l 1,23,-1
 493 811 l 1,24,25
 559 944 559 944 657 1025 c 128,-1,26
 755 1106 755 1106 904 1106 c 0,27,28
 1028 1106 1028 1106 1106.5 1050.5 c 128,-1,29
 1185 995 1185 995 1216.5 898 c 128,-1,30
 1248 801 1248 801 1227 676 c 2,31,-1
 1115 0 l 1,32,-1
 713 0 l 1,33,-1
 815 616 l 2,34,35
 829 697 829 697 793.5 735.5 c 128,-1,36
 758 774 758 774 693 774 c 0,37,38
 639 774 639 774 599.5 750 c 128,-1,39
 560 726 560 726 535.5 683 c 128,-1,40
 511 640 511 640 501 581 c 2,18,-1
EndSplineSet
EndChar

StartChar: uni0267
Encoding: 615 615 645
Width: 1299
GlyphClass: 2
Flags: W
AnchorPoint: "Anchor-1" 739 1087 basechar 0
AnchorPoint: "Anchor-0" 559 0 basechar 0
LayerCount: 2
Fore
SplineSet
634 -429 m 0,0,1
 573 -429 573 -429 518 -426 c 128,-1,2
 463 -423 463 -423 425 -417 c 1,3,-1
 474 -124 l 1,4,5
 498 -126 498 -126 529.5 -127 c 128,-1,6
 561 -128 561 -128 599 -128 c 0,7,8
 649 -128 649 -128 674 -108.5 c 128,-1,9
 699 -89 699 -89 706 -44 c 2,10,-1
 713 0 l 1,11,-1
 1115 0 l 1,12,-1
 1105 -55 l 2,13,14
 1074 -242 1074 -242 959.5 -335.5 c 128,-1,15
 845 -429 845 -429 634 -429 c 0,0,1
501 581 m 2,16,-1
 405 0 l 1,17,-1
 4 0 l 1,18,-1
 184 1087 l 1,19,-1
 570 1087 l 1,20,-1
 529 799 l 1,21,-1
 493 811 l 1,22,23
 559 944 559 944 657 1025 c 128,-1,24
 755 1106 755 1106 904 1106 c 0,25,26
 1028 1106 1028 1106 1106.5 1050.5 c 128,-1,27
 1185 995 1185 995 1216.5 898 c 128,-1,28
 1248 801 1248 801 1227 676 c 2,29,-1
 1115 0 l 1,30,-1
 713 0 l 1,31,-1
 815 616 l 2,32,33
 829 697 829 697 793.5 735.5 c 128,-1,34
 758 774 758 774 693 774 c 0,35,36
 639 774 639 774 599.5 750 c 128,-1,37
 560 726 560 726 535.5 683 c 128,-1,38
 511 640 511 640 501 581 c 2,16,-1
148 865 m 1,39,-1
 185 1087 l 1,40,-1
 190 1124 l 1,41,42
 222 1311 222 1311 340 1404 c 128,-1,43
 458 1497 458 1497 669 1497 c 0,44,45
 730 1497 730 1497 783 1494.5 c 128,-1,46
 836 1492 836 1492 874 1486 c 1,47,-1
 825 1192 l 1,48,49
 802 1194 802 1194 769.5 1195 c 128,-1,50
 737 1196 737 1196 700 1196 c 0,51,52
 650 1196 650 1196 623.5 1176.5 c 128,-1,53
 597 1157 597 1157 590 1113 c 2,54,-1
 585 1087 l 1,55,-1
 549 865 l 1,56,-1
 148 865 l 1,39,-1
EndSplineSet
EndChar

StartChar: uni0195
Encoding: 405 405 646
Width: 2048
Flags: W
LayerCount: 2
Fore
SplineSet
5 0 m 1,0,-1
 251 1490 l 1,1,-1
 638 1490 l 1,2,-1
 542 904 l 1,3,-1
 554 904 l 1,4,5
 609 1012 609 1012 706.5 1072 c 128,-1,6
 804 1132 804 1132 929 1132 c 0,7,8
 1047 1132 1047 1132 1125 1078.5 c 128,-1,9
 1203 1025 1203 1025 1236 930.5 c 128,-1,10
 1269 836 1269 836 1248 712 c 2,11,-1
 1223 558 l 1,12,-1
 822 558 l 1,13,-1
 833 629 l 2,14,15
 846 711 846 711 813 759 c 128,-1,16
 780 807 780 807 702 806 c 0,17,18
 654 806 654 806 614 785 c 128,-1,19
 574 764 574 764 547 724 c 128,-1,20
 520 684 520 684 511 628 c 2,21,-1
 407 0 l 1,22,-1
 5 0 l 1,0,-1
1229 -20 m 0,23,24
 1060 -20 1060 -20 957.5 37 c 128,-1,25
 855 94 855 94 817 195.5 c 128,-1,26
 779 297 779 297 801 431 c 2,27,-1
 822 558 l 1,28,-1
 1223 558 l 1,29,-1
 1203 431 l 2,30,31
 1195 393 1195 393 1204.5 364.5 c 128,-1,32
 1214 336 1214 336 1237.5 321.5 c 128,-1,33
 1261 307 1261 307 1296 306 c 0,34,35
 1379 307 1379 307 1440 392 c 128,-1,36
 1501 477 1501 477 1547.5 635.5 c 128,-1,37
 1594 794 1594 794 1631 1012 c 2,38,-1
 1649 1118 l 1,39,-1
 2049 1118 l 1,40,-1
 2032 1012 l 2,41,42
 1976 676 1976 676 1878.5 446 c 128,-1,43
 1781 216 1781 216 1623 98 c 128,-1,44
 1465 -20 1465 -20 1229 -20 c 0,23,24
EndSplineSet
EndChar

StartChar: hturn
Encoding: 613 613 647
Width: 1298
GlyphClass: 2
Flags: W
AnchorPoint: "Anchor-3" 1091 1087 basechar 0
AnchorPoint: "Anchor-1" 736 1087 basechar 0
AnchorPoint: "Anchor-0" 740 1087 basechar 0
LayerCount: 2
Fore
SplineSet
795 493 m 2,0,-1
 893 1087 l 1,1,-1
 1294 1087 l 1,2,-1
 1047 -403 l 1,3,-1
 651 -403 l 1,4,-1
 766 289 l 1,5,-1
 804 289 l 1,6,7
 761 201 761 201 704.5 131.5 c 128,-1,8
 648 62 648 62 571.5 21.5 c 128,-1,9
 495 -19 495 -19 391 -19 c 0,10,11
 273 -19 273 -19 194 33.5 c 128,-1,12
 115 86 115 86 82.5 180 c 128,-1,13
 50 274 50 274 70 398 c 2,14,-1
 185 1087 l 1,15,-1
 585 1087 l 1,16,-1
 486 486 l 2,17,18
 473 404 473 404 505.5 358.5 c 128,-1,19
 538 313 538 313 611 313 c 0,20,21
 659 313 659 313 697 334 c 128,-1,22
 735 355 735 355 760 395 c 128,-1,23
 785 435 785 435 795 493 c 2,0,-1
EndSplineSet
EndChar

StartChar: hturnlthook
Encoding: 686 686 648
Width: 1468
Flags: W
LayerCount: 2
Fore
SplineSet
818 -418 m 1,0,-1
 934 289 l 1,1,-1
 973 289 l 1,2,3
 908 156 908 156 804 68.5 c 128,-1,4
 700 -19 700 -19 543 -19 c 0,5,6
 426 -19 426 -19 351 33.5 c 128,-1,7
 276 86 276 86 247.5 180 c 128,-1,8
 219 274 219 274 239 398 c 2,9,-1
 291 713 l 2,10,11
 299 758 299 758 266.5 775 c 128,-1,12
 234 792 234 792 185 792 c 0,13,14
 170 792 170 792 147 791.5 c 128,-1,15
 124 791 124 791 100.5 790.5 c 128,-1,16
 77 790 77 790 61 789 c 1,17,-1
 111 1088 l 1,18,19
 154 1091 154 1091 208 1092.5 c 128,-1,20
 262 1094 262 1094 323 1094 c 0,21,22
 419 1094 419 1094 495 1076 c 128,-1,23
 571 1058 571 1058 622 1017.5 c 128,-1,24
 673 977 673 977 693 908.5 c 128,-1,25
 713 840 713 840 696 739 c 2,26,-1
 654 486 l 2,27,28
 641 405 641 405 674 359 c 128,-1,29
 707 313 707 313 780 313 c 0,30,31
 828 313 828 313 866 334 c 128,-1,32
 904 355 904 355 929 395 c 128,-1,33
 954 435 954 435 964 493 c 2,34,-1
 1062 1087 l 1,35,-1
 1463 1087 l 1,36,-1
 1214 -418 l 1,37,-1
 818 -418 l 1,0,-1
EndSplineSet
EndChar

StartChar: hturnhook2
Encoding: 687 687 649
Width: 1472
Flags: W
LayerCount: 2
Fore
SplineSet
1184 -429 m 0,0,1
 1003 -429 1003 -429 924 -342 c 128,-1,2
 845 -255 845 -255 872 -87 c 2,3,-1
 935 289 l 1,4,-1
 972 289 l 1,5,6
 908 156 908 156 804 68.5 c 128,-1,7
 700 -19 700 -19 543 -19 c 0,8,9
 426 -19 426 -19 351 33.5 c 128,-1,10
 276 86 276 86 247.5 180 c 128,-1,11
 219 274 219 274 239 398 c 2,12,-1
 291 713 l 2,13,14
 299 758 299 758 266.5 775 c 128,-1,15
 234 792 234 792 185 792 c 0,16,17
 170 792 170 792 147 791.5 c 128,-1,18
 124 791 124 791 100.5 790.5 c 128,-1,19
 77 790 77 790 61 789 c 1,20,-1
 111 1088 l 1,21,22
 154 1091 154 1091 208 1092.5 c 128,-1,23
 262 1094 262 1094 323 1094 c 0,24,25
 419 1094 419 1094 495 1076 c 128,-1,26
 571 1058 571 1058 622 1017.5 c 128,-1,27
 673 977 673 977 693 908.5 c 128,-1,28
 713 840 713 840 696 739 c 2,29,-1
 654 486 l 2,30,31
 641 405 641 405 673.5 359 c 128,-1,32
 706 313 706 313 780 313 c 0,33,34
 828 313 828 313 866 334 c 128,-1,35
 904 355 904 355 929 395 c 128,-1,36
 954 435 954 435 964 493 c 2,37,-1
 1062 1087 l 1,38,-1
 1463 1087 l 1,39,-1
 1273 -60 l 2,40,41
 1267 -98 1267 -98 1285 -115.5 c 128,-1,42
 1303 -133 1303 -133 1347 -133 c 0,43,44
 1385 -133 1385 -133 1423 -132 c 128,-1,45
 1461 -131 1461 -131 1486 -129 c 1,46,-1
 1438 -417 l 1,47,48
 1412 -421 1412 -421 1367.5 -423.5 c 128,-1,49
 1323 -426 1323 -426 1274.5 -427.5 c 128,-1,50
 1226 -429 1226 -429 1184 -429 c 0,0,1
EndSplineSet
EndChar

StartChar: dotlessi
Encoding: 305 305 660
Width: 590
GlyphClass: 2
Flags: W
AnchorPoint: "Anchor-4" 406 0 basechar 0
AnchorPoint: "Anchor-1" 385 1087 basechar 0
AnchorPoint: "Anchor-0" 207 0 basechar 0
LayerCount: 2
Fore
SplineSet
5 0 m 1,0,-1
 184 1087 l 1,1,-1
 586 1087 l 1,2,-1
 406 0 l 1,3,-1
 5 0 l 1,0,-1
EndSplineSet
EndChar

StartChar: uni0237
Encoding: 567 567 682
Width: 591
GlyphClass: 2
Flags: W
AnchorPoint: "Anchor-1" 386 1087 basechar 0
AnchorPoint: "Anchor-0" 81 -397 basechar 0
LayerCount: 2
Fore
SplineSet
186 1087 m 1,0,-1
 586 1087 l 1,1,-1
 401 -38 l 2,2,3
 378 -175 378 -175 310 -258.5 c 128,-1,4
 242 -342 242 -342 133.5 -380 c 128,-1,5
 25 -418 25 -418 -119 -418 c 2,6,-1
 -237 -418 l 1,7,-1
 -187 -118 l 1,8,-1
 -127 -118 l 2,9,10
 -64 -118 -64 -118 -35 -93.5 c 128,-1,11
 -6 -69 -6 -69 3 -15 c 2,12,-1
 186 1087 l 1,0,-1
EndSplineSet
EndChar

StartChar: i.sc
Encoding: 60950 60950 689
Width: 791
GlyphClass: 2
Flags: W
AnchorPoint: "Anchor-4" 673 0 basechar 0
AnchorPoint: "Anchor-1" 485 1087 basechar 0
AnchorPoint: "Anchor-0" 305 0 basechar 0
LayerCount: 2
Fore
SplineSet
-63 0 m 1,0,-1
 -11 314 l 1,1,-1
 157 314 l 1,2,-1
 234 774 l 1,3,-1
 65 774 l 1,4,-1
 117 1087 l 1,5,-1
 854 1087 l 1,6,-1
 802 774 l 1,7,-1
 634 774 l 1,8,-1
 558 314 l 1,9,-1
 725 314 l 1,10,-1
 673 0 l 1,11,-1
 -63 0 l 1,0,-1
EndSplineSet
EndChar

StartChar: jcrosstail.ccmp
Encoding: 57423 57423 691
Width: 1122
GlyphClass: 2
Flags: W
AnchorPoint: "Anchor-4" 856 0 basechar 0
AnchorPoint: "Anchor-1" 835 1087 basechar 0
AnchorPoint: "Anchor-0" 605 -460 basechar 0
LayerCount: 2
Fore
SplineSet
317 -442 m 0,0,1
 173 -442 173 -442 88 -405.5 c 128,-1,2
 3 -369 3 -369 -29.5 -304 c 128,-1,3
 -62 -239 -62 -239 -50 -152 c 0,4,5
 -37 -67 -37 -67 14 -3 c 128,-1,6
 65 61 65 61 154.5 97.5 c 128,-1,7
 244 134 244 134 373 134 c 2,8,-1
 1185 134 l 1,9,-1
 1145 -110 l 1,10,-1
 379 -110 l 2,11,12
 345 -111 345 -111 311.5 -118.5 c 128,-1,13
 278 -126 278 -126 271 -166 c 0,14,15
 264 -203 264 -203 289.5 -212 c 128,-1,16
 315 -221 315 -221 349 -222 c 0,17,18
 400 -221 400 -221 413.5 -196 c 128,-1,19
 427 -171 427 -171 435 -126 c 2,20,-1
 476 127 l 1,21,-1
 878 127 l 1,22,-1
 853 -18 l 2,23,24
 840 -96 840 -96 808.5 -172 c 128,-1,25
 777 -248 777 -248 717.5 -309 c 128,-1,26
 658 -370 658 -370 560.5 -406 c 128,-1,27
 463 -442 463 -442 317 -442 c 0,0,1
455 0 m 1,28,-1
 635 1087 l 1,29,-1
 1036 1087 l 1,30,-1
 856 0 l 1,31,-1
 455 0 l 1,28,-1
EndSplineSet
EndChar

StartChar: k
Encoding: 107 107 698
Width: 1222
GlyphClass: 2
Flags: W
AnchorPoint: "Anchor-1" 452 1490 basechar 0
AnchorPoint: "Anchor-0" 531 0 basechar 0
LayerCount: 2
Fore
SplineSet
405 252 m 1,0,-1
 484 727 l 1,1,-1
 535 727 l 1,2,-1
 864 1087 l 1,3,-1
 1315 1087 l 1,4,-1
 769 516 l 1,5,-1
 656 516 l 1,6,-1
 405 252 l 1,0,-1
4 0 m 1,7,-1
 251 1490 l 1,8,-1
 652 1490 l 1,9,-1
 405 0 l 1,10,-1
 4 0 l 1,7,-1
690 0 m 1,11,-1
 507 427 l 1,12,-1
 814 709 l 1,13,-1
 1147 0 l 1,14,-1
 690 0 l 1,11,-1
EndSplineSet
Substitution2: "'sups' Superscript in Latin lookup 39 subtable" k.sups
Substitution2: "'subs' Subscript in Latin lookup 38 subtable" k.subs
Substitution2: "'sinf' Scientific Inferiors in Latin lookup 18 subtable" k.subs
AlternateSubs2: "'aalt' Access All Alternates in Latin lookup 1 subtable" k.sups k.subs
EndChar

StartChar: uni0199
Encoding: 409 409 699
Width: 1223
GlyphClass: 2
Flags: W
AnchorPoint: "Anchor-1" 386 1087 basechar 0
AnchorPoint: "Anchor-0" 531 0 basechar 0
LayerCount: 2
Fore
SplineSet
148 865 m 1,0,-1
 185 1087 l 1,1,-1
 191 1124 l 2,2,3
 222 1311 222 1311 340 1404 c 128,-1,4
 458 1497 458 1497 669 1497 c 0,5,6
 731 1497 731 1497 784 1494.5 c 128,-1,7
 837 1492 837 1492 874 1486 c 1,8,-1
 826 1192 l 1,9,10
 802 1194 802 1194 770 1195 c 128,-1,11
 738 1196 738 1196 700 1196 c 0,12,13
 650 1196 650 1196 624 1176.5 c 128,-1,14
 598 1157 598 1157 590 1113 c 2,15,-1
 586 1087 l 1,16,-1
 549 865 l 1,17,-1
 148 865 l 1,0,-1
406 252 m 1,18,-1
 484 727 l 1,19,-1
 535 727 l 1,20,-1
 864 1087 l 1,21,-1
 1316 1087 l 1,22,-1
 770 516 l 1,23,-1
 657 516 l 1,24,-1
 406 252 l 1,18,-1
5 0 m 1,25,-1
 185 1087 l 1,26,-1
 586 1087 l 1,27,-1
 406 0 l 1,28,-1
 5 0 l 1,25,-1
691 0 m 1,29,-1
 507 427 l 1,30,-1
 815 709 l 1,31,-1
 1147 0 l 1,32,-1
 691 0 l 1,29,-1
EndSplineSet
EndChar

StartChar: kturn
Encoding: 670 670 705
Width: 1222
GlyphClass: 2
Flags: W
AnchorPoint: "Anchor-1" 688 1087 basechar 0
AnchorPoint: "Anchor-0" 693 1087 basechar 0
LayerCount: 2
Fore
SplineSet
817 835 m 1,0,-1
 739 360 l 1,1,-1
 688 360 l 1,2,-1
 360 0 l 1,3,-1
 -93 0 l 1,4,-1
 453 573 l 1,5,-1
 566 573 l 1,6,-1
 817 835 l 1,0,-1
1218 1087 m 1,7,-1
 971 -403 l 1,8,-1
 570 -403 l 1,9,-1
 817 1087 l 1,10,-1
 1218 1087 l 1,7,-1
532 1087 m 1,11,-1
 716 662 l 1,12,-1
 409 378 l 1,13,-1
 77 1087 l 1,14,-1
 532 1087 l 1,11,-1
EndSplineSet
EndChar

StartChar: k.base
Encoding: 60951 60951 706
Width: 1223
GlyphClass: 2
Flags: W
AnchorPoint: "Anchor-1" 385 1087 basechar 0
AnchorPoint: "Anchor-0" 531 0 basechar 0
LayerCount: 2
Fore
SplineSet
406 252 m 1,0,-1
 485 727 l 1,1,-1
 536 727 l 1,2,-1
 864 1087 l 1,3,-1
 1316 1087 l 1,4,-1
 770 516 l 1,5,-1
 657 516 l 1,6,-1
 406 252 l 1,0,-1
5 0 m 1,7,-1
 185 1087 l 1,8,-1
 586 1087 l 1,9,-1
 406 0 l 1,10,-1
 5 0 l 1,7,-1
691 0 m 1,11,-1
 508 427 l 1,12,-1
 814 709 l 1,13,-1
 1147 0 l 1,14,-1
 691 0 l 1,11,-1
EndSplineSet
EndChar

StartChar: l
Encoding: 1114124 -1 707
Width: 590
GlyphClass: 2
Flags: W
AnchorPoint: "Anchor-1" 452 1490 basechar 0
AnchorPoint: "Anchor-0" 204 0 basechar 0
LayerCount: 2
Fore
SplineSet
652 1490 m 1,0,-1
 405 0 l 1,1,-1
 4 0 l 1,2,-1
 251 1490 l 1,3,-1
 652 1490 l 1,0,-1
EndSplineSet
Substitution2: "'smcp' Lowercase to Small Capitals in Latin lookup 68 subtable" l.sc
Substitution2: "'c2sc' Capitals to Small Capitals in Latin lookup 67 subtable" l.sc
Substitution2: "'cv05' Character Variants 05 in Latin lookup 59 subtable" l.ss02
Substitution2: "'ss04' Style Set 4 in Latin lookup 50 subtable" l.ss02
Substitution2: "'ss02' Style Set 2 in Latin lookup 48 subtable" l.ss02
Substitution2: "'salt' Stylistic Alternatives in Latin lookup 46 subtable" l.ss02
Substitution2: "'sups' Superscript in Latin lookup 39 subtable" l.sups
Substitution2: "'subs' Subscript in Latin lookup 38 subtable" l.subs
Substitution2: "'sinf' Scientific Inferiors in Latin lookup 18 subtable" l.subs
AlternateSubs2: "'aalt' Access All Alternates in Latin lookup 1 subtable" l.sc l.sups l.subs
EndChar

StartChar: lrthook
Encoding: 621 621 711
Width: 590
GlyphClass: 2
Flags: W
AnchorPoint: "Anchor-1" 452 1490 basechar 0
AnchorPoint: "Anchor-0" 204 0 basechar 0
LayerCount: 2
Fore
SplineSet
347 -429 m 0,0,1
 136 -429 136 -429 50 -335.5 c 128,-1,2
 -36 -242 -36 -242 -4 -55 c 2,3,-1
 5 0 l 1,4,-1
 405 0 l 1,5,-1
 398 -44 l 2,6,7
 391 -88 391 -88 409.5 -108 c 128,-1,8
 428 -128 428 -128 478 -128 c 0,9,10
 516 -128 516 -128 548 -127 c 128,-1,11
 580 -126 580 -126 604 -124 c 1,12,-1
 555 -417 l 1,13,14
 516 -423 516 -423 462 -426 c 128,-1,15
 408 -429 408 -429 347 -429 c 0,0,1
652 1490 m 1,16,-1
 405 0 l 1,17,-1
 4 0 l 1,18,-1
 251 1490 l 1,19,-1
 652 1490 l 1,16,-1
EndSplineSet
EndChar

StartChar: uni026C
Encoding: 1114128 -1 712
Width: 1130
Flags: W
LayerCount: 2
Fore
SplineSet
1109 518 m 1,0,-1
 373 518 l 2,1,2
 246 518 246 518 173 555.5 c 128,-1,3
 100 593 100 593 74 657.5 c 128,-1,4
 48 722 48 722 61 803 c 0,5,6
 75 891 75 891 131.5 965.5 c 128,-1,7
 188 1040 188 1040 288 1086 c 128,-1,8
 388 1132 388 1132 532 1132 c 0,9,10
 670 1132 670 1132 753 1091 c 128,-1,11
 836 1050 836 1050 875 981 c 128,-1,12
 914 912 914 912 920 826 c 128,-1,13
 926 740 926 740 912 649 c 2,14,-1
 871 399 l 1,15,-1
 469 399 l 1,16,-1
 527 761 l 2,17,18
 537 814 537 814 527.5 841 c 128,-1,19
 518 868 518 868 482 867 c 0,20,21
 458 868 458 868 436.5 860 c 128,-1,22
 415 852 415 852 402 840.5 c 128,-1,23
 389 829 389 829 387 814 c 0,24,25
 383 796 383 796 399 778 c 128,-1,26
 415 760 415 760 458 760 c 2,27,-1
 1147 760 l 1,28,-1
 1109 518 l 1,0,-1
1051 1490 m 1,29,-1
 804 0 l 1,30,-1
 403 0 l 1,31,-1
 649 1490 l 1,32,-1
 1051 1490 l 1,29,-1
EndSplineSet
Substitution2: "'cv05' Character Variants 05 in Latin lookup 59 subtable" uni026C.ss02
Substitution2: "'ss04' Style Set 4 in Latin lookup 50 subtable" uni026C.ss02
Substitution2: "'ss02' Style Set 2 in Latin lookup 48 subtable" uni026C.ss02
Substitution2: "'salt' Stylistic Alternatives in Latin lookup 46 subtable" uni026C.ss02
EndChar

StartChar: uni0234
Encoding: 564 564 713
Width: 910
GlyphClass: 2
Flags: W
AnchorPoint: "Anchor-1" 452 1490 basechar 0
AnchorPoint: "Anchor-0" 204 0 basechar 0
LayerCount: 2
Fore
SplineSet
410 -418 m 0,0,1
 245 -418 245 -418 147.5 -374.5 c 128,-1,2
 50 -331 50 -331 14.5 -241 c 128,-1,3
 -21 -151 -21 -151 2 -12 c 2,4,-1
 37 192 l 1,5,-1
 437 192 l 1,6,-1
 385 -122 l 2,7,8
 378 -162 378 -162 399 -181.5 c 128,-1,9
 420 -201 420 -201 458 -201 c 0,10,11
 491 -201 491 -201 516 -186 c 128,-1,12
 541 -171 541 -171 546 -144 c 0,13,14
 550 -114 550 -114 529.5 -96 c 128,-1,15
 509 -78 509 -78 458 -78 c 0,16,17
 430 -78 430 -78 395 -87.5 c 128,-1,18
 360 -97 360 -97 304 -126 c 128,-1,19
 248 -155 248 -155 156 -211 c 2,20,-1
 -198 -430 l 1,21,-1
 -327 -207 l 1,22,-1
 47 23 l 2,23,24
 134 76 134 76 245.5 119 c 128,-1,25
 357 162 357 162 480 162 c 0,26,27
 690 162 690 162 790.5 69 c 128,-1,28
 891 -24 891 -24 868 -161 c 0,29,30
 847 -288 847 -288 731 -353 c 128,-1,31
 615 -418 615 -418 410 -418 c 0,0,1
652 1490 m 1,32,-1
 405 0 l 1,33,-1
 4 0 l 1,34,-1
 251 1490 l 1,35,-1
 652 1490 l 1,32,-1
EndSplineSet
EndChar

StartChar: l.ss02
Encoding: 57424 57424 722
AltUni2: 00006c.ffffffff.0
Width: 663
GlyphClass: 2
Flags: W
AnchorPoint: "Anchor-1" 452 1490 basechar 0
AnchorPoint: "Anchor-0" 260 0 basechar 0
LayerCount: 2
Fore
SplineSet
406 -3 m 0,0,1
 196 -3 196 -3 113 75 c 128,-1,2
 30 153 30 153 59 326 c 2,3,-1
 252 1490 l 1,4,-1
 653 1490 l 1,5,-1
 465 365 l 2,6,7
 460 331 460 331 476 313 c 128,-1,8
 492 295 492 295 529 295 c 0,9,10
 544 295 544 295 556 295.5 c 128,-1,11
 568 296 568 296 576 298 c 1,12,-1
 557 13 l 1,13,14
 531 8 531 8 492 2.5 c 128,-1,15
 453 -3 453 -3 406 -3 c 0,0,1
EndSplineSet
EndChar

StartChar: uni026C.ss02
Encoding: 57428 57428 726
AltUni2: 00026c.ffffffff.0
Width: 1115
GlyphClass: 2
Flags: W
AnchorPoint: "Anchor-1" 861 1490 basechar 0
AnchorPoint: "Anchor-0" 669 0 basechar 0
LayerCount: 2
Fore
SplineSet
387 528 m 2,0,1
 225 528 225 528 137 621.5 c 128,-1,2
 49 715 49 715 74 866 c 0,3,4
 90 963 90 963 144 1037.5 c 128,-1,5
 198 1112 198 1112 276.5 1154 c 128,-1,6
 355 1196 355 1196 443 1196 c 0,7,8
 558 1196 558 1196 611.5 1129 c 128,-1,9
 665 1062 665 1062 674 952 c 128,-1,10
 683 842 683 842 661 712 c 2,11,-1
 649 638 l 1,12,-1
 519 638 l 1,13,-1
 549 824 l 2,14,15
 557 867 557 867 536 898.5 c 128,-1,16
 515 930 515 930 473 930 c 0,17,18
 442 930 442 930 422 914 c 128,-1,19
 402 898 402 898 397 870 c 0,20,21
 392 841 392 841 411.5 824.5 c 128,-1,22
 431 808 431 808 469 808 c 2,23,-1
 1123 816 l 1,24,-1
 1076 528 l 1,25,-1
 387 528 l 2,0,1
815 -3 m 0,26,27
 605 -3 605 -3 522 75 c 128,-1,28
 439 153 439 153 468 326 c 2,29,-1
 661 1490 l 1,30,-1
 1062 1490 l 1,31,-1
 874 365 l 2,32,33
 869 331 869 331 885 313 c 128,-1,34
 901 295 901 295 938 295 c 0,35,36
 953 295 953 295 965 295.5 c 128,-1,37
 977 296 977 296 985 298 c 1,38,-1
 966 13 l 1,39,40
 940 8 940 8 901 2.5 c 128,-1,41
 862 -3 862 -3 815 -3 c 0,26,27
EndSplineSet
EndChar

StartChar: l.sc
Encoding: 60952 60952 736
Width: 870
GlyphClass: 2
Flags: W
AnchorPoint: "Anchor-1" 321 1087 basechar 0
AnchorPoint: "Anchor-0" 342 0 basechar 0
LayerCount: 2
Fore
SplineSet
-58 0 m 1,0,-1
 122 1087 l 1,1,-1
 523 1087 l 1,2,-1
 396 327 l 1,3,-1
 814 327 l 1,4,-1
 760 0 l 1,5,-1
 -58 0 l 1,0,-1
EndSplineSet
EndChar

StartChar: m
Encoding: 109 109 737
Width: 1910
GlyphClass: 2
Flags: W
AnchorPoint: "Anchor-1" 1045 1087 basechar 0
AnchorPoint: "Anchor-0" 866 0 basechar 0
LayerCount: 2
Fore
SplineSet
4 0 m 1,0,-1
 184 1087 l 1,1,-1
 560 1087 l 1,2,-1
 528 808 l 1,3,-1
 505 821 l 1,4,5
 548 927 548 927 608 989 c 128,-1,6
 668 1051 668 1051 737.5 1078.5 c 128,-1,7
 807 1106 807 1106 878 1106 c 0,8,9
 962 1106 962 1106 1024 1070.5 c 128,-1,10
 1086 1035 1086 1035 1121 963 c 128,-1,11
 1156 891 1156 891 1158 779 c 1,12,-1
 1125 806 l 1,13,14
 1166 917 1166 917 1231 982.5 c 128,-1,15
 1296 1048 1296 1048 1374 1077 c 128,-1,16
 1452 1106 1452 1106 1530 1106 c 0,17,18
 1642 1106 1642 1106 1719 1056.5 c 128,-1,19
 1796 1007 1796 1007 1830 919.5 c 128,-1,20
 1864 832 1864 832 1845 717 c 2,21,-1
 1726 0 l 1,22,-1
 1326 0 l 1,23,-1
 1432 642 l 2,24,25
 1440 691 1440 691 1431.5 722.5 c 128,-1,26
 1423 754 1423 754 1400 769.5 c 128,-1,27
 1377 785 1377 785 1340 785 c 0,28,29
 1295 785 1295 785 1256 763 c 128,-1,30
 1217 741 1217 741 1192 703 c 128,-1,31
 1167 665 1167 665 1159 616 c 2,32,-1
 1057 0 l 1,33,-1
 675 0 l 1,34,-1
 781 643 l 2,35,36
 793 715 793 715 768.5 750 c 128,-1,37
 744 785 744 785 689 785 c 0,38,39
 644 785 644 785 605.5 763 c 128,-1,40
 567 741 567 741 541.5 703 c 128,-1,41
 516 665 516 665 508 617 c 2,42,-1
 405 0 l 1,43,-1
 4 0 l 1,0,-1
EndSplineSet
Substitution2: "'smcp' Lowercase to Small Capitals in Latin lookup 68 subtable" m.sc
Substitution2: "'c2sc' Capitals to Small Capitals in Latin lookup 67 subtable" m.sc
Substitution2: "'sups' Superscript in Latin lookup 39 subtable" m.sups
Substitution2: "'subs' Subscript in Latin lookup 38 subtable" m.subs
Substitution2: "'sinf' Scientific Inferiors in Latin lookup 18 subtable" m.subs
AlternateSubs2: "'aalt' Access All Alternates in Latin lookup 1 subtable" m.sups m.subs m.sc
EndChar

StartChar: uni0271
Encoding: 625 625 738
Width: 1910
GlyphClass: 2
Flags: W
AnchorPoint: "Anchor-1" 1045 1087 basechar 0
AnchorPoint: "Anchor-0" 866 0 basechar 0
LayerCount: 2
Fore
SplineSet
1247 -429 m 0,0,1
 1185 -429 1185 -429 1130 -426 c 128,-1,2
 1075 -423 1075 -423 1038 -417 c 1,3,-1
 1086 -124 l 1,4,5
 1109 -126 1109 -126 1141.5 -127 c 128,-1,6
 1174 -128 1174 -128 1211 -128 c 0,7,8
 1262 -128 1262 -128 1286.5 -108.5 c 128,-1,9
 1311 -89 1311 -89 1318 -44 c 2,10,-1
 1326 0 l 1,11,-1
 1726 0 l 1,12,-1
 1718 -55 l 2,13,14
 1687 -242 1687 -242 1572.5 -335.5 c 128,-1,15
 1458 -429 1458 -429 1247 -429 c 0,0,1
4 0 m 1,16,-1
 184 1087 l 1,17,-1
 560 1087 l 1,18,-1
 528 808 l 1,19,-1
 505 821 l 1,20,21
 548 927 548 927 608 989 c 128,-1,22
 668 1051 668 1051 737.5 1078.5 c 128,-1,23
 807 1106 807 1106 878 1106 c 0,24,25
 962 1106 962 1106 1024 1070.5 c 128,-1,26
 1086 1035 1086 1035 1121 963 c 128,-1,27
 1156 891 1156 891 1158 779 c 1,28,-1
 1125 806 l 1,29,30
 1166 917 1166 917 1231 982.5 c 128,-1,31
 1296 1048 1296 1048 1374 1077 c 128,-1,32
 1452 1106 1452 1106 1530 1106 c 0,33,34
 1642 1106 1642 1106 1719 1056.5 c 128,-1,35
 1796 1007 1796 1007 1830 919.5 c 128,-1,36
 1864 832 1864 832 1845 717 c 2,37,-1
 1726 0 l 1,38,-1
 1326 0 l 1,39,-1
 1432 642 l 2,40,41
 1440 691 1440 691 1431.5 722.5 c 128,-1,42
 1423 754 1423 754 1400 769.5 c 128,-1,43
 1377 785 1377 785 1340 785 c 0,44,45
 1295 785 1295 785 1256 763 c 128,-1,46
 1217 741 1217 741 1192 703 c 128,-1,47
 1167 665 1167 665 1159 616 c 2,48,-1
 1057 0 l 1,49,-1
 675 0 l 1,50,-1
 781 643 l 2,51,52
 793 715 793 715 768.5 750 c 128,-1,53
 744 785 744 785 689 785 c 0,54,55
 644 785 644 785 605.5 763 c 128,-1,56
 567 741 567 741 541.5 703 c 128,-1,57
 516 665 516 665 508 617 c 2,58,-1
 405 0 l 1,59,-1
 4 0 l 1,16,-1
EndSplineSet
EndChar

StartChar: mturn
Encoding: 623 623 739
Width: 1910
GlyphClass: 2
Flags: W
AnchorPoint: "Anchor-1" 1046 1087 basechar 0
AnchorPoint: "Anchor-0" 866 0 basechar 0
LayerCount: 2
Fore
SplineSet
1906 1087 m 1,0,-1
 1726 0 l 1,1,-1
 1352 0 l 1,2,-1
 1382 279 l 1,3,-1
 1406 266 l 1,4,5
 1363 161 1363 161 1303 98.5 c 128,-1,6
 1243 36 1243 36 1174 8.5 c 128,-1,7
 1105 -19 1105 -19 1033 -19 c 0,8,9
 949 -19 949 -19 887.5 16.5 c 128,-1,10
 826 52 826 52 791 125 c 128,-1,11
 756 198 756 198 753 308 c 1,12,-1
 786 283 l 1,13,14
 745 172 745 172 679.5 106 c 128,-1,15
 614 40 614 40 536.5 10.5 c 128,-1,16
 459 -19 459 -19 381 -19 c 0,17,18
 269 -19 269 -19 192 31 c 128,-1,19
 115 81 115 81 81 169 c 128,-1,20
 47 257 47 257 66 370 c 2,21,-1
 184 1087 l 1,22,-1
 586 1087 l 1,23,-1
 479 445 l 2,24,25
 471 398 471 398 479.5 366 c 128,-1,26
 488 334 488 334 511.5 318 c 128,-1,27
 535 302 535 302 571 302 c 0,28,29
 617 302 617 302 655 324.5 c 128,-1,30
 693 347 693 347 718.5 385 c 128,-1,31
 744 423 744 423 753 471 c 2,32,-1
 855 1087 l 1,33,-1
 1237 1087 l 1,34,-1
 1130 446 l 2,35,36
 1118 373 1118 373 1142.5 337.5 c 128,-1,37
 1167 302 1167 302 1221 302 c 0,38,39
 1268 302 1268 302 1306.5 324.5 c 128,-1,40
 1345 347 1345 347 1370.5 385 c 128,-1,41
 1396 423 1396 423 1404 472 c 2,42,-1
 1505 1087 l 1,43,-1
 1906 1087 l 1,0,-1
EndSplineSet
EndChar

StartChar: mturndescend
Encoding: 624 624 740
Width: 1910
GlyphClass: 2
Flags: W
AnchorPoint: "Anchor-1" 1046 1087 basechar 0
AnchorPoint: "Anchor-0" 866 0 basechar 0
LayerCount: 2
Fore
SplineSet
1275 -418 m 1,0,-1
 1344 0 l 1,1,-1
 1726 0 l 1,2,-1
 1657 -418 l 1,3,-1
 1275 -418 l 1,0,-1
1906 1087 m 1,4,-1
 1726 0 l 1,5,-1
 1352 0 l 1,6,-1
 1382 279 l 1,7,-1
 1406 266 l 1,8,9
 1363 161 1363 161 1303 98.5 c 128,-1,10
 1243 36 1243 36 1174 8.5 c 128,-1,11
 1105 -19 1105 -19 1033 -19 c 0,12,13
 949 -19 949 -19 887.5 16.5 c 128,-1,14
 826 52 826 52 791 125 c 128,-1,15
 756 198 756 198 753 308 c 1,16,-1
 786 283 l 1,17,18
 745 172 745 172 679.5 106 c 128,-1,19
 614 40 614 40 536.5 10.5 c 128,-1,20
 459 -19 459 -19 381 -19 c 0,21,22
 269 -19 269 -19 192 31 c 128,-1,23
 115 81 115 81 81 169 c 128,-1,24
 47 257 47 257 66 370 c 2,25,-1
 184 1087 l 1,26,-1
 586 1087 l 1,27,-1
 479 445 l 2,28,29
 471 398 471 398 479.5 366 c 128,-1,30
 488 334 488 334 511.5 318 c 128,-1,31
 535 302 535 302 571 302 c 0,32,33
 617 302 617 302 655 324.5 c 128,-1,34
 693 347 693 347 718.5 385 c 128,-1,35
 744 423 744 423 753 471 c 2,36,-1
 855 1087 l 1,37,-1
 1237 1087 l 1,38,-1
 1130 446 l 2,39,40
 1118 373 1118 373 1142.5 337.5 c 128,-1,41
 1167 302 1167 302 1221 302 c 0,42,43
 1268 302 1268 302 1306.5 324.5 c 128,-1,44
 1345 347 1345 347 1370.5 385 c 128,-1,45
 1396 423 1396 423 1404 472 c 2,46,-1
 1505 1087 l 1,47,-1
 1906 1087 l 1,4,-1
EndSplineSet
EndChar

StartChar: n
Encoding: 110 110 744
Width: 1299
GlyphClass: 2
Flags: W
AnchorPoint: "Anchor-1" 739 1087 basechar 0
AnchorPoint: "Anchor-0" 559 0 basechar 0
LayerCount: 2
Fore
SplineSet
501 581 m 2,0,-1
 405 0 l 1,1,-1
 4 0 l 1,2,-1
 184 1087 l 1,3,-1
 570 1087 l 1,4,-1
 529 799 l 1,5,-1
 493 811 l 1,6,7
 559 944 559 944 657 1025 c 128,-1,8
 755 1106 755 1106 904 1106 c 0,9,10
 1028 1106 1028 1106 1106.5 1050.5 c 128,-1,11
 1185 995 1185 995 1216.5 898 c 128,-1,12
 1248 801 1248 801 1227 676 c 2,13,-1
 1115 0 l 1,14,-1
 713 0 l 1,15,-1
 815 616 l 2,16,17
 829 697 829 697 793.5 735.5 c 128,-1,18
 758 774 758 774 693 774 c 0,19,20
 639 774 639 774 599.5 750 c 128,-1,21
 560 726 560 726 535.5 683 c 128,-1,22
 511 640 511 640 501 581 c 2,0,-1
EndSplineSet
Substitution2: "'smcp' Lowercase to Small Capitals in Latin lookup 68 subtable" n.sc
Substitution2: "'c2sc' Capitals to Small Capitals in Latin lookup 67 subtable" n.sc
Substitution2: "'sups' Superscript in Latin lookup 39 subtable" n.sups
Substitution2: "'subs' Subscript in Latin lookup 38 subtable" n.subs
Substitution2: "'numr' Numerators in Latin lookup 19 subtable" n.numr
Substitution2: "'sinf' Scientific Inferiors in Latin lookup 18 subtable" n.subs
AlternateSubs2: "'aalt' Access All Alternates in Latin lookup 1 subtable" n.sc n.numr n.sups n.subs
EndChar

StartChar: nrthook
Encoding: 627 627 746
Width: 1299
GlyphClass: 2
Flags: W
AnchorPoint: "Anchor-1" 739 1087 basechar 0
AnchorPoint: "Anchor-0" 559 0 basechar 0
LayerCount: 2
Fore
SplineSet
1055 -429 m 0,0,1
 844 -429 844 -429 759 -335.5 c 128,-1,2
 674 -242 674 -242 704 -55 c 2,3,-1
 713 0 l 1,4,-1
 1115 0 l 1,5,-1
 1107 -44 l 2,6,7
 1100 -88 1100 -88 1118.5 -108 c 128,-1,8
 1137 -128 1137 -128 1187 -128 c 0,9,10
 1224 -128 1224 -128 1256 -127 c 128,-1,11
 1288 -126 1288 -126 1313 -124 c 1,12,-1
 1265 -417 l 1,13,14
 1225 -423 1225 -423 1171 -426 c 128,-1,15
 1117 -429 1117 -429 1055 -429 c 0,0,1
501 581 m 2,16,-1
 405 0 l 1,17,-1
 4 0 l 1,18,-1
 184 1087 l 1,19,-1
 570 1087 l 1,20,-1
 529 799 l 1,21,-1
 493 811 l 1,22,23
 559 944 559 944 657 1025 c 128,-1,24
 755 1106 755 1106 904 1106 c 0,25,26
 1028 1106 1028 1106 1106.5 1050.5 c 128,-1,27
 1185 995 1185 995 1216.5 898 c 128,-1,28
 1248 801 1248 801 1227 676 c 2,29,-1
 1115 0 l 1,30,-1
 713 0 l 1,31,-1
 815 616 l 2,32,33
 829 697 829 697 793.5 735.5 c 128,-1,34
 758 774 758 774 693 774 c 0,35,36
 639 774 639 774 599.5 750 c 128,-1,37
 560 726 560 726 535.5 683 c 128,-1,38
 511 640 511 640 501 581 c 2,16,-1
EndSplineSet
EndChar

StartChar: eng
Encoding: 331 331 747
Width: 1299
GlyphClass: 2
Flags: W
AnchorPoint: "Anchor-1" 739 1087 basechar 0
AnchorPoint: "Anchor-0" 559 0 basechar 0
LayerCount: 2
Fore
SplineSet
444 -417 m 1,0,-1
 495 -111 l 1,1,2
 524 -114 524 -114 546 -115 c 128,-1,3
 568 -116 568 -116 600 -116 c 0,4,5
 651 -116 651 -116 676 -96.5 c 128,-1,6
 701 -77 701 -77 708 -32 c 2,7,-1
 713 0 l 1,8,-1
 1115 0 l 1,9,-1
 1105 -55 l 2,10,11
 1074 -242 1074 -242 957 -335.5 c 128,-1,12
 840 -429 840 -429 629 -429 c 0,13,14
 568 -429 568 -429 525 -426 c 128,-1,15
 482 -423 482 -423 444 -417 c 1,0,-1
501 581 m 2,16,-1
 405 0 l 1,17,-1
 4 0 l 1,18,-1
 184 1087 l 1,19,-1
 570 1087 l 1,20,-1
 529 799 l 1,21,-1
 493 811 l 1,22,23
 559 944 559 944 657 1025 c 128,-1,24
 755 1106 755 1106 904 1106 c 0,25,26
 1028 1106 1028 1106 1106.5 1050.5 c 128,-1,27
 1185 995 1185 995 1216.5 898 c 128,-1,28
 1248 801 1248 801 1227 676 c 2,29,-1
 1115 0 l 1,30,-1
 713 0 l 1,31,-1
 815 616 l 2,32,33
 829 697 829 697 793.5 735.5 c 128,-1,34
 758 774 758 774 693 774 c 0,35,36
 639 774 639 774 599.5 750 c 128,-1,37
 560 726 560 726 535.5 683 c 128,-1,38
 511 640 511 640 501 581 c 2,16,-1
EndSplineSet
EndChar

StartChar: uni0235
Encoding: 565 565 748
Width: 1619
GlyphClass: 2
Flags: W
AnchorPoint: "Anchor-1" 739 1087 basechar 0
AnchorPoint: "Anchor-0" 559 0 basechar 0
LayerCount: 2
Fore
SplineSet
1119 -418 m 0,0,1
 955 -418 955 -418 857 -374.5 c 128,-1,2
 759 -331 759 -331 724 -241 c 128,-1,3
 689 -151 689 -151 712 -12 c 2,4,-1
 745 192 l 1,5,-1
 1147 192 l 1,6,-1
 1094 -122 l 2,7,8
 1088 -162 1088 -162 1109 -181.5 c 128,-1,9
 1130 -201 1130 -201 1168 -201 c 0,10,11
 1201 -201 1201 -201 1226 -186 c 128,-1,12
 1251 -171 1251 -171 1254 -144 c 0,13,14
 1260 -114 1260 -114 1238.5 -96 c 128,-1,15
 1217 -78 1217 -78 1168 -78 c 0,16,17
 1138 -78 1138 -78 1103 -87.5 c 128,-1,18
 1068 -97 1068 -97 1012 -126 c 128,-1,19
 956 -155 956 -155 865 -211 c 2,20,-1
 511 -430 l 1,21,-1
 382 -207 l 1,22,-1
 757 23 l 2,23,24
 842 76 842 76 953.5 119 c 128,-1,25
 1065 162 1065 162 1190 162 c 0,26,27
 1398 162 1398 162 1499.5 69 c 128,-1,28
 1601 -24 1601 -24 1578 -161 c 0,29,30
 1557 -288 1557 -288 1441 -353 c 128,-1,31
 1325 -418 1325 -418 1119 -418 c 0,0,1
501 581 m 2,32,-1
 405 0 l 1,33,-1
 4 0 l 1,34,-1
 184 1087 l 1,35,-1
 570 1087 l 1,36,-1
 529 799 l 1,37,-1
 493 811 l 1,38,39
 559 944 559 944 657 1025 c 128,-1,40
 755 1106 755 1106 904 1106 c 0,41,42
 1028 1106 1028 1106 1106.5 1050.5 c 128,-1,43
 1185 995 1185 995 1216.5 898 c 128,-1,44
 1248 801 1248 801 1227 676 c 2,45,-1
 1115 0 l 1,46,-1
 713 0 l 1,47,-1
 815 616 l 2,48,49
 829 697 829 697 793.5 735.5 c 128,-1,50
 758 774 758 774 693 774 c 0,51,52
 639 774 639 774 599.5 750 c 128,-1,53
 560 726 560 726 535.5 683 c 128,-1,54
 511 640 511 640 501 581 c 2,32,-1
EndSplineSet
EndChar

StartChar: nlfthook
Encoding: 626 626 749
Width: 1299
GlyphClass: 2
Flags: W
AnchorPoint: "Anchor-1" 739 1087 basechar 0
AnchorPoint: "Anchor-0" 559 0 basechar 0
LayerCount: 2
Fore
SplineSet
-75 -429 m 0,0,1
 -136 -429 -136 -429 -191 -426 c 128,-1,2
 -246 -423 -246 -423 -284 -417 c 1,3,-1
 -235 -124 l 1,4,5
 -211 -126 -211 -126 -179.5 -127 c 128,-1,6
 -148 -128 -148 -128 -110 -128 c 0,7,8
 -60 -128 -60 -128 -35 -108.5 c 128,-1,9
 -10 -89 -10 -89 -3 -44 c 2,10,-1
 4 0 l 1,11,-1
 406 0 l 1,12,-1
 396 -55 l 2,13,14
 365 -242 365 -242 250.5 -335.5 c 128,-1,15
 136 -429 136 -429 -75 -429 c 0,0,1
501 581 m 2,16,-1
 405 0 l 1,17,-1
 4 0 l 1,18,-1
 184 1087 l 1,19,-1
 570 1087 l 1,20,-1
 529 799 l 1,21,-1
 493 811 l 1,22,23
 559 944 559 944 657 1025 c 128,-1,24
 755 1106 755 1106 904 1106 c 0,25,26
 1028 1106 1028 1106 1106.5 1050.5 c 128,-1,27
 1185 995 1185 995 1216.5 898 c 128,-1,28
 1248 801 1248 801 1227 676 c 2,29,-1
 1115 0 l 1,30,-1
 713 0 l 1,31,-1
 815 616 l 2,32,33
 829 697 829 697 793.5 735.5 c 128,-1,34
 758 774 758 774 693 774 c 0,35,36
 639 774 639 774 599.5 750 c 128,-1,37
 560 726 560 726 535.5 683 c 128,-1,38
 511 640 511 640 501 581 c 2,16,-1
EndSplineSet
EndChar

StartChar: n.sc
Encoding: 60953 60953 760
Width: 1309
GlyphClass: 2
Flags: W
AnchorPoint: "Anchor-1" 745 1087 basechar 0
AnchorPoint: "Anchor-0" 565 0 basechar 0
LayerCount: 2
Fore
SplineSet
5 0 m 1,0,-1
 185 1087 l 1,1,-1
 549 1087 l 1,2,-1
 709 777 l 2,3,4
 760 676 760 676 796.5 588 c 128,-1,5
 833 500 833 500 865 420 c 1,6,-1
 814 420 l 1,7,8
 824 480 824 480 832 534 c 128,-1,9
 840 588 840 588 848.5 647 c 128,-1,10
 857 706 857 706 869 777 c 2,11,-1
 921 1087 l 1,12,-1
 1305 1087 l 1,13,-1
 1125 0 l 1,14,-1
 761 0 l 1,15,-1
 600 313 l 2,16,17
 550 412 550 412 513.5 500 c 128,-1,18
 477 588 477 588 446 668 c 1,19,-1
 495 668 l 1,20,21
 487 609 487 609 479 554.5 c 128,-1,22
 471 500 471 500 462 442 c 128,-1,23
 453 384 453 384 440 313 c 2,24,-1
 389 0 l 1,25,-1
 5 0 l 1,0,-1
EndSplineSet
EndChar

StartChar: o
Encoding: 111 111 761
Width: 1262
GlyphClass: 2
Flags: W
AnchorPoint: "Anchor-4" 1209 542 basechar 0
AnchorPoint: "Anchor-1" 722 1087 basechar 0
AnchorPoint: "Anchor-0" 542 0 basechar 0
LayerCount: 2
Fore
SplineSet
559 -22 m 0,0,1
 398 -22 398 -22 284 36 c 128,-1,2
 170 94 170 94 109 199.5 c 128,-1,3
 48 305 48 305 48 448 c 0,4,5
 48 586 48 586 94 705.5 c 128,-1,6
 140 825 140 825 226 915 c 128,-1,7
 312 1005 312 1005 433.5 1055.5 c 128,-1,8
 555 1106 555 1106 704 1106 c 0,9,10
 865 1106 865 1106 979 1048.5 c 128,-1,11
 1093 991 1093 991 1154 885.5 c 128,-1,12
 1215 780 1215 780 1215 637 c 0,13,14
 1215 504 1215 504 1171 385 c 128,-1,15
 1127 266 1127 266 1042 174.5 c 128,-1,16
 957 83 957 83 835.5 30.5 c 128,-1,17
 714 -22 714 -22 559 -22 c 0,0,1
580 285 m 0,18,19
 642 285 642 285 686 320.5 c 128,-1,20
 730 356 730 356 758.5 412 c 128,-1,21
 787 468 787 468 800 531 c 128,-1,22
 813 594 813 594 813 647 c 0,23,24
 813 699 813 699 795.5 732.5 c 128,-1,25
 778 766 778 766 748.5 783.5 c 128,-1,26
 719 801 719 801 683 801 c 0,27,28
 621 801 621 801 576.5 765.5 c 128,-1,29
 532 730 532 730 504 674.5 c 128,-1,30
 476 619 476 619 463 556.5 c 128,-1,31
 450 494 450 494 450 440 c 0,32,33
 450 363 450 363 488 324 c 128,-1,34
 526 285 526 285 580 285 c 0,18,19
EndSplineSet
Substitution2: "Single Substitution lookup 44 subtable" ordmasculine
Substitution2: "'sups' Superscript in Latin lookup 39 subtable" o.sups
Substitution2: "'subs' Subscript in Latin lookup 38 subtable" o.subs
Substitution2: "'sinf' Scientific Inferiors in Latin lookup 18 subtable" o.subs
AlternateSubs2: "'aalt' Access All Alternates in Latin lookup 1 subtable" ordmasculine o.sups o.subs
EndChar

StartChar: ohorn
Encoding: 417 417 765
Width: 1262
GlyphClass: 2
Flags: W
AnchorPoint: "Anchor-4" 1209 542 basechar 0
AnchorPoint: "Anchor-1" 722 1087 basechar 0
AnchorPoint: "Anchor-0" 542 0 basechar 0
LayerCount: 2
Fore
SplineSet
683 863 m 1,0,-1
 724 1106 l 1,1,2
 760 1106 760 1106 792 1103.5 c 128,-1,3
 824 1101 824 1101 853.5 1097 c 128,-1,4
 883 1093 883 1093 908.5 1090.5 c 128,-1,5
 934 1088 934 1088 955 1088 c 0,6,7
 992 1088 992 1088 996 1119 c 2,8,-1
 1029 1311 l 1,9,-1
 1369 1311 l 1,10,-1
 1329 1077 l 2,11,12
 1317 1000 1317 1000 1269.5 953.5 c 128,-1,13
 1222 907 1222 907 1155 885 c 128,-1,14
 1088 863 1088 863 1016 863 c 0,15,16
 933 863 933 863 850 863 c 128,-1,17
 767 863 767 863 683 863 c 1,0,-1
559 -22 m 0,18,19
 398 -22 398 -22 284 36 c 128,-1,20
 170 94 170 94 109 199.5 c 128,-1,21
 48 305 48 305 48 448 c 0,22,23
 48 586 48 586 94 705.5 c 128,-1,24
 140 825 140 825 226 915 c 128,-1,25
 312 1005 312 1005 433.5 1055.5 c 128,-1,26
 555 1106 555 1106 704 1106 c 0,27,28
 865 1106 865 1106 979 1048.5 c 128,-1,29
 1093 991 1093 991 1154 885.5 c 128,-1,30
 1215 780 1215 780 1215 637 c 0,31,32
 1215 504 1215 504 1171 385 c 128,-1,33
 1127 266 1127 266 1042 174.5 c 128,-1,34
 957 83 957 83 835.5 30.5 c 128,-1,35
 714 -22 714 -22 559 -22 c 0,18,19
580 285 m 0,36,37
 642 285 642 285 686 320.5 c 128,-1,38
 730 356 730 356 758.5 412 c 128,-1,39
 787 468 787 468 800 531 c 128,-1,40
 813 594 813 594 813 647 c 0,41,42
 813 699 813 699 795.5 732.5 c 128,-1,43
 778 766 778 766 748.5 783.5 c 128,-1,44
 719 801 719 801 683 801 c 0,45,46
 621 801 621 801 576.5 765.5 c 128,-1,47
 532 730 532 730 504 674.5 c 128,-1,48
 476 619 476 619 463 556.5 c 128,-1,49
 450 494 450 494 450 440 c 0,50,51
 450 363 450 363 488 324 c 128,-1,52
 526 285 526 285 580 285 c 0,36,37
EndSplineSet
EndChar

StartChar: uni1EE1
Encoding: 7905 7905 795
Width: 1262
GlyphClass: 2
Flags: W
AnchorPoint: "Anchor-4" 1209 542 basechar 0
AnchorPoint: "Anchor-1" 781 1496 basechar 0
AnchorPoint: "Anchor-0" 542 0 basechar 0
LayerCount: 2
Fore
SplineSet
559 -22 m 0,0,1
 398 -22 398 -22 284 36 c 128,-1,2
 170 94 170 94 109 199.5 c 128,-1,3
 48 305 48 305 48 448 c 0,4,5
 48 586 48 586 94 705.5 c 128,-1,6
 140 825 140 825 226 915 c 128,-1,7
 312 1005 312 1005 433.5 1055.5 c 128,-1,8
 555 1106 555 1106 704 1106 c 0,9,10
 865 1106 865 1106 979 1048.5 c 128,-1,11
 1093 991 1093 991 1154 885.5 c 128,-1,12
 1215 780 1215 780 1215 637 c 0,13,14
 1215 504 1215 504 1171 385 c 128,-1,15
 1127 266 1127 266 1042 174.5 c 128,-1,16
 957 83 957 83 835.5 30.5 c 128,-1,17
 714 -22 714 -22 559 -22 c 0,0,1
580 285 m 0,18,19
 642 285 642 285 686 320.5 c 128,-1,20
 730 356 730 356 758.5 412 c 128,-1,21
 787 468 787 468 800 531 c 128,-1,22
 813 594 813 594 813 647 c 0,23,24
 813 699 813 699 795.5 732.5 c 128,-1,25
 778 766 778 766 748.5 783.5 c 128,-1,26
 719 801 719 801 683 801 c 0,27,28
 621 801 621 801 576.5 765.5 c 128,-1,29
 532 730 532 730 504 674.5 c 128,-1,30
 476 619 476 619 463 556.5 c 128,-1,31
 450 494 450 494 450 440 c 0,32,33
 450 363 450 363 488 324 c 128,-1,34
 526 285 526 285 580 285 c 0,18,19
683 863 m 1,35,-1
 724 1106 l 1,36,37
 760 1106 760 1106 792 1103.5 c 128,-1,38
 824 1101 824 1101 853.5 1097 c 128,-1,39
 883 1093 883 1093 908.5 1090.5 c 128,-1,40
 934 1088 934 1088 955 1088 c 0,41,42
 992 1088 992 1088 996 1119 c 2,43,-1
 1029 1311 l 1,44,-1
 1369 1311 l 1,45,-1
 1329 1077 l 2,46,47
 1317 1000 1317 1000 1269.5 953.5 c 128,-1,48
 1222 907 1222 907 1155 885 c 128,-1,49
 1088 863 1088 863 1016 863 c 0,50,51
 933 863 933 863 850 863 c 128,-1,52
 767 863 767 863 683 863 c 1,35,-1
848 1261 m 0,53,54
 807 1261 807 1261 781.5 1275 c 128,-1,55
 756 1289 756 1289 738.5 1306.5 c 128,-1,56
 721 1324 721 1324 705.5 1337.5 c 128,-1,57
 690 1351 690 1351 671 1351 c 0,58,59
 646 1351 646 1351 629 1330 c 128,-1,60
 612 1309 612 1309 604 1267 c 1,61,-1
 464 1267 l 1,62,63
 485 1385 485 1385 544 1443 c 128,-1,64
 603 1501 603 1501 676 1501 c 0,65,66
 715 1501 715 1501 741 1487.5 c 128,-1,67
 767 1474 767 1474 785.5 1457 c 128,-1,68
 804 1440 804 1440 819.5 1427 c 128,-1,69
 835 1414 835 1414 853 1414 c 0,70,71
 883 1414 883 1414 898.5 1435.5 c 128,-1,72
 914 1457 914 1457 921 1496 c 1,73,-1
 1060 1496 l 1,74,75
 1040 1381 1040 1381 980 1321 c 128,-1,76
 920 1261 920 1261 848 1261 c 0,53,54
EndSplineSet
Ligature2: "'ccmp' Glyph Composition/Decomposition in Latin lookup 6 subtable" ohorn tildecomb
EndChar

StartChar: obar
Encoding: 629 629 808
Width: 1262
GlyphClass: 2
Flags: W
AnchorPoint: "Anchor-4" 1209 542 basechar 0
AnchorPoint: "Anchor-1" 722 1087 basechar 0
AnchorPoint: "Anchor-0" 542 0 basechar 0
LayerCount: 2
Fore
SplineSet
986 623 m 1,0,-1
 959 465 l 1,1,-1
 275 465 l 1,2,-1
 302 623 l 1,3,-1
 986 623 l 1,0,-1
559 -22 m 0,4,5
 398 -22 398 -22 284 36 c 128,-1,6
 170 94 170 94 109 199.5 c 128,-1,7
 48 305 48 305 48 448 c 0,8,9
 48 586 48 586 94 705.5 c 128,-1,10
 140 825 140 825 226 915 c 128,-1,11
 312 1005 312 1005 433.5 1055.5 c 128,-1,12
 555 1106 555 1106 704 1106 c 0,13,14
 865 1106 865 1106 979 1048.5 c 128,-1,15
 1093 991 1093 991 1154 885.5 c 128,-1,16
 1215 780 1215 780 1215 637 c 0,17,18
 1215 504 1215 504 1171 385 c 128,-1,19
 1127 266 1127 266 1042 174.5 c 128,-1,20
 957 83 957 83 835.5 30.5 c 128,-1,21
 714 -22 714 -22 559 -22 c 0,4,5
580 285 m 0,22,23
 642 285 642 285 686 320.5 c 128,-1,24
 730 356 730 356 758.5 412 c 128,-1,25
 787 468 787 468 800 531 c 128,-1,26
 813 594 813 594 813 647 c 0,27,28
 813 699 813 699 795.5 732.5 c 128,-1,29
 778 766 778 766 748.5 783.5 c 128,-1,30
 719 801 719 801 683 801 c 0,31,32
 621 801 621 801 576.5 765.5 c 128,-1,33
 532 730 532 730 504 674.5 c 128,-1,34
 476 619 476 619 463 556.5 c 128,-1,35
 450 494 450 494 450 440 c 0,36,37
 450 363 450 363 488 324 c 128,-1,38
 526 285 526 285 580 285 c 0,22,23
EndSplineSet
EndChar

StartChar: oe.sc
Encoding: 60954 60954 812
Width: 1673
GlyphClass: 2
Flags: W
AnchorPoint: "Anchor-4" 1553 0 basechar 0
AnchorPoint: "Anchor-3" 1110 0 basechar 0
AnchorPoint: "Anchor-1" 1291 1087 basechar 0
AnchorPoint: "Anchor-0" 1111 0 basechar 0
LayerCount: 2
Fore
SplineSet
667 0 m 1,0,-1
 847 1087 l 1,1,-1
 1737 1087 l 1,2,-1
 1683 761 l 1,3,-1
 1193 761 l 1,4,-1
 1183 702 l 1,5,-1
 1632 702 l 1,6,-1
 1579 386 l 1,7,-1
 1130 386 l 1,8,-1
 1121 327 l 1,9,-1
 1606 327 l 1,10,-1
 1553 0 l 1,11,-1
 667 0 l 1,0,-1
515 0 m 2,12,13
 358 0 358 0 243 60 c 128,-1,14
 128 120 128 120 76 240.5 c 128,-1,15
 24 361 24 361 54 541 c 0,16,17
 83 723 83 723 176.5 844 c 128,-1,18
 270 965 270 965 406 1026 c 128,-1,19
 542 1087 542 1087 701 1087 c 2,20,-1
 1043 1087 l 1,21,-1
 989 764 l 1,22,-1
 659 764 l 2,23,24
 606 764 606 764 567.5 748 c 128,-1,25
 529 732 529 732 503 684.5 c 128,-1,26
 477 637 477 637 461 542 c 0,27,28
 447 447 447 447 456 401 c 128,-1,29
 465 355 465 355 496.5 340 c 128,-1,30
 528 325 528 325 578 325 c 2,31,-1
 915 325 l 1,32,-1
 860 0 l 1,33,-1
 515 0 l 2,12,13
EndSplineSet
EndChar

StartChar: p
Encoding: 112 112 814
Width: 1301
GlyphClass: 2
Flags: W
AnchorPoint: "Anchor-1" 774 1087 basechar 0
AnchorPoint: "Anchor-0" 138 -409 basechar 0
LayerCount: 2
Fore
SplineSet
-65 -418 m 1,0,-1
 184 1087 l 1,1,-1
 581 1087 l 1,2,-1
 553 923 l 1,3,-1
 558 923 l 1,4,5
 593 981 593 981 640.5 1022 c 128,-1,6
 688 1063 688 1063 747 1084.5 c 128,-1,7
 806 1106 806 1106 876 1106 c 0,8,9
 986 1106 986 1106 1071 1055.5 c 128,-1,10
 1156 1005 1156 1005 1206 906 c 128,-1,11
 1256 807 1256 807 1256 664 c 0,12,13
 1256 549 1256 549 1223.5 428.5 c 128,-1,14
 1191 308 1191 308 1125.5 207 c 128,-1,15
 1060 106 1060 106 960.5 43.5 c 128,-1,16
 861 -19 861 -19 727 -19 c 0,17,18
 647 -19 647 -19 588.5 8 c 128,-1,19
 530 35 530 35 492.5 80 c 128,-1,20
 455 125 455 125 441 182 c 1,21,-1
 435 182 l 1,22,-1
 336 -418 l 1,23,-1
 -65 -418 l 1,0,-1
604 292 m 0,24,25
 668 292 668 292 714.5 327.5 c 128,-1,26
 761 363 761 363 791 417.5 c 128,-1,27
 821 472 821 472 835 533 c 128,-1,28
 849 594 849 594 849 645 c 0,29,30
 849 717 849 717 819 757 c 128,-1,31
 789 797 789 797 728 797 c 0,32,33
 668 797 668 797 620.5 765.5 c 128,-1,34
 573 734 573 734 540 682 c 128,-1,35
 507 630 507 630 490 570 c 128,-1,36
 473 510 473 510 473 453 c 0,37,38
 473 378 473 378 507.5 335 c 128,-1,39
 542 292 542 292 604 292 c 0,24,25
EndSplineSet
Substitution2: "'sups' Superscript in Latin lookup 39 subtable" p.sups
Substitution2: "'subs' Subscript in Latin lookup 38 subtable" p.subs
Substitution2: "'sinf' Scientific Inferiors in Latin lookup 18 subtable" p.subs
AlternateSubs2: "'aalt' Access All Alternates in Latin lookup 1 subtable" p.sups p.subs
EndChar

StartChar: uni048F
Encoding: 1167 1167 815
Width: 1239
GlyphClass: 2
Flags: W
AnchorPoint: "Anchor-1" 784 1087 basechar 0
AnchorPoint: "Anchor-0" 148 -409 basechar 0
LayerCount: 2
Fore
SplineSet
683 510 m 1,0,-1
 1032 -30 l 1,1,-1
 918 -100 l 1,2,-1
 573 440 l 1,3,-1
 683 510 l 1,0,-1
-55 -418 m 1,4,-1
 194 1087 l 1,5,-1
 591 1087 l 1,6,-1
 563 923 l 1,7,-1
 568 923 l 1,8,9
 603 981 603 981 650.5 1022 c 128,-1,10
 698 1063 698 1063 757 1084.5 c 128,-1,11
 816 1106 816 1106 886 1106 c 0,12,13
 996 1106 996 1106 1081 1055.5 c 128,-1,14
 1166 1005 1166 1005 1216 906 c 128,-1,15
 1266 807 1266 807 1266 664 c 0,16,17
 1266 549 1266 549 1233.5 428.5 c 128,-1,18
 1201 308 1201 308 1135.5 207 c 128,-1,19
 1070 106 1070 106 970.5 43.5 c 128,-1,20
 871 -19 871 -19 737 -19 c 0,21,22
 657 -19 657 -19 598.5 8 c 128,-1,23
 540 35 540 35 502.5 80 c 128,-1,24
 465 125 465 125 451 182 c 1,25,-1
 445 182 l 1,26,-1
 346 -418 l 1,27,-1
 -55 -418 l 1,4,-1
614 292 m 0,28,29
 678 292 678 292 724.5 327.5 c 128,-1,30
 771 363 771 363 801 417.5 c 128,-1,31
 831 472 831 472 845 533 c 128,-1,32
 859 594 859 594 859 645 c 0,33,34
 859 717 859 717 829 757 c 128,-1,35
 799 797 799 797 738 797 c 0,36,37
 678 797 678 797 630.5 765.5 c 128,-1,38
 583 734 583 734 550 682 c 128,-1,39
 517 630 517 630 500 570 c 128,-1,40
 483 510 483 510 483 453 c 0,41,42
 483 378 483 378 517.5 335 c 128,-1,43
 552 292 552 292 614 292 c 0,28,29
EndSplineSet
EndChar

StartChar: uni01A5
Encoding: 421 421 816
Width: 1301
GlyphClass: 2
Flags: W
AnchorPoint: "Anchor-1" 774 1087 basechar 0
AnchorPoint: "Anchor-0" 138 -409 basechar 0
LayerCount: 2
Fore
SplineSet
148 865 m 1,0,-1
 185 1087 l 1,1,-1
 190 1124 l 1,2,3
 222 1311 222 1311 340 1404 c 128,-1,4
 458 1497 458 1497 669 1497 c 0,5,6
 730 1497 730 1497 783 1494.5 c 128,-1,7
 836 1492 836 1492 874 1486 c 1,8,-1
 825 1192 l 1,9,10
 802 1194 802 1194 769.5 1195 c 128,-1,11
 737 1196 737 1196 700 1196 c 0,12,13
 650 1196 650 1196 623.5 1176.5 c 128,-1,14
 597 1157 597 1157 590 1113 c 2,15,-1
 585 1087 l 1,16,-1
 549 865 l 1,17,-1
 148 865 l 1,0,-1
-65 -418 m 1,18,-1
 184 1087 l 1,19,-1
 581 1087 l 1,20,-1
 553 923 l 1,21,-1
 558 923 l 1,22,23
 593 981 593 981 640.5 1022 c 128,-1,24
 688 1063 688 1063 747 1084.5 c 128,-1,25
 806 1106 806 1106 876 1106 c 0,26,27
 986 1106 986 1106 1071 1055.5 c 128,-1,28
 1156 1005 1156 1005 1206 906 c 128,-1,29
 1256 807 1256 807 1256 664 c 0,30,31
 1256 549 1256 549 1223.5 428.5 c 128,-1,32
 1191 308 1191 308 1125.5 207 c 128,-1,33
 1060 106 1060 106 960.5 43.5 c 128,-1,34
 861 -19 861 -19 727 -19 c 0,35,36
 647 -19 647 -19 588.5 8 c 128,-1,37
 530 35 530 35 492.5 80 c 128,-1,38
 455 125 455 125 441 182 c 1,39,-1
 435 182 l 1,40,-1
 336 -418 l 1,41,-1
 -65 -418 l 1,18,-1
604 292 m 0,42,43
 668 292 668 292 714.5 327.5 c 128,-1,44
 761 363 761 363 791 417.5 c 128,-1,45
 821 472 821 472 835 533 c 128,-1,46
 849 594 849 594 849 645 c 0,47,48
 849 717 849 717 819 757 c 128,-1,49
 789 797 789 797 728 797 c 0,50,51
 668 797 668 797 620.5 765.5 c 128,-1,52
 573 734 573 734 540 682 c 128,-1,53
 507 630 507 630 490 570 c 128,-1,54
 473 510 473 510 473 453 c 0,55,56
 473 378 473 378 507.5 335 c 128,-1,57
 542 292 542 292 604 292 c 0,42,43
EndSplineSet
EndChar

StartChar: q
Encoding: 113 113 820
Width: 1301
GlyphClass: 2
Flags: W
AnchorPoint: "Anchor-1" 741 1087 basechar 0
AnchorPoint: "Anchor-0" 847 -409 basechar 0
LayerCount: 2
Fore
SplineSet
1048 -418 m 1,0,-1
 646 -418 l 1,1,-1
 744 161 l 1,2,-1
 736 161 l 1,3,4
 703 102 703 102 658 62.5 c 128,-1,5
 613 23 613 23 555.5 2 c 128,-1,6
 498 -19 498 -19 430 -19 c 0,7,8
 314 -19 314 -19 228 32.5 c 128,-1,9
 142 84 142 84 93.5 182 c 128,-1,10
 45 280 45 280 45 421 c 0,11,12
 45 546 45 546 80 668 c 128,-1,13
 115 790 115 790 182.5 889 c 128,-1,14
 250 988 250 988 347.5 1047 c 128,-1,15
 445 1106 445 1106 570 1106 c 0,16,17
 652 1106 652 1106 710.5 1080 c 128,-1,18
 769 1054 769 1054 807.5 1008.5 c 128,-1,19
 846 963 846 963 864 906 c 1,20,-1
 870 906 l 1,21,-1
 900 1087 l 1,22,-1
 1297 1087 l 1,23,-1
 1048 -418 l 1,0,-1
574 292 m 0,24,25
 634 292 634 292 681 324 c 128,-1,26
 728 356 728 356 761 408 c 128,-1,27
 794 460 794 460 811.5 520 c 128,-1,28
 829 580 829 580 829 637 c 0,29,30
 829 713 829 713 794 755 c 128,-1,31
 759 797 759 797 698 797 c 256,32,33
 637 797 637 797 591 763.5 c 128,-1,34
 545 730 545 730 514 677 c 128,-1,35
 483 624 483 624 467.5 562.5 c 128,-1,36
 452 501 452 501 452 444 c 0,37,38
 452 371 452 371 482.5 331.5 c 128,-1,39
 513 292 513 292 574 292 c 0,24,25
EndSplineSet
Substitution2: "'sups' Superscript in Latin lookup 39 subtable" q.sups
Substitution2: "'subs' Subscript in Latin lookup 38 subtable" q.subs
Substitution2: "'sinf' Scientific Inferiors in Latin lookup 18 subtable" q.subs
AlternateSubs2: "'aalt' Access All Alternates in Latin lookup 1 subtable" q.sups q.subs
EndChar

StartChar: uni02A0
Encoding: 672 672 821
Width: 1301
GlyphClass: 2
Flags: W
AnchorPoint: "Anchor-1" 741 1087 basechar 0
AnchorPoint: "Anchor-0" 847 -409 basechar 0
LayerCount: 2
Fore
SplineSet
859 865 m 1,0,-1
 896 1087 l 1,1,-1
 902 1124 l 2,2,3
 933 1311 933 1311 1051 1404 c 128,-1,4
 1169 1497 1169 1497 1380 1497 c 0,5,6
 1442 1497 1442 1497 1495 1494.5 c 128,-1,7
 1548 1492 1548 1492 1585 1486 c 1,8,-1
 1537 1192 l 1,9,10
 1513 1194 1513 1194 1481 1195 c 128,-1,11
 1449 1196 1449 1196 1411 1196 c 0,12,13
 1361 1196 1361 1196 1335 1176.5 c 128,-1,14
 1309 1157 1309 1157 1301 1113 c 2,15,-1
 1297 1087 l 1,16,-1
 1260 865 l 1,17,-1
 859 865 l 1,0,-1
1048 -418 m 1,18,-1
 646 -418 l 1,19,-1
 744 161 l 1,20,-1
 736 161 l 1,21,22
 703 102 703 102 658 62.5 c 128,-1,23
 613 23 613 23 555.5 2 c 128,-1,24
 498 -19 498 -19 430 -19 c 0,25,26
 314 -19 314 -19 228 32.5 c 128,-1,27
 142 84 142 84 93.5 182 c 128,-1,28
 45 280 45 280 45 421 c 0,29,30
 45 546 45 546 80 668 c 128,-1,31
 115 790 115 790 182.5 889 c 128,-1,32
 250 988 250 988 347.5 1047 c 128,-1,33
 445 1106 445 1106 570 1106 c 0,34,35
 652 1106 652 1106 710.5 1080 c 128,-1,36
 769 1054 769 1054 807.5 1008.5 c 128,-1,37
 846 963 846 963 864 906 c 1,38,-1
 870 906 l 1,39,-1
 900 1087 l 1,40,-1
 1297 1087 l 1,41,-1
 1048 -418 l 1,18,-1
574 292 m 0,42,43
 634 292 634 292 681 324 c 128,-1,44
 728 356 728 356 761 408 c 128,-1,45
 794 460 794 460 811.5 520 c 128,-1,46
 829 580 829 580 829 637 c 0,47,48
 829 713 829 713 794 755 c 128,-1,49
 759 797 759 797 698 797 c 256,50,51
 637 797 637 797 591 763.5 c 128,-1,52
 545 730 545 730 514 677 c 128,-1,53
 483 624 483 624 467.5 562.5 c 128,-1,54
 452 501 452 501 452 444 c 0,55,56
 452 371 452 371 482.5 331.5 c 128,-1,57
 513 292 513 292 574 292 c 0,42,43
EndSplineSet
EndChar

StartChar: qrthook
Encoding: 587 587 822
Width: 1298
GlyphClass: 2
Flags: W
AnchorPoint: "Anchor-4" 1113 0 basechar 0
AnchorPoint: "Anchor-1" 750 1087 basechar 0
AnchorPoint: "Anchor-0" 569 0 basechar 0
LayerCount: 2
Fore
SplineSet
1054 -429 m 0,0,1
 843 -429 843 -429 760 -335.5 c 128,-1,2
 677 -242 677 -242 707 -55 c 2,3,-1
 751 209 l 1,4,-1
 1148 209 l 1,5,-1
 1106 -44 l 2,6,7
 1099 -89 1099 -89 1117.5 -108.5 c 128,-1,8
 1136 -128 1136 -128 1186 -128 c 0,9,10
 1223 -128 1223 -128 1255 -127 c 128,-1,11
 1287 -126 1287 -126 1312 -124 c 1,12,-1
 1264 -417 l 1,13,14
 1224 -423 1224 -423 1170 -426 c 128,-1,15
 1116 -429 1116 -429 1054 -429 c 0,0,1
408 -19 m 0,16,17
 280 -19 280 -19 189 46.5 c 128,-1,18
 98 112 98 112 60.5 238 c 128,-1,19
 23 364 23 364 54 545 c 0,20,21
 84 727 84 727 165.5 852 c 128,-1,22
 247 977 247 977 358.5 1041.5 c 128,-1,23
 470 1106 470 1106 592 1106 c 0,24,25
 667 1106 667 1106 722 1083 c 128,-1,26
 777 1060 777 1060 813 1019 c 128,-1,27
 849 978 849 978 866 924 c 1,28,-1
 871 924 l 1,29,-1
 899 1087 l 1,30,-1
 1293 1087 l 1,31,-1
 1113 0 l 1,32,-1
 720 0 l 1,33,-1
 748 171 l 1,34,-1
 741 171 l 1,35,36
 709 113 709 113 659 70.5 c 128,-1,37
 609 28 609 28 546 4.5 c 128,-1,38
 483 -19 483 -19 408 -19 c 0,16,17
594 292 m 256,39,40
 649 292 649 292 695 323 c 128,-1,41
 741 354 741 354 773 410.5 c 128,-1,42
 805 467 805 467 818 545 c 0,43,44
 830 623 830 623 816.5 679 c 128,-1,45
 803 735 803 735 767.5 766 c 128,-1,46
 732 797 732 797 676 797 c 0,47,48
 622 797 622 797 578.5 766 c 128,-1,49
 535 735 535 735 505.5 678.5 c 128,-1,50
 476 622 476 622 462 545 c 0,51,52
 450 467 450 467 461 410.5 c 128,-1,53
 472 354 472 354 505.5 323 c 128,-1,54
 539 292 539 292 594 292 c 256,39,40
EndSplineSet
EndChar

StartChar: r
Encoding: 114 114 823
Width: 871
GlyphClass: 2
Flags: W
AnchorPoint: "Anchor-1" 565 1087 basechar 0
AnchorPoint: "Anchor-0" 207 0 basechar 0
LayerCount: 2
Fore
SplineSet
5 0 m 1,0,-1
 185 1087 l 1,1,-1
 574 1087 l 1,2,-1
 541 884 l 1,3,-1
 548 884 l 1,4,5
 596 998 596 998 667.5 1046 c 128,-1,6
 739 1094 739 1094 838 1094 c 0,7,8
 866 1094 866 1094 890.5 1092 c 128,-1,9
 915 1090 915 1090 938 1087 c 1,10,-1
 883 755 l 1,11,12
 859 761 859 761 815.5 763 c 128,-1,13
 772 765 772 765 738 765 c 0,14,15
 677 765 677 765 626 738 c 128,-1,16
 575 711 575 711 541.5 661.5 c 128,-1,17
 508 612 508 612 496 544 c 2,18,-1
 406 0 l 1,19,-1
 5 0 l 1,0,-1
EndSplineSet
Substitution2: "'smcp' Lowercase to Small Capitals in Latin lookup 68 subtable" r.sc
Substitution2: "'c2sc' Capitals to Small Capitals in Latin lookup 67 subtable" r.sc
Substitution2: "'sups' Superscript in Latin lookup 39 subtable" r.sups
Substitution2: "'subs' Subscript in Latin lookup 38 subtable" r.subs
Substitution2: "'sinf' Scientific Inferiors in Latin lookup 18 subtable" r.subs
AlternateSubs2: "'aalt' Access All Alternates in Latin lookup 1 subtable" r.sc r.sups r.subs
EndChar

StartChar: rrthook
Encoding: 57437 57437 824
Width: 871
GlyphClass: 2
Flags: W
AnchorPoint: "Anchor-1" 565 1087 basechar 0
AnchorPoint: "Anchor-0" 207 0 basechar 0
LayerCount: 2
Fore
SplineSet
347 -429 m 0,0,1
 136 -429 136 -429 50.5 -335.5 c 128,-1,2
 -35 -242 -35 -242 -4 -55 c 2,3,-1
 5 0 l 1,4,-1
 406 0 l 1,5,-1
 398 -44 l 2,6,7
 391 -88 391 -88 409.5 -108 c 128,-1,8
 428 -128 428 -128 478 -128 c 0,9,10
 516 -128 516 -128 548 -127 c 128,-1,11
 580 -126 580 -126 604 -124 c 1,12,-1
 556 -417 l 1,13,14
 516 -423 516 -423 462.5 -426 c 128,-1,15
 409 -429 409 -429 347 -429 c 0,0,1
5 0 m 1,16,-1
 185 1087 l 1,17,-1
 574 1087 l 1,18,-1
 541 884 l 1,19,-1
 548 884 l 1,20,21
 596 998 596 998 667.5 1046 c 128,-1,22
 739 1094 739 1094 838 1094 c 0,23,24
 866 1094 866 1094 890.5 1092 c 128,-1,25
 915 1090 915 1090 938 1087 c 1,26,-1
 883 755 l 1,27,28
 859 761 859 761 815.5 763 c 128,-1,29
 772 765 772 765 738 765 c 0,30,31
 677 765 677 765 626 738 c 128,-1,32
 575 711 575 711 541.5 661.5 c 128,-1,33
 508 612 508 612 496 544 c 2,34,-1
 406 0 l 1,35,-1
 5 0 l 1,16,-1
EndSplineSet
EndChar

StartChar: rturn
Encoding: 633 633 826
Width: 871
GlyphClass: 2
Flags: W
AnchorPoint: "Anchor-1" 668 1087 basechar 0
AnchorPoint: "Anchor-0" 360 0 basechar 0
LayerCount: 2
Fore
SplineSet
867 1087 m 1,0,-1
 687 0 l 1,1,-1
 298 0 l 1,2,-1
 332 203 l 1,3,-1
 325 203 l 1,4,5
 277 92 277 92 205 42.5 c 128,-1,6
 133 -7 133 -7 34 -7 c 0,7,8
 7 -7 7 -7 -17.5 -4.5 c 128,-1,9
 -42 -2 -42 -2 -66 2 c 1,10,-1
 -11 332 l 1,11,12
 14 328 14 328 57.5 325 c 128,-1,13
 101 322 101 322 135 322 c 0,14,15
 196 322 196 322 246.5 349.5 c 128,-1,16
 297 377 297 377 331 426.5 c 128,-1,17
 365 476 365 476 376 543 c 2,18,-1
 466 1087 l 1,19,-1
 867 1087 l 1,0,-1
EndSplineSet
EndChar

StartChar: rturnrthook
Encoding: 635 635 827
Width: 871
GlyphClass: 2
Flags: W
AnchorPoint: "Anchor-1" 668 1087 basechar 0
AnchorPoint: "Anchor-0" 360 0 basechar 0
LayerCount: 2
Fore
SplineSet
589 -429 m 0,0,1
 408 -429 408 -429 332 -342 c 128,-1,2
 256 -255 256 -255 283 -87 c 2,3,-1
 298 0 l 1,4,-1
 687 0 l 1,5,-1
 677 -60 l 2,6,7
 671 -98 671 -98 687.5 -115.5 c 128,-1,8
 704 -133 704 -133 748 -133 c 0,9,10
 786 -133 786 -133 823 -132 c 128,-1,11
 860 -131 860 -131 885 -129 c 1,12,-1
 837 -417 l 1,13,14
 810 -421 810 -421 767.5 -423.5 c 128,-1,15
 725 -426 725 -426 677.5 -427.5 c 128,-1,16
 630 -429 630 -429 589 -429 c 0,0,1
867 1087 m 1,17,-1
 687 0 l 1,18,-1
 298 0 l 1,19,-1
 332 203 l 1,20,-1
 325 203 l 1,21,22
 277 92 277 92 205 42.5 c 128,-1,23
 133 -7 133 -7 34 -7 c 0,24,25
 7 -7 7 -7 -17.5 -4.5 c 128,-1,26
 -42 -2 -42 -2 -66 2 c 1,27,-1
 -11 332 l 1,28,29
 14 328 14 328 57.5 325 c 128,-1,30
 101 322 101 322 135 322 c 0,31,32
 196 322 196 322 246.5 349.5 c 128,-1,33
 297 377 297 377 331 426.5 c 128,-1,34
 365 476 365 476 376 543 c 2,35,-1
 466 1087 l 1,36,-1
 867 1087 l 1,17,-1
EndSplineSet
EndChar

StartChar: rfishhookrev
Encoding: 639 639 828
Width: 833
Flags: W
LayerCount: 2
Fore
SplineSet
247 0 m 1,0,-1
 343 576 l 2,1,2
 354 639 354 639 339 682.5 c 128,-1,3
 324 726 324 726 287 749 c 128,-1,4
 250 772 250 772 193 772 c 0,5,6
 160 772 160 772 122.5 771 c 128,-1,7
 85 770 85 770 60 767 c 1,8,-1
 114 1088 l 1,9,10
 131 1090 131 1090 158.5 1091 c 128,-1,11
 186 1092 186 1092 216 1093 c 128,-1,12
 246 1094 246 1094 272 1094 c 0,13,14
 409 1094 409 1094 508.5 1063 c 128,-1,15
 608 1032 608 1032 668 971.5 c 128,-1,16
 728 911 728 911 749 822 c 128,-1,17
 770 733 770 733 750 617 c 2,18,-1
 648 0 l 1,19,-1
 247 0 l 1,0,-1
EndSplineSet
EndChar

StartChar: uni027E
Encoding: 638 638 829
Width: 833
Flags: W
LayerCount: 2
Fore
SplineSet
4 0 m 1,0,-1
 106 617 l 2,1,2
 132 772 132 772 212.5 878 c 128,-1,3
 293 984 293 984 426 1039 c 128,-1,4
 559 1094 559 1094 743 1094 c 0,5,6
 768 1094 768 1094 798 1093 c 128,-1,7
 828 1092 828 1092 855 1091 c 128,-1,8
 882 1090 882 1090 899 1088 c 1,9,-1
 847 767 l 1,10,11
 822 770 822 770 785 771 c 128,-1,12
 748 772 748 772 715 772 c 0,13,14
 659 772 659 772 614.5 749 c 128,-1,15
 570 726 570 726 540.5 682.5 c 128,-1,16
 511 639 511 639 500 576 c 2,17,-1
 405 0 l 1,18,-1
 4 0 l 1,0,-1
EndSplineSet
EndChar

StartChar: rdescend
Encoding: 57438 57438 830
Width: 873
GlyphClass: 2
Flags: W
AnchorPoint: "Anchor-1" 567 1087 basechar 0
AnchorPoint: "Anchor-0" 209 0 basechar 0
LayerCount: 2
Fore
SplineSet
-65 -418 m 1,0,-1
 6 0 l 1,1,-1
 408 0 l 1,2,-1
 338 -418 l 1,3,-1
 -65 -418 l 1,0,-1
7 0 m 1,4,-1
 187 1087 l 1,5,-1
 576 1087 l 1,6,-1
 543 884 l 1,7,-1
 550 884 l 1,8,9
 598 998 598 998 669.5 1046 c 128,-1,10
 741 1094 741 1094 840 1094 c 0,11,12
 868 1094 868 1094 892.5 1092 c 128,-1,13
 917 1090 917 1090 940 1087 c 1,14,-1
 885 755 l 1,15,16
 861 761 861 761 817.5 763 c 128,-1,17
 774 765 774 765 740 765 c 0,18,19
 679 765 679 765 628 738 c 128,-1,20
 577 711 577 711 543.5 661.5 c 128,-1,21
 510 612 510 612 498 544 c 2,22,-1
 408 0 l 1,23,-1
 7 0 l 1,4,-1
EndSplineSet
EndChar

StartChar: r.sc
Encoding: 60955 60955 840
Width: 1094
GlyphClass: 2
Flags: W
AnchorPoint: "Anchor-1" 660 1087 basechar 0
AnchorPoint: "Anchor-0" 496 0 basechar 0
LayerCount: 2
Fore
SplineSet
5 0 m 1,0,-1
 185 1087 l 1,1,-1
 700 1087 l 2,2,3
 833 1087 833 1087 925 1040 c 128,-1,4
 1017 993 1017 993 1059 903.5 c 128,-1,5
 1101 814 1101 814 1079 687 c 0,6,7
 1058 564 1058 564 985.5 478.5 c 128,-1,8
 913 393 913 393 801.5 348.5 c 128,-1,9
 690 304 690 304 550 304 c 2,10,-1
 301 304 l 1,11,-1
 351 609 l 1,12,-1
 551 609 l 2,13,14
 601 609 601 609 633.5 626 c 128,-1,15
 666 643 666 643 674 686 c 256,16,17
 682 729 682 729 655 749 c 128,-1,18
 628 769 628 769 577 769 c 2,19,-1
 532 769 l 1,20,-1
 405 0 l 1,21,-1
 5 0 l 1,0,-1
583 0 m 1,22,-1
 420 499 l 1,23,-1
 830 499 l 1,24,-1
 1002 0 l 1,25,-1
 583 0 l 1,22,-1
EndSplineSet
EndChar

StartChar: rinv.sc
Encoding: 60956 60956 841
Width: 1199
Flags: W
LayerCount: 2
Fore
SplineSet
5 0 m 1,0,-1
 185 1087 l 1,1,-1
 559 1087 l 1,2,-1
 429 301 l 1,3,-1
 571 301 l 2,4,5
 645 301 645 301 684.5 325 c 128,-1,6
 724 349 724 349 733 401 c 0,7,8
 742 451 742 451 708.5 475 c 128,-1,9
 675 499 675 499 597 499 c 2,10,-1
 308 499 l 1,11,-1
 351 764 l 1,12,-1
 693 764 l 2,13,14
 921 764 921 764 1039.5 666 c 128,-1,15
 1158 568 1158 568 1129 395 c 0,16,17
 1109 272 1109 272 1035 184 c 128,-1,18
 961 96 961 96 845 48 c 128,-1,19
 729 0 729 0 581 0 c 2,20,-1
 5 0 l 1,0,-1
468 601 m 1,21,-1
 859 1087 l 1,22,-1
 1287 1087 l 1,23,-1
 887 601 l 1,24,-1
 468 601 l 1,21,-1
EndSplineSet
EndChar

StartChar: s
Encoding: 115 115 842
Width: 1174
GlyphClass: 2
Flags: W
AnchorPoint: "Anchor-3" 500 0 basechar 0
AnchorPoint: "Anchor-1" 676 1087 basechar 0
AnchorPoint: "Anchor-0" 498 0 basechar 0
LayerCount: 2
Fore
SplineSet
516 -23 m 0,0,1
 364 -23 364 -23 250.5 22 c 128,-1,2
 137 67 137 67 75 149 c 128,-1,3
 13 231 13 231 12 340 c 0,4,5
 12 342 12 342 12 344 c 128,-1,6
 12 346 12 346 12 347 c 2,7,-1
 393 361 l 1,8,9
 397 302 397 302 429.5 274 c 128,-1,10
 462 246 462 246 536 246 c 0,11,12
 573 246 573 246 607 254.5 c 128,-1,13
 641 263 641 263 663.5 281 c 128,-1,14
 686 299 686 299 686 327 c 0,15,16
 686 352 686 352 663 367.5 c 128,-1,17
 640 383 640 383 587 392 c 2,18,-1
 395 426 l 2,19,20
 250 452 250 452 174.5 526.5 c 128,-1,21
 99 601 99 601 99 713 c 0,22,23
 99 837 99 837 172.5 925 c 128,-1,24
 246 1013 246 1013 371 1059 c 128,-1,25
 496 1105 496 1105 652 1105 c 0,26,27
 877 1105 877 1105 1004 1017 c 128,-1,28
 1131 929 1131 929 1133 780 c 0,29,30
 1133 774 1133 774 1132.5 766 c 128,-1,31
 1132 758 1132 758 1131 751 c 1,32,-1
 772 739 l 1,33,34
 772 791 772 791 740.5 815 c 128,-1,35
 709 839 709 839 649 839 c 0,36,37
 615 839 615 839 581 830 c 128,-1,38
 547 821 547 821 525.5 802 c 128,-1,39
 504 783 504 783 504 754 c 0,40,41
 504 733 504 733 520.5 717 c 128,-1,42
 537 701 537 701 581 693 c 2,43,-1
 802 654 l 2,44,45
 951 629 951 629 1025.5 563.5 c 128,-1,46
 1100 498 1100 498 1100 391 c 0,47,48
 1100 296 1100 296 1054 219.5 c 128,-1,49
 1008 143 1008 143 927 89 c 128,-1,50
 846 35 846 35 740.5 6 c 128,-1,51
 635 -23 635 -23 516 -23 c 0,0,1
EndSplineSet
Substitution2: "'sups' Superscript in Latin lookup 39 subtable" s.sups
Substitution2: "'subs' Subscript in Latin lookup 38 subtable" s.subs
Substitution2: "'sinf' Scientific Inferiors in Latin lookup 18 subtable" s.subs
AlternateSubs2: "'aalt' Access All Alternates in Latin lookup 1 subtable" s.sups s.subs
EndChar

